{"glyphs":{"0":{"ha":505,"x_min":0,"x_max":505,"o":"m 505 -387 l 0 -387 l 0 -261 l 8 -261 l 8 -379 l 126 -379 l 126 -261 l 135 -261 l 135 -379 l 253 -379 l 253 -261 l 0 -261 l 0 1010 l 505 1010 l 505 1002 l 387 1002 l 387 884 l 505 884 l 505 875 l 387 875 l 387 758 l 505 758 l 505 749 l 387 749 l 387 631 l 505 631 l 505 623 l 387 623 l 387 505 l 505 505 l 505 497 l 387 497 l 387 379 l 505 379 l 505 370 l 387 370 l 387 253 l 505 253 l 505 244 l 387 244 l 387 126 l 505 126 l 505 118 l 387 118 l 387 0 l 505 0 l 505 -8 l 387 -8 l 387 -126 l 505 -126 l 505 -135 l 387 -135 l 387 -253 l 505 -253 l 505 -261 l 387 -261 l 387 -379 l 505 -379 l 505 -387 m 126 884 l 126 1002 l 8 1002 l 8 884 l 126 884 m 261 884 l 379 884 l 379 1002 l 261 1002 l 261 884 m 135 884 l 253 884 l 253 1002 l 135 1002 l 135 884 m 8 758 l 126 758 l 126 875 l 8 875 l 8 758 m 135 758 l 253 758 l 253 875 l 135 875 l 135 758 m 261 758 l 379 758 l 379 875 l 261 875 l 261 758 m 8 631 l 126 631 l 126 749 l 8 749 l 8 631 m 135 631 l 253 631 l 253 749 l 135 749 l 135 631 m 261 631 l 379 631 l 379 749 l 261 749 l 261 631 m 135 379 l 253 379 l 253 497 l 135 497 l 135 379 m 135 253 l 253 253 l 253 370 l 135 370 l 135 253 m 135 126 l 253 126 l 253 244 l 135 244 l 135 126 m 261 -126 l 379 -126 l 379 -8 l 261 -8 l 261 -126 m 135 -126 l 253 -126 l 253 -8 l 135 -8 l 135 -126 m 8 -126 l 126 -126 l 126 -8 l 8 -8 l 8 -126 m 261 -253 l 379 -253 l 379 -135 l 261 -135 l 261 -253 m 135 -253 l 253 -253 l 253 -135 l 135 -135 l 135 -253 m 8 -253 l 126 -253 l 126 -135 l 8 -135 l 8 -253 m 379 -379 l 379 -261 l 261 -261 l 261 -379 l 379 -379 z "},"1":{"ha":379,"x_min":0,"x_max":379,"o":"m 379 -387 l 0 -387 l 0 -261 l 8 -261 l 8 -379 l 126 -379 l 126 -261 l 135 -261 l 135 -379 l 253 -379 l 253 -261 l 0 -261 l 0 1010 l 379 1010 l 379 1002 l 261 1002 l 261 884 l 379 884 l 379 875 l 261 875 l 261 758 l 379 758 l 379 749 l 261 749 l 261 631 l 379 631 l 379 623 l 261 623 l 261 505 l 379 505 l 379 497 l 261 497 l 261 379 l 379 379 l 379 370 l 261 370 l 261 253 l 379 253 l 379 244 l 261 244 l 261 126 l 379 126 l 379 118 l 261 118 l 261 0 l 379 0 l 379 -8 l 261 -8 l 261 -126 l 379 -126 l 379 -135 l 261 -135 l 261 -253 l 379 -253 l 379 -261 l 261 -261 l 261 -379 l 379 -379 l 379 -387 m 126 884 l 126 1002 l 8 1002 l 8 884 l 126 884 m 135 884 l 253 884 l 253 1002 l 135 1002 l 135 884 m 8 758 l 126 758 l 126 875 l 8 875 l 8 758 m 135 758 l 253 758 l 253 875 l 135 875 l 135 758 m 8 631 l 126 631 l 126 749 l 8 749 l 8 631 m 135 631 l 253 631 l 253 749 l 135 749 l 135 631 m 8 379 l 126 379 l 126 497 l 8 497 l 8 379 m 8 253 l 126 253 l 126 370 l 8 370 l 8 253 m 8 126 l 126 126 l 126 244 l 8 244 l 8 126 m 8 0 l 126 0 l 126 118 l 8 118 l 8 0 m 8 -126 l 126 -126 l 126 -8 l 8 -8 l 8 -126 m 135 -126 l 253 -126 l 253 -8 l 135 -8 l 135 -126 m 8 -253 l 126 -253 l 126 -135 l 8 -135 l 8 -253 m 135 -253 l 253 -253 l 253 -135 l 135 -135 l 135 -253 z "},"2":{"ha":505,"x_min":0,"x_max":505,"o":"m 505 -387 l 0 -387 l 0 -261 l 8 -261 l 8 -379 l 126 -379 l 126 -261 l 135 -261 l 135 -379 l 253 -379 l 253 -261 l 261 -261 l 261 -379 l 379 -379 l 379 -261 l 0 -261 l 0 1010 l 505 1010 l 505 1002 l 387 1002 l 387 884 l 505 884 l 505 875 l 387 875 l 387 758 l 505 758 l 505 749 l 387 749 l 387 631 l 505 631 l 505 623 l 387 623 l 387 505 l 505 505 l 505 497 l 387 497 l 387 379 l 505 379 l 505 370 l 387 370 l 387 253 l 505 253 l 505 244 l 387 244 l 387 126 l 505 126 l 505 118 l 387 118 l 387 0 l 505 0 l 505 -8 l 387 -8 l 387 -126 l 505 -126 l 505 -135 l 387 -135 l 387 -253 l 505 -253 l 505 -261 l 387 -261 l 387 -379 l 505 -379 l 505 -387 m 126 884 l 126 1002 l 8 1002 l 8 884 l 126 884 m 135 884 l 253 884 l 253 1002 l 135 1002 l 135 884 m 261 884 l 379 884 l 379 1002 l 261 1002 l 261 884 m 8 758 l 126 758 l 126 875 l 8 875 l 8 758 m 135 758 l 253 758 l 253 875 l 135 875 l 135 758 m 261 758 l 379 758 l 379 875 l 261 875 l 261 758 m 8 631 l 126 631 l 126 749 l 8 749 l 8 631 m 135 631 l 253 631 l 253 749 l 135 749 l 135 631 m 261 631 l 379 631 l 379 749 l 261 749 l 261 631 m 8 379 l 126 379 l 126 497 l 8 497 l 8 379 m 135 379 l 253 379 l 253 497 l 135 497 l 135 379 m 135 126 l 253 126 l 253 244 l 135 244 l 135 126 m 261 126 l 379 126 l 379 244 l 261 244 l 261 126 m 261 -126 l 379 -126 l 379 -8 l 261 -8 l 261 -126 m 135 -126 l 253 -126 l 253 -8 l 135 -8 l 135 -126 m 8 -126 l 126 -126 l 126 -8 l 8 -8 l 8 -126 m 261 -253 l 379 -253 l 379 -135 l 261 -135 l 261 -253 m 135 -253 l 253 -253 l 253 -135 l 135 -135 l 135 -253 m 8 -253 l 126 -253 l 126 -135 l 8 -135 l 8 -253 z "},"3":{"ha":505,"x_min":0,"x_max":505,"o":"m 505 -387 l 0 -387 l 0 -261 l 8 -261 l 8 -379 l 126 -379 l 126 -261 l 135 -261 l 135 -379 l 253 -379 l 253 -261 l 261 -261 l 261 -379 l 379 -379 l 379 -261 l 0 -261 l 0 1010 l 505 1010 l 505 1002 l 387 1002 l 387 884 l 505 884 l 505 875 l 387 875 l 387 758 l 505 758 l 505 749 l 387 749 l 387 631 l 505 631 l 505 623 l 387 623 l 387 505 l 505 505 l 505 497 l 387 497 l 387 379 l 505 379 l 505 370 l 387 370 l 387 253 l 505 253 l 505 244 l 387 244 l 387 126 l 505 126 l 505 118 l 387 118 l 387 0 l 505 0 l 505 -8 l 387 -8 l 387 -126 l 505 -126 l 505 -135 l 387 -135 l 387 -253 l 505 -253 l 505 -261 l 387 -261 l 387 -379 l 505 -379 l 505 -387 m 126 884 l 126 1002 l 8 1002 l 8 884 l 126 884 m 261 884 l 379 884 l 379 1002 l 261 1002 l 261 884 m 135 884 l 253 884 l 253 1002 l 135 1002 l 135 884 m 8 758 l 126 758 l 126 875 l 8 875 l 8 758 m 261 758 l 379 758 l 379 875 l 261 875 l 261 758 m 135 758 l 253 758 l 253 875 l 135 875 l 135 758 m 8 631 l 126 631 l 126 749 l 8 749 l 8 631 m 261 631 l 379 631 l 379 749 l 261 749 l 261 631 m 135 631 l 253 631 l 253 749 l 135 749 l 135 631 m 8 379 l 126 379 l 126 497 l 8 497 l 8 379 m 135 379 l 253 379 l 253 497 l 135 497 l 135 379 m 8 253 l 126 253 l 126 370 l 8 370 l 8 253 m 135 126 l 253 126 l 253 244 l 135 244 l 135 126 m 8 126 l 126 126 l 126 244 l 8 244 l 8 126 m 135 -126 l 253 -126 l 253 -8 l 135 -8 l 135 -126 m 8 -126 l 126 -126 l 126 -8 l 8 -8 l 8 -126 m 261 -126 l 379 -126 l 379 -8 l 261 -8 l 261 -126 m 261 -253 l 379 -253 l 379 -135 l 261 -135 l 261 -253 m 135 -253 l 253 -253 l 253 -135 l 135 -135 l 135 -253 m 8 -253 l 126 -253 l 126 -135 l 8 -135 l 8 -253 z "},"4":{"ha":505,"x_min":0,"x_max":505,"o":"m 505 -387 l 0 -387 l 0 -261 l 8 -261 l 8 -379 l 126 -379 l 126 -261 l 135 -261 l 135 -379 l 253 -379 l 253 -261 l 261 -261 l 261 -379 l 379 -379 l 379 -261 l 0 -261 l 0 1010 l 505 1010 l 505 1002 l 387 1002 l 387 884 l 505 884 l 505 875 l 387 875 l 387 758 l 505 758 l 505 749 l 387 749 l 387 631 l 505 631 l 505 623 l 387 623 l 387 505 l 505 505 l 505 497 l 387 497 l 387 379 l 505 379 l 505 370 l 387 370 l 387 253 l 505 253 l 505 244 l 387 244 l 387 126 l 505 126 l 505 118 l 387 118 l 387 0 l 505 0 l 505 -8 l 387 -8 l 387 -126 l 505 -126 l 505 -135 l 387 -135 l 387 -253 l 505 -253 l 505 -261 l 387 -261 l 387 -379 l 505 -379 l 505 -387 m 126 884 l 126 1002 l 8 1002 l 8 884 l 126 884 m 135 884 l 253 884 l 253 1002 l 135 1002 l 135 884 m 261 884 l 379 884 l 379 1002 l 261 1002 l 261 884 m 8 758 l 126 758 l 126 875 l 8 875 l 8 758 m 135 758 l 253 758 l 253 875 l 135 875 l 135 758 m 261 758 l 379 758 l 379 875 l 261 875 l 261 758 m 8 631 l 126 631 l 126 749 l 8 749 l 8 631 m 135 631 l 253 631 l 253 749 l 135 749 l 135 631 m 261 631 l 379 631 l 379 749 l 261 749 l 261 631 m 135 505 l 253 505 l 253 623 l 135 623 l 135 505 m 135 379 l 253 379 l 253 497 l 135 497 l 135 379 m 8 126 l 126 126 l 126 244 l 8 244 l 8 126 m 135 126 l 253 126 l 253 244 l 135 244 l 135 126 m 135 0 l 253 0 l 253 118 l 135 118 l 135 0 m 8 0 l 126 0 l 126 118 l 8 118 l 8 0 m 135 -126 l 253 -126 l 253 -8 l 135 -8 l 135 -126 m 8 -126 l 126 -126 l 126 -8 l 8 -8 l 8 -126 m 261 -126 l 379 -126 l 379 -8 l 261 -8 l 261 -126 m 261 -253 l 379 -253 l 379 -135 l 261 -135 l 261 -253 m 135 -253 l 253 -253 l 253 -135 l 135 -135 l 135 -253 m 8 -253 l 126 -253 l 126 -135 l 8 -135 l 8 -253 z "},"5":{"ha":505,"x_min":0,"x_max":505,"o":"m 505 -387 l 0 -387 l 0 -261 l 8 -261 l 8 -379 l 126 -379 l 126 -261 l 135 -261 l 135 -379 l 253 -379 l 253 -261 l 261 -261 l 261 -379 l 379 -379 l 379 -261 l 0 -261 l 0 1010 l 505 1010 l 505 1002 l 387 1002 l 387 884 l 505 884 l 505 875 l 387 875 l 387 758 l 505 758 l 505 749 l 387 749 l 387 631 l 505 631 l 505 623 l 387 623 l 387 505 l 505 505 l 505 497 l 387 497 l 387 379 l 505 379 l 505 370 l 387 370 l 387 253 l 505 253 l 505 244 l 387 244 l 387 126 l 505 126 l 505 118 l 387 118 l 387 0 l 505 0 l 505 -8 l 387 -8 l 387 -126 l 505 -126 l 505 -135 l 387 -135 l 387 -253 l 505 -253 l 505 -261 l 387 -261 l 387 -379 l 505 -379 l 505 -387 m 126 884 l 126 1002 l 8 1002 l 8 884 l 126 884 m 135 884 l 253 884 l 253 1002 l 135 1002 l 135 884 m 261 884 l 379 884 l 379 1002 l 261 1002 l 261 884 m 8 758 l 126 758 l 126 875 l 8 875 l 8 758 m 135 758 l 253 758 l 253 875 l 135 875 l 135 758 m 261 758 l 379 758 l 379 875 l 261 875 l 261 758 m 8 631 l 126 631 l 126 749 l 8 749 l 8 631 m 135 631 l 253 631 l 253 749 l 135 749 l 135 631 m 261 631 l 379 631 l 379 749 l 261 749 l 261 631 m 135 379 l 253 379 l 253 497 l 135 497 l 135 379 m 261 379 l 379 379 l 379 497 l 261 497 l 261 379 m 8 126 l 126 126 l 126 244 l 8 244 l 8 126 m 135 126 l 253 126 l 253 244 l 135 244 l 135 126 m 261 -126 l 379 -126 l 379 -8 l 261 -8 l 261 -126 m 135 -126 l 253 -126 l 253 -8 l 135 -8 l 135 -126 m 8 -126 l 126 -126 l 126 -8 l 8 -8 l 8 -126 m 261 -253 l 379 -253 l 379 -135 l 261 -135 l 261 -253 m 135 -253 l 253 -253 l 253 -135 l 135 -135 l 135 -253 m 8 -253 l 126 -253 l 126 -135 l 8 -135 l 8 -253 z "},"6":{"ha":505,"x_min":0,"x_max":505,"o":"m 505 -387 l 0 -387 l 0 -261 l 8 -261 l 8 -379 l 126 -379 l 126 -261 l 135 -261 l 135 -379 l 253 -379 l 253 -261 l 261 -261 l 261 -379 l 379 -379 l 379 -261 l 0 -261 l 0 1010 l 505 1010 l 505 1002 l 387 1002 l 387 884 l 505 884 l 505 875 l 387 875 l 387 758 l 505 758 l 505 749 l 387 749 l 387 631 l 505 631 l 505 623 l 387 623 l 387 505 l 505 505 l 505 497 l 387 497 l 387 379 l 505 379 l 505 370 l 387 370 l 387 253 l 505 253 l 505 244 l 387 244 l 387 126 l 505 126 l 505 118 l 387 118 l 387 0 l 505 0 l 505 -8 l 387 -8 l 387 -126 l 505 -126 l 505 -135 l 387 -135 l 387 -253 l 505 -253 l 505 -261 l 387 -261 l 387 -379 l 505 -379 l 505 -387 m 126 884 l 126 1002 l 8 1002 l 8 884 l 126 884 m 261 884 l 379 884 l 379 1002 l 261 1002 l 261 884 m 135 884 l 253 884 l 253 1002 l 135 1002 l 135 884 m 8 758 l 126 758 l 126 875 l 8 875 l 8 758 m 261 758 l 379 758 l 379 875 l 261 875 l 261 758 m 135 758 l 253 758 l 253 875 l 135 875 l 135 758 m 8 631 l 126 631 l 126 749 l 8 749 l 8 631 m 261 631 l 379 631 l 379 749 l 261 749 l 261 631 m 135 631 l 253 631 l 253 749 l 135 749 l 135 631 m 261 379 l 379 379 l 379 497 l 261 497 l 261 379 m 135 379 l 253 379 l 253 497 l 135 497 l 135 379 m 135 126 l 253 126 l 253 244 l 135 244 l 135 126 m 261 -126 l 379 -126 l 379 -8 l 261 -8 l 261 -126 m 135 -126 l 253 -126 l 253 -8 l 135 -8 l 135 -126 m 8 -126 l 126 -126 l 126 -8 l 8 -8 l 8 -126 m 261 -253 l 379 -253 l 379 -135 l 261 -135 l 261 -253 m 135 -253 l 253 -253 l 253 -135 l 135 -135 l 135 -253 m 8 -253 l 126 -253 l 126 -135 l 8 -135 l 8 -253 z "},"7":{"ha":505,"x_min":0,"x_max":505,"o":"m 505 -387 l 0 -387 l 0 -261 l 8 -261 l 8 -379 l 126 -379 l 126 -261 l 135 -261 l 135 -379 l 253 -379 l 253 -261 l 261 -261 l 261 -379 l 379 -379 l 379 -261 l 0 -261 l 0 1010 l 505 1010 l 505 1002 l 387 1002 l 387 884 l 505 884 l 505 875 l 387 875 l 387 758 l 505 758 l 505 749 l 387 749 l 387 631 l 505 631 l 505 623 l 387 623 l 387 505 l 505 505 l 505 497 l 387 497 l 387 379 l 505 379 l 505 370 l 387 370 l 387 253 l 505 253 l 505 244 l 387 244 l 387 126 l 505 126 l 505 118 l 387 118 l 387 0 l 505 0 l 505 -8 l 387 -8 l 387 -126 l 505 -126 l 505 -135 l 387 -135 l 387 -253 l 505 -253 l 505 -261 l 387 -261 l 387 -379 l 505 -379 l 505 -387 m 126 884 l 126 1002 l 8 1002 l 8 884 l 126 884 m 261 884 l 379 884 l 379 1002 l 261 1002 l 261 884 m 135 884 l 253 884 l 253 1002 l 135 1002 l 135 884 m 8 758 l 126 758 l 126 875 l 8 875 l 8 758 m 261 758 l 379 758 l 379 875 l 261 875 l 261 758 m 135 758 l 253 758 l 253 875 l 135 875 l 135 758 m 8 631 l 126 631 l 126 749 l 8 749 l 8 631 m 261 631 l 379 631 l 379 749 l 261 749 l 261 631 m 135 631 l 253 631 l 253 749 l 135 749 l 135 631 m 8 379 l 126 379 l 126 497 l 8 497 l 8 379 m 135 379 l 253 379 l 253 497 l 135 497 l 135 379 m 135 253 l 253 253 l 253 370 l 135 370 l 135 253 m 8 253 l 126 253 l 126 370 l 8 370 l 8 253 m 261 126 l 379 126 l 379 244 l 261 244 l 261 126 m 8 126 l 126 126 l 126 244 l 8 244 l 8 126 m 261 0 l 379 0 l 379 118 l 261 118 l 261 0 m 8 0 l 126 0 l 126 118 l 8 118 l 8 0 m 261 -126 l 379 -126 l 379 -8 l 261 -8 l 261 -126 m 135 -126 l 253 -126 l 253 -8 l 135 -8 l 135 -126 m 8 -126 l 126 -126 l 126 -8 l 8 -8 l 8 -126 m 135 -253 l 253 -253 l 253 -135 l 135 -135 l 135 -253 m 8 -253 l 126 -253 l 126 -135 l 8 -135 l 8 -253 m 261 -253 l 379 -253 l 379 -135 l 261 -135 l 261 -253 z "},"8":{"ha":505,"x_min":0,"x_max":505,"o":"m 505 -387 l 0 -387 l 0 -261 l 8 -261 l 8 -379 l 126 -379 l 126 -261 l 135 -261 l 135 -379 l 253 -379 l 253 -261 l 261 -261 l 261 -379 l 379 -379 l 379 -261 l 0 -261 l 0 1010 l 505 1010 l 505 1002 l 387 1002 l 387 884 l 505 884 l 505 875 l 387 875 l 387 758 l 505 758 l 505 749 l 387 749 l 387 631 l 505 631 l 505 623 l 387 623 l 387 505 l 505 505 l 505 497 l 387 497 l 387 379 l 505 379 l 505 370 l 387 370 l 387 253 l 505 253 l 505 244 l 387 244 l 387 126 l 505 126 l 505 118 l 387 118 l 387 0 l 505 0 l 505 -8 l 387 -8 l 387 -126 l 505 -126 l 505 -135 l 387 -135 l 387 -253 l 505 -253 l 505 -261 l 387 -261 l 387 -379 l 505 -379 l 505 -387 m 126 884 l 126 1002 l 8 1002 l 8 884 l 126 884 m 261 884 l 379 884 l 379 1002 l 261 1002 l 261 884 m 135 884 l 253 884 l 253 1002 l 135 1002 l 135 884 m 8 758 l 126 758 l 126 875 l 8 875 l 8 758 m 261 758 l 379 758 l 379 875 l 261 875 l 261 758 m 135 758 l 253 758 l 253 875 l 135 875 l 135 758 m 8 631 l 126 631 l 126 749 l 8 749 l 8 631 m 261 631 l 379 631 l 379 749 l 261 749 l 261 631 m 135 631 l 253 631 l 253 749 l 135 749 l 135 631 m 135 379 l 253 379 l 253 497 l 135 497 l 135 379 m 135 126 l 253 126 l 253 244 l 135 244 l 135 126 m 261 -126 l 379 -126 l 379 -8 l 261 -8 l 261 -126 m 135 -126 l 253 -126 l 253 -8 l 135 -8 l 135 -126 m 8 -126 l 126 -126 l 126 -8 l 8 -8 l 8 -126 m 261 -253 l 379 -253 l 379 -135 l 261 -135 l 261 -253 m 135 -253 l 253 -253 l 253 -135 l 135 -135 l 135 -253 m 8 -253 l 126 -253 l 126 -135 l 8 -135 l 8 -253 z "},"9":{"ha":505,"x_min":0,"x_max":505,"o":"m 505 -387 l 0 -387 l 0 -261 l 8 -261 l 8 -379 l 126 -379 l 126 -261 l 135 -261 l 135 -379 l 253 -379 l 253 -261 l 261 -261 l 261 -379 l 379 -379 l 379 -261 l 0 -261 l 0 1010 l 505 1010 l 505 1002 l 387 1002 l 387 884 l 505 884 l 505 875 l 387 875 l 387 758 l 505 758 l 505 749 l 387 749 l 387 631 l 505 631 l 505 623 l 387 623 l 387 505 l 505 505 l 505 497 l 387 497 l 387 379 l 505 379 l 505 370 l 387 370 l 387 253 l 505 253 l 505 244 l 387 244 l 387 126 l 505 126 l 505 118 l 387 118 l 387 0 l 505 0 l 505 -8 l 387 -8 l 387 -126 l 505 -126 l 505 -135 l 387 -135 l 387 -253 l 505 -253 l 505 -261 l 387 -261 l 387 -379 l 505 -379 l 505 -387 m 126 884 l 126 1002 l 8 1002 l 8 884 l 126 884 m 261 884 l 379 884 l 379 1002 l 261 1002 l 261 884 m 135 884 l 253 884 l 253 1002 l 135 1002 l 135 884 m 8 758 l 126 758 l 126 875 l 8 875 l 8 758 m 261 758 l 379 758 l 379 875 l 261 875 l 261 758 m 135 758 l 253 758 l 253 875 l 135 875 l 135 758 m 8 631 l 126 631 l 126 749 l 8 749 l 8 631 m 261 631 l 379 631 l 379 749 l 261 749 l 261 631 m 135 631 l 253 631 l 253 749 l 135 749 l 135 631 m 135 379 l 253 379 l 253 497 l 135 497 l 135 379 m 135 126 l 253 126 l 253 244 l 135 244 l 135 126 m 8 126 l 126 126 l 126 244 l 8 244 l 8 126 m 261 -126 l 379 -126 l 379 -8 l 261 -8 l 261 -126 m 135 -126 l 253 -126 l 253 -8 l 135 -8 l 135 -126 m 8 -126 l 126 -126 l 126 -8 l 8 -8 l 8 -126 m 261 -253 l 379 -253 l 379 -135 l 261 -135 l 261 -253 m 135 -253 l 253 -253 l 253 -135 l 135 -135 l 135 -253 m 8 -253 l 126 -253 l 126 -135 l 8 -135 l 8 -253 z "},"A":{"ha":505,"x_min":0,"x_max":505,"o":"m 505 -387 l 0 -387 l 0 -261 l 8 -261 l 8 -379 l 126 -379 l 126 -261 l 0 -261 l 0 1010 l 505 1010 l 505 1002 l 387 1002 l 387 884 l 505 884 l 505 875 l 387 875 l 387 758 l 505 758 l 505 749 l 387 749 l 387 631 l 505 631 l 505 623 l 387 623 l 387 505 l 505 505 l 505 497 l 387 497 l 387 379 l 505 379 l 505 370 l 387 370 l 387 253 l 505 253 l 505 244 l 387 244 l 387 126 l 505 126 l 505 118 l 387 118 l 387 0 l 505 0 l 505 -8 l 387 -8 l 387 -126 l 505 -126 l 505 -135 l 387 -135 l 387 -253 l 505 -253 l 505 -261 l 387 -261 l 387 -379 l 505 -379 l 505 -387 m 261 884 l 379 884 l 379 1002 l 261 1002 l 261 884 m 8 884 l 126 884 l 126 1002 l 8 1002 l 8 884 m 135 884 l 253 884 l 253 1002 l 135 1002 l 135 884 m 261 758 l 379 758 l 379 875 l 261 875 l 261 758 m 8 758 l 126 758 l 126 875 l 8 875 l 8 758 m 135 758 l 253 758 l 253 875 l 135 875 l 135 758 m 261 631 l 379 631 l 379 749 l 261 749 l 261 631 m 8 631 l 126 631 l 126 749 l 8 749 l 8 631 m 135 631 l 253 631 l 253 749 l 135 749 l 135 631 m 261 505 l 379 505 l 379 623 l 261 623 l 261 505 m 8 505 l 126 505 l 126 623 l 8 623 l 8 505 m 135 379 l 253 379 l 253 497 l 135 497 l 135 379 m 135 126 l 253 126 l 253 244 l 135 244 l 135 126 m 135 0 l 253 0 l 253 118 l 135 118 l 135 0 m 261 -126 l 379 -126 l 379 -8 l 261 -8 l 261 -126 m 135 -126 l 253 -126 l 253 -8 l 135 -8 l 135 -126 m 8 -126 l 126 -126 l 126 -8 l 8 -8 l 8 -126 m 135 -253 l 253 -253 l 253 -135 l 135 -135 l 135 -253 m 8 -253 l 126 -253 l 126 -135 l 8 -135 l 8 -253 m 379 -135 l 261 -135 l 261 -253 l 379 -253 l 379 -135 m 253 -379 l 253 -261 l 135 -261 l 135 -379 l 253 -379 m 379 -379 l 379 -261 l 261 -261 l 261 -379 l 379 -379 z "},"Á":{"ha":505,"x_min":0,"x_max":505,"o":"m 505 -387 l 0 -387 l 0 -261 l 8 -261 l 8 -379 l 126 -379 l 126 -261 l 135 -261 l 135 -379 l 253 -379 l 253 -261 l 261 -261 l 261 -379 l 379 -379 l 379 -261 l 0 -261 l 0 1010 l 505 1010 l 505 1002 l 387 1002 l 387 884 l 505 884 l 505 875 l 387 875 l 387 758 l 505 758 l 505 749 l 387 749 l 387 631 l 505 631 l 505 623 l 387 623 l 387 505 l 505 505 l 505 497 l 387 497 l 387 379 l 505 379 l 505 370 l 387 370 l 387 253 l 505 253 l 505 244 l 387 244 l 387 126 l 505 126 l 505 118 l 387 118 l 387 0 l 505 0 l 505 -8 l 387 -8 l 387 -126 l 505 -126 l 505 -135 l 387 -135 l 387 -253 l 505 -253 l 505 -261 l 387 -261 l 387 -379 l 505 -379 l 505 -387 m 8 884 l 126 884 l 126 1002 l 8 1002 l 8 884 m 135 884 l 253 884 l 253 1002 l 135 1002 l 135 884 m 8 758 l 126 758 l 126 875 l 8 875 l 8 758 m 261 758 l 379 758 l 379 875 l 261 875 l 261 758 m 8 631 l 126 631 l 126 749 l 8 749 l 8 631 m 135 631 l 253 631 l 253 749 l 135 749 l 135 631 m 261 631 l 379 631 l 379 749 l 261 749 l 261 631 m 8 505 l 126 505 l 126 623 l 8 623 l 8 505 m 261 505 l 379 505 l 379 623 l 261 623 l 261 505 m 135 379 l 253 379 l 253 497 l 135 497 l 135 379 m 135 126 l 253 126 l 253 244 l 135 244 l 135 126 m 135 0 l 253 0 l 253 118 l 135 118 l 135 0 m 8 -126 l 126 -126 l 126 -8 l 8 -8 l 8 -126 m 135 -126 l 253 -126 l 253 -8 l 135 -8 l 135 -126 m 261 -126 l 379 -126 l 379 -8 l 261 -8 l 261 -126 m 379 -135 l 261 -135 l 261 -253 l 379 -253 l 379 -135 m 8 -253 l 126 -253 l 126 -135 l 8 -135 l 8 -253 m 135 -253 l 253 -253 l 253 -135 l 135 -135 l 135 -253 z "},"Ă":{"ha":505,"x_min":0,"x_max":505,"o":"m 505 -387 l 0 -387 l 0 -261 l 8 -261 l 8 -379 l 126 -379 l 126 -261 l 0 -261 l 0 1010 l 505 1010 l 505 1002 l 387 1002 l 387 884 l 505 884 l 505 875 l 387 875 l 387 758 l 505 758 l 505 749 l 387 749 l 387 631 l 505 631 l 505 623 l 387 623 l 387 505 l 505 505 l 505 497 l 387 497 l 387 379 l 505 379 l 505 370 l 387 370 l 387 253 l 505 253 l 505 244 l 387 244 l 387 126 l 505 126 l 505 118 l 387 118 l 387 0 l 505 0 l 505 -8 l 387 -8 l 387 -126 l 505 -126 l 505 -135 l 387 -135 l 387 -253 l 505 -253 l 505 -261 l 387 -261 l 387 -379 l 505 -379 l 505 -387 m 261 884 l 379 884 l 379 1002 l 261 1002 l 261 884 m 8 884 l 126 884 l 126 1002 l 8 1002 l 8 884 m 135 884 l 253 884 l 253 1002 l 135 1002 l 135 884 m 261 758 l 379 758 l 379 875 l 261 875 l 261 758 m 8 758 l 126 758 l 126 875 l 8 875 l 8 758 m 135 758 l 253 758 l 253 875 l 135 875 l 135 758 m 261 631 l 379 631 l 379 749 l 261 749 l 261 631 m 8 631 l 126 631 l 126 749 l 8 749 l 8 631 m 135 631 l 253 631 l 253 749 l 135 749 l 135 631 m 261 505 l 379 505 l 379 623 l 261 623 l 261 505 m 8 505 l 126 505 l 126 623 l 8 623 l 8 505 m 135 379 l 253 379 l 253 497 l 135 497 l 135 379 m 135 126 l 253 126 l 253 244 l 135 244 l 135 126 m 135 0 l 253 0 l 253 118 l 135 118 l 135 0 m 261 -126 l 379 -126 l 379 -8 l 261 -8 l 261 -126 m 135 -126 l 253 -126 l 253 -8 l 135 -8 l 135 -126 m 8 -126 l 126 -126 l 126 -8 l 8 -8 l 8 -126 m 135 -253 l 253 -253 l 253 -135 l 135 -135 l 135 -253 m 8 -253 l 126 -253 l 126 -135 l 8 -135 l 8 -253 m 379 -135 l 261 -135 l 261 -253 l 379 -253 l 379 -135 m 253 -379 l 253 -261 l 135 -261 l 135 -379 l 253 -379 m 379 -379 l 379 -261 l 261 -261 l 261 -379 l 379 -379 m 0 1010 l 126 1010 l 126 884 l 0 884 l 0 1010 m 126 884 l 253 884 l 253 758 l 126 758 l 126 884 m 253 1010 l 379 1010 l 379 884 l 253 884 l 253 1010 m 253 884 l 379 884 l 379 758 l 253 758 l 253 884 m 0 884 l 126 884 l 126 758 l 0 758 l 0 884 z "},"Â":{"ha":505,"x_min":0,"x_max":505,"o":"m 505 -387 l 0 -387 l 0 -261 l 8 -261 l 8 -379 l 126 -379 l 126 -261 l 0 -261 l 0 1010 l 505 1010 l 505 1002 l 387 1002 l 387 884 l 505 884 l 505 875 l 387 875 l 387 758 l 505 758 l 505 749 l 387 749 l 387 631 l 505 631 l 505 623 l 387 623 l 387 505 l 505 505 l 505 497 l 387 497 l 387 379 l 505 379 l 505 370 l 387 370 l 387 253 l 505 253 l 505 244 l 387 244 l 387 126 l 505 126 l 505 118 l 387 118 l 387 0 l 505 0 l 505 -8 l 387 -8 l 387 -126 l 505 -126 l 505 -135 l 387 -135 l 387 -253 l 505 -253 l 505 -261 l 387 -261 l 387 -379 l 505 -379 l 505 -387 m 261 884 l 379 884 l 379 1002 l 261 1002 l 261 884 m 8 884 l 126 884 l 126 1002 l 8 1002 l 8 884 m 135 884 l 253 884 l 253 1002 l 135 1002 l 135 884 m 261 758 l 379 758 l 379 875 l 261 875 l 261 758 m 8 758 l 126 758 l 126 875 l 8 875 l 8 758 m 135 758 l 253 758 l 253 875 l 135 875 l 135 758 m 261 631 l 379 631 l 379 749 l 261 749 l 261 631 m 8 631 l 126 631 l 126 749 l 8 749 l 8 631 m 135 631 l 253 631 l 253 749 l 135 749 l 135 631 m 261 505 l 379 505 l 379 623 l 261 623 l 261 505 m 8 505 l 126 505 l 126 623 l 8 623 l 8 505 m 135 379 l 253 379 l 253 497 l 135 497 l 135 379 m 135 126 l 253 126 l 253 244 l 135 244 l 135 126 m 135 0 l 253 0 l 253 118 l 135 118 l 135 0 m 261 -126 l 379 -126 l 379 -8 l 261 -8 l 261 -126 m 135 -126 l 253 -126 l 253 -8 l 135 -8 l 135 -126 m 8 -126 l 126 -126 l 126 -8 l 8 -8 l 8 -126 m 135 -253 l 253 -253 l 253 -135 l 135 -135 l 135 -253 m 8 -253 l 126 -253 l 126 -135 l 8 -135 l 8 -253 m 379 -135 l 261 -135 l 261 -253 l 379 -253 l 379 -135 m 253 -379 l 253 -261 l 135 -261 l 135 -379 l 253 -379 m 379 -379 l 379 -261 l 261 -261 l 261 -379 l 379 -379 m 126 1010 l 253 1010 l 253 884 l 126 884 l 126 1010 m 0 884 l 126 884 l 126 758 l 0 758 l 0 884 m 253 884 l 379 884 l 379 758 l 253 758 l 253 884 z "},"Ä":{"ha":505,"x_min":0,"x_max":505,"o":"m 505 -387 l 0 -387 l 0 -261 l 8 -261 l 8 -379 l 126 -379 l 126 -261 l 0 -261 l 0 1010 l 505 1010 l 505 1002 l 387 1002 l 387 884 l 505 884 l 505 875 l 387 875 l 387 758 l 505 758 l 505 749 l 387 749 l 387 631 l 505 631 l 505 623 l 387 623 l 387 505 l 505 505 l 505 497 l 387 497 l 387 379 l 505 379 l 505 370 l 387 370 l 387 253 l 505 253 l 505 244 l 387 244 l 387 126 l 505 126 l 505 118 l 387 118 l 387 0 l 505 0 l 505 -8 l 387 -8 l 387 -126 l 505 -126 l 505 -135 l 387 -135 l 387 -253 l 505 -253 l 505 -261 l 387 -261 l 387 -379 l 505 -379 l 505 -387 m 261 884 l 379 884 l 379 1002 l 261 1002 l 261 884 m 8 884 l 126 884 l 126 1002 l 8 1002 l 8 884 m 135 884 l 253 884 l 253 1002 l 135 1002 l 135 884 m 261 758 l 379 758 l 379 875 l 261 875 l 261 758 m 8 758 l 126 758 l 126 875 l 8 875 l 8 758 m 135 758 l 253 758 l 253 875 l 135 875 l 135 758 m 261 631 l 379 631 l 379 749 l 261 749 l 261 631 m 8 631 l 126 631 l 126 749 l 8 749 l 8 631 m 135 631 l 253 631 l 253 749 l 135 749 l 135 631 m 261 505 l 379 505 l 379 623 l 261 623 l 261 505 m 8 505 l 126 505 l 126 623 l 8 623 l 8 505 m 135 379 l 253 379 l 253 497 l 135 497 l 135 379 m 135 126 l 253 126 l 253 244 l 135 244 l 135 126 m 135 0 l 253 0 l 253 118 l 135 118 l 135 0 m 261 -126 l 379 -126 l 379 -8 l 261 -8 l 261 -126 m 135 -126 l 253 -126 l 253 -8 l 135 -8 l 135 -126 m 8 -126 l 126 -126 l 126 -8 l 8 -8 l 8 -126 m 135 -253 l 253 -253 l 253 -135 l 135 -135 l 135 -253 m 8 -253 l 126 -253 l 126 -135 l 8 -135 l 8 -253 m 379 -135 l 261 -135 l 261 -253 l 379 -253 l 379 -135 m 253 -379 l 253 -261 l 135 -261 l 135 -379 l 253 -379 m 379 -379 l 379 -261 l 261 -261 l 261 -379 l 379 -379 m 0 884 l 126 884 l 126 758 l 0 758 l 0 884 m 253 884 l 379 884 l 379 758 l 253 758 l 253 884 z "},"À":{"ha":505,"x_min":0,"x_max":505,"o":"m 505 -387 l 0 -387 l 0 -261 l 8 -261 l 8 -379 l 126 -379 l 126 -261 l 0 -261 l 0 1010 l 505 1010 l 505 1002 l 387 1002 l 387 884 l 505 884 l 505 875 l 387 875 l 387 758 l 505 758 l 505 749 l 387 749 l 387 631 l 505 631 l 505 623 l 387 623 l 387 505 l 505 505 l 505 497 l 387 497 l 387 379 l 505 379 l 505 370 l 387 370 l 387 253 l 505 253 l 505 244 l 387 244 l 387 126 l 505 126 l 505 118 l 387 118 l 387 0 l 505 0 l 505 -8 l 387 -8 l 387 -126 l 505 -126 l 505 -135 l 387 -135 l 387 -253 l 505 -253 l 505 -261 l 387 -261 l 387 -379 l 505 -379 l 505 -387 m 261 884 l 379 884 l 379 1002 l 261 1002 l 261 884 m 8 884 l 126 884 l 126 1002 l 8 1002 l 8 884 m 135 884 l 253 884 l 253 1002 l 135 1002 l 135 884 m 261 758 l 379 758 l 379 875 l 261 875 l 261 758 m 8 758 l 126 758 l 126 875 l 8 875 l 8 758 m 135 758 l 253 758 l 253 875 l 135 875 l 135 758 m 261 631 l 379 631 l 379 749 l 261 749 l 261 631 m 8 631 l 126 631 l 126 749 l 8 749 l 8 631 m 135 631 l 253 631 l 253 749 l 135 749 l 135 631 m 261 505 l 379 505 l 379 623 l 261 623 l 261 505 m 8 505 l 126 505 l 126 623 l 8 623 l 8 505 m 135 379 l 253 379 l 253 497 l 135 497 l 135 379 m 135 126 l 253 126 l 253 244 l 135 244 l 135 126 m 135 0 l 253 0 l 253 118 l 135 118 l 135 0 m 261 -126 l 379 -126 l 379 -8 l 261 -8 l 261 -126 m 135 -126 l 253 -126 l 253 -8 l 135 -8 l 135 -126 m 8 -126 l 126 -126 l 126 -8 l 8 -8 l 8 -126 m 135 -253 l 253 -253 l 253 -135 l 135 -135 l 135 -253 m 8 -253 l 126 -253 l 126 -135 l 8 -135 l 8 -253 m 379 -135 l 261 -135 l 261 -253 l 379 -253 l 379 -135 m 253 -379 l 253 -261 l 135 -261 l 135 -379 l 253 -379 m 379 -379 l 379 -261 l 261 -261 l 261 -379 l 379 -379 m 126 884 l 253 884 l 253 758 l 126 758 l 126 884 m 0 1010 l 126 1010 l 126 884 l 0 884 l 0 1010 z "},"Ā":{"ha":505,"x_min":0,"x_max":505,"o":"m 505 -387 l 0 -387 l 0 -261 l 8 -261 l 8 -379 l 126 -379 l 126 -261 l 0 -261 l 0 1010 l 505 1010 l 505 1002 l 387 1002 l 387 884 l 505 884 l 505 875 l 387 875 l 387 758 l 505 758 l 505 749 l 387 749 l 387 631 l 505 631 l 505 623 l 387 623 l 387 505 l 505 505 l 505 497 l 387 497 l 387 379 l 505 379 l 505 370 l 387 370 l 387 253 l 505 253 l 505 244 l 387 244 l 387 126 l 505 126 l 505 118 l 387 118 l 387 0 l 505 0 l 505 -8 l 387 -8 l 387 -126 l 505 -126 l 505 -135 l 387 -135 l 387 -253 l 505 -253 l 505 -261 l 387 -261 l 387 -379 l 505 -379 l 505 -387 m 261 884 l 379 884 l 379 1002 l 261 1002 l 261 884 m 8 884 l 126 884 l 126 1002 l 8 1002 l 8 884 m 135 884 l 253 884 l 253 1002 l 135 1002 l 135 884 m 261 758 l 379 758 l 379 875 l 261 875 l 261 758 m 8 758 l 126 758 l 126 875 l 8 875 l 8 758 m 135 758 l 253 758 l 253 875 l 135 875 l 135 758 m 261 631 l 379 631 l 379 749 l 261 749 l 261 631 m 8 631 l 126 631 l 126 749 l 8 749 l 8 631 m 135 631 l 253 631 l 253 749 l 135 749 l 135 631 m 261 505 l 379 505 l 379 623 l 261 623 l 261 505 m 8 505 l 126 505 l 126 623 l 8 623 l 8 505 m 135 379 l 253 379 l 253 497 l 135 497 l 135 379 m 135 126 l 253 126 l 253 244 l 135 244 l 135 126 m 135 0 l 253 0 l 253 118 l 135 118 l 135 0 m 261 -126 l 379 -126 l 379 -8 l 261 -8 l 261 -126 m 135 -126 l 253 -126 l 253 -8 l 135 -8 l 135 -126 m 8 -126 l 126 -126 l 126 -8 l 8 -8 l 8 -126 m 135 -253 l 253 -253 l 253 -135 l 135 -135 l 135 -253 m 8 -253 l 126 -253 l 126 -135 l 8 -135 l 8 -253 m 379 -135 l 261 -135 l 261 -253 l 379 -253 l 379 -135 m 253 -379 l 253 -261 l 135 -261 l 135 -379 l 253 -379 m 379 -379 l 379 -261 l 261 -261 l 261 -379 l 379 -379 m 0 884 l 126 884 l 126 758 l 0 758 l 0 884 m 126 884 l 253 884 l 253 758 l 126 758 l 126 884 m 253 884 l 379 884 l 379 758 l 253 758 l 253 884 z "},"Ą":{"ha":505,"x_min":0,"x_max":505,"o":"m 505 -387 l 0 -387 l 0 -261 l 8 -261 l 8 -379 l 126 -379 l 126 -261 l 0 -261 l 0 1010 l 505 1010 l 505 1002 l 387 1002 l 387 884 l 505 884 l 505 875 l 387 875 l 387 758 l 505 758 l 505 749 l 387 749 l 387 631 l 505 631 l 505 623 l 387 623 l 387 505 l 505 505 l 505 497 l 387 497 l 387 379 l 505 379 l 505 370 l 387 370 l 387 253 l 505 253 l 505 244 l 387 244 l 387 126 l 505 126 l 505 118 l 387 118 l 387 0 l 505 0 l 505 -8 l 387 -8 l 387 -126 l 505 -126 l 505 -135 l 387 -135 l 387 -253 l 505 -253 l 505 -261 l 387 -261 l 387 -379 l 505 -379 l 505 -387 m 261 884 l 379 884 l 379 1002 l 261 1002 l 261 884 m 8 884 l 126 884 l 126 1002 l 8 1002 l 8 884 m 135 884 l 253 884 l 253 1002 l 135 1002 l 135 884 m 261 758 l 379 758 l 379 875 l 261 875 l 261 758 m 8 758 l 126 758 l 126 875 l 8 875 l 8 758 m 135 758 l 253 758 l 253 875 l 135 875 l 135 758 m 261 631 l 379 631 l 379 749 l 261 749 l 261 631 m 8 631 l 126 631 l 126 749 l 8 749 l 8 631 m 135 631 l 253 631 l 253 749 l 135 749 l 135 631 m 261 505 l 379 505 l 379 623 l 261 623 l 261 505 m 8 505 l 126 505 l 126 623 l 8 623 l 8 505 m 135 379 l 253 379 l 253 497 l 135 497 l 135 379 m 135 126 l 253 126 l 253 244 l 135 244 l 135 126 m 135 0 l 253 0 l 253 118 l 135 118 l 135 0 m 261 -126 l 379 -126 l 379 -8 l 261 -8 l 261 -126 m 135 -126 l 253 -126 l 253 -8 l 135 -8 l 135 -126 m 8 -126 l 126 -126 l 126 -8 l 8 -8 l 8 -126 m 135 -253 l 253 -253 l 253 -135 l 135 -135 l 135 -253 m 8 -253 l 126 -253 l 126 -135 l 8 -135 l 8 -253 m 379 -135 l 261 -135 l 261 -253 l 379 -253 l 379 -135 m 253 -379 l 253 -261 l 135 -261 l 135 -379 l 253 -379 m 379 -379 l 379 -261 l 261 -261 l 261 -379 l 379 -379 m 253 0 l 253 -126 l 126 -126 l 126 0 l 253 0 m 379 -126 l 379 -253 l 253 -253 l 253 -126 l 379 -126 z "},"Å":{"ha":505,"x_min":0,"x_max":505,"o":"m 505 -387 l 0 -387 l 0 -261 l 8 -261 l 8 -379 l 126 -379 l 126 -261 l 135 -261 l 135 -379 l 253 -379 l 253 -261 l 261 -261 l 261 -379 l 379 -379 l 379 -261 l 0 -261 l 0 1010 l 505 1010 l 505 1002 l 387 1002 l 387 884 l 505 884 l 505 875 l 387 875 l 387 758 l 505 758 l 505 749 l 387 749 l 387 631 l 505 631 l 505 623 l 387 623 l 387 505 l 505 505 l 505 497 l 387 497 l 387 379 l 505 379 l 505 370 l 387 370 l 387 253 l 505 253 l 505 244 l 387 244 l 387 126 l 505 126 l 505 118 l 387 118 l 387 0 l 505 0 l 505 -8 l 387 -8 l 387 -126 l 505 -126 l 505 -135 l 387 -135 l 387 -253 l 505 -253 l 505 -261 l 387 -261 l 387 -379 l 505 -379 l 505 -387 m 8 884 l 126 884 l 126 1002 l 8 1002 l 8 884 m 261 884 l 379 884 l 379 1002 l 261 1002 l 261 884 m 135 758 l 253 758 l 253 875 l 135 875 l 135 758 m 8 631 l 126 631 l 126 758 l 8 758 l 8 631 m 261 631 l 379 631 l 379 749 l 261 749 l 261 631 m 8 505 l 126 505 l 126 623 l 8 623 l 8 505 m 135 505 l 253 505 l 253 623 l 135 623 l 135 505 m 261 505 l 379 505 l 379 623 l 261 623 l 261 505 m 8 379 l 126 379 l 126 497 l 8 497 l 8 379 m 261 379 l 379 379 l 379 497 l 261 497 l 261 379 m 135 253 l 253 253 l 253 370 l 135 370 l 135 253 m 135 0 l 253 0 l 253 118 l 135 118 l 135 0 m 8 -126 l 126 -126 l 126 -8 l 8 -8 l 8 -126 m 135 -126 l 253 -126 l 253 -8 l 135 -8 l 135 -126 m 261 -126 l 379 -126 l 379 -8 l 261 -8 l 261 -126 m 8 -253 l 126 -253 l 126 -135 l 8 -135 l 8 -253 m 135 -253 l 253 -253 l 253 -135 l 135 -135 l 135 -253 m 261 -253 l 379 -253 l 379 -135 l 261 -135 l 261 -253 z "},"Ã":{"ha":505,"x_min":-126,"x_max":505,"o":"m 505 -387 l 0 -387 l 0 -261 l 8 -261 l 8 -379 l 126 -379 l 126 -261 l 0 -261 l 0 1010 l 505 1010 l 505 1002 l 387 1002 l 387 884 l 505 884 l 505 875 l 387 875 l 387 758 l 505 758 l 505 749 l 387 749 l 387 631 l 505 631 l 505 623 l 387 623 l 387 505 l 505 505 l 505 497 l 387 497 l 387 379 l 505 379 l 505 370 l 387 370 l 387 253 l 505 253 l 505 244 l 387 244 l 387 126 l 505 126 l 505 118 l 387 118 l 387 0 l 505 0 l 505 -8 l 387 -8 l 387 -126 l 505 -126 l 505 -135 l 387 -135 l 387 -253 l 505 -253 l 505 -261 l 387 -261 l 387 -379 l 505 -379 l 505 -387 m 261 884 l 379 884 l 379 1002 l 261 1002 l 261 884 m 8 884 l 126 884 l 126 1002 l 8 1002 l 8 884 m 135 884 l 253 884 l 253 1002 l 135 1002 l 135 884 m 261 758 l 379 758 l 379 875 l 261 875 l 261 758 m 8 758 l 126 758 l 126 875 l 8 875 l 8 758 m 135 758 l 253 758 l 253 875 l 135 875 l 135 758 m 261 631 l 379 631 l 379 749 l 261 749 l 261 631 m 8 631 l 126 631 l 126 749 l 8 749 l 8 631 m 135 631 l 253 631 l 253 749 l 135 749 l 135 631 m 261 505 l 379 505 l 379 623 l 261 623 l 261 505 m 8 505 l 126 505 l 126 623 l 8 623 l 8 505 m 135 379 l 253 379 l 253 497 l 135 497 l 135 379 m 135 126 l 253 126 l 253 244 l 135 244 l 135 126 m 135 0 l 253 0 l 253 118 l 135 118 l 135 0 m 261 -126 l 379 -126 l 379 -8 l 261 -8 l 261 -126 m 135 -126 l 253 -126 l 253 -8 l 135 -8 l 135 -126 m 8 -126 l 126 -126 l 126 -8 l 8 -8 l 8 -126 m 135 -253 l 253 -253 l 253 -135 l 135 -135 l 135 -253 m 8 -253 l 126 -253 l 126 -135 l 8 -135 l 8 -253 m 379 -135 l 261 -135 l 261 -253 l 379 -253 l 379 -135 m 253 -379 l 253 -261 l 135 -261 l 135 -379 l 253 -379 m 379 -379 l 379 -261 l 261 -261 l 261 -379 l 379 -379 m -126 884 l 0 884 l 0 758 l -126 758 l -126 884 m 0 1010 l 126 1010 l 126 884 l 0 884 l 0 1010 m 126 884 l 253 884 l 253 758 l 126 758 l 126 884 m 253 1010 l 379 1010 l 379 884 l 253 884 l 253 1010 m -126 1010 l 0 1010 l 0 884 l -126 884 l -126 1010 m 253 884 l 379 884 l 379 758 l 253 758 l 253 884 z "},"Æ":{"ha":758,"x_min":0,"x_max":758,"o":"m 758 -387 l 0 -387 l 0 -261 l 8 -261 l 8 -379 l 126 -379 l 126 -261 l 135 -261 l 135 -379 l 253 -379 l 253 -261 l 261 -261 l 261 -379 l 379 -379 l 379 -261 l 387 -261 l 387 -379 l 505 -379 l 505 -261 l 513 -261 l 513 -379 l 631 -379 l 631 -261 l 0 -261 l 0 1010 l 758 1010 l 758 1002 l 640 1002 l 640 884 l 758 884 l 758 875 l 640 875 l 640 758 l 758 758 l 758 749 l 640 749 l 640 631 l 758 631 l 758 623 l 640 623 l 640 505 l 758 505 l 758 497 l 640 497 l 640 379 l 758 379 l 758 370 l 640 370 l 640 253 l 758 253 l 758 244 l 640 244 l 640 126 l 758 126 l 758 118 l 640 118 l 640 0 l 758 0 l 758 -8 l 640 -8 l 640 -126 l 758 -126 l 758 -135 l 640 -135 l 640 -253 l 758 -253 l 758 -261 l 640 -261 l 640 -379 l 758 -379 l 758 -387 m 261 884 l 379 884 l 379 1002 l 261 1002 l 261 884 m 8 884 l 126 884 l 126 1002 l 8 1002 l 8 884 m 387 884 l 505 884 l 505 1002 l 387 1002 l 387 884 m 513 884 l 631 884 l 631 1002 l 513 1002 l 513 884 m 135 884 l 253 884 l 253 1002 l 135 1002 l 135 884 m 387 758 l 505 758 l 505 875 l 387 875 l 387 758 m 261 758 l 379 758 l 379 875 l 261 875 l 261 758 m 8 758 l 126 758 l 126 875 l 8 875 l 8 758 m 513 758 l 631 758 l 631 875 l 513 875 l 513 758 m 135 758 l 253 758 l 253 875 l 135 875 l 135 758 m 387 631 l 505 631 l 505 749 l 387 749 l 387 631 m 8 631 l 126 631 l 126 749 l 8 749 l 8 631 m 261 631 l 379 631 l 379 749 l 261 749 l 261 631 m 513 631 l 631 631 l 631 749 l 513 749 l 513 631 m 135 631 l 253 631 l 253 749 l 135 749 l 135 631 m 8 505 l 126 505 l 126 623 l 8 623 l 8 505 m 135 379 l 253 379 l 253 497 l 135 497 l 135 379 m 513 379 l 631 379 l 631 497 l 513 497 l 513 379 m 387 379 l 505 379 l 505 497 l 387 497 l 387 379 m 513 253 l 631 253 l 631 370 l 513 370 l 513 253 m 387 126 l 505 126 l 505 244 l 387 244 l 387 126 m 513 126 l 631 126 l 631 244 l 513 244 l 513 126 m 135 126 l 253 126 l 253 244 l 135 244 l 135 126 m 135 0 l 253 0 l 253 118 l 135 118 l 135 0 m 387 -126 l 505 -126 l 505 -8 l 387 -8 l 387 -126 m 8 -126 l 126 -126 l 126 -8 l 8 -8 l 8 -126 m 513 -126 l 631 -126 l 631 -8 l 513 -8 l 513 -126 m 261 -126 l 379 -126 l 379 -8 l 261 -8 l 261 -126 m 135 -126 l 253 -126 l 253 -8 l 135 -8 l 135 -126 m 631 -135 l 513 -135 l 513 -253 l 631 -253 l 631 -135 m 135 -253 l 253 -253 l 253 -135 l 135 -135 l 135 -253 m 261 -253 l 379 -253 l 379 -135 l 261 -135 l 261 -253 m 387 -253 l 505 -253 l 505 -135 l 387 -135 l 387 -253 m 8 -253 l 126 -253 l 126 -135 l 8 -135 l 8 -253 z "},"B":{"ha":505,"x_min":0,"x_max":505,"o":"m 505 -387 l 0 -387 l 0 -261 l 8 -261 l 8 -379 l 126 -379 l 126 -261 l 0 -261 l 0 1010 l 505 1010 l 505 1002 l 387 1002 l 387 884 l 505 884 l 505 875 l 387 875 l 387 758 l 505 758 l 505 749 l 387 749 l 387 631 l 505 631 l 505 623 l 387 623 l 387 505 l 505 505 l 505 497 l 387 497 l 387 379 l 505 379 l 505 370 l 387 370 l 387 253 l 505 253 l 505 244 l 387 244 l 387 126 l 505 126 l 505 118 l 387 118 l 387 0 l 505 0 l 505 -8 l 387 -8 l 387 -126 l 505 -126 l 505 -135 l 387 -135 l 387 -253 l 505 -253 l 505 -261 l 387 -261 l 387 -379 l 505 -379 l 505 -387 m 261 884 l 379 884 l 379 1002 l 261 1002 l 261 884 m 8 884 l 126 884 l 126 1002 l 8 1002 l 8 884 m 135 884 l 253 884 l 253 1002 l 135 1002 l 135 884 m 261 758 l 379 758 l 379 875 l 261 875 l 261 758 m 8 758 l 126 758 l 126 875 l 8 875 l 8 758 m 135 758 l 253 758 l 253 875 l 135 875 l 135 758 m 261 631 l 379 631 l 379 749 l 261 749 l 261 631 m 8 631 l 126 631 l 126 749 l 8 749 l 8 631 m 135 631 l 253 631 l 253 749 l 135 749 l 135 631 m 135 379 l 253 379 l 253 497 l 135 497 l 135 379 m 261 253 l 379 253 l 379 370 l 261 370 l 261 253 m 135 126 l 253 126 l 253 244 l 135 244 l 135 126 m 261 -126 l 379 -126 l 379 -8 l 261 -8 l 261 -126 m 135 -126 l 253 -126 l 253 -8 l 135 -8 l 135 -126 m 8 -126 l 126 -126 l 126 -8 l 8 -8 l 8 -126 m 135 -253 l 253 -253 l 253 -135 l 135 -135 l 135 -253 m 8 -253 l 126 -253 l 126 -135 l 8 -135 l 8 -253 m 379 -135 l 261 -135 l 261 -253 l 379 -253 l 379 -135 m 253 -379 l 253 -261 l 135 -261 l 135 -379 l 253 -379 m 379 -379 l 379 -261 l 261 -261 l 261 -379 l 379 -379 z "},"C":{"ha":379,"x_min":0,"x_max":379,"o":"m 379 -387 l 0 -387 l 0 -261 l 8 -261 l 8 -379 l 126 -379 l 126 -261 l 135 -261 l 135 -379 l 253 -379 l 253 -261 l 0 -261 l 0 1010 l 379 1010 l 379 1002 l 261 1002 l 261 884 l 379 884 l 379 875 l 261 875 l 261 758 l 379 758 l 379 749 l 261 749 l 261 631 l 379 631 l 379 623 l 261 623 l 261 505 l 379 505 l 379 497 l 261 497 l 261 379 l 379 379 l 379 370 l 261 370 l 261 253 l 379 253 l 379 244 l 261 244 l 261 126 l 379 126 l 379 118 l 261 118 l 261 0 l 379 0 l 379 -8 l 261 -8 l 261 -126 l 379 -126 l 379 -135 l 261 -135 l 261 -253 l 379 -253 l 379 -261 l 261 -261 l 261 -379 l 379 -379 l 379 -387 m 135 884 l 253 884 l 253 1002 l 135 1002 l 135 884 m 8 884 l 126 884 l 126 1002 l 8 1002 l 8 884 m 135 758 l 253 758 l 253 875 l 135 875 l 135 758 m 8 758 l 126 758 l 126 875 l 8 875 l 8 758 m 8 631 l 126 631 l 126 749 l 8 749 l 8 631 m 135 631 l 253 631 l 253 749 l 135 749 l 135 631 m 135 379 l 253 379 l 253 497 l 135 497 l 135 379 m 135 253 l 253 253 l 253 370 l 135 370 l 135 253 m 135 126 l 253 126 l 253 244 l 135 244 l 135 126 m 135 -126 l 253 -126 l 253 -8 l 135 -8 l 135 -126 m 8 -126 l 126 -126 l 126 -8 l 8 -8 l 8 -126 m 8 -253 l 126 -253 l 126 -135 l 8 -135 l 8 -253 m 253 -135 l 135 -135 l 135 -253 l 253 -253 l 253 -135 z "},"Ć":{"ha":379,"x_min":0,"x_max":379,"o":"m 379 -387 l 0 -387 l 0 -261 l 8 -261 l 8 -379 l 126 -379 l 126 -261 l 135 -261 l 135 -379 l 253 -379 l 253 -261 l 0 -261 l 0 1010 l 379 1010 l 379 1002 l 261 1002 l 261 884 l 379 884 l 379 875 l 261 875 l 261 758 l 379 758 l 379 749 l 261 749 l 261 631 l 379 631 l 379 623 l 261 623 l 261 505 l 379 505 l 379 497 l 261 497 l 261 379 l 379 379 l 379 370 l 261 370 l 261 253 l 379 253 l 379 244 l 261 244 l 261 126 l 379 126 l 379 118 l 261 118 l 261 0 l 379 0 l 379 -8 l 261 -8 l 261 -126 l 379 -126 l 379 -135 l 261 -135 l 261 -253 l 379 -253 l 379 -261 l 261 -261 l 261 -379 l 379 -379 l 379 -387 m 135 884 l 253 884 l 253 1002 l 135 1002 l 135 884 m 8 884 l 126 884 l 126 1002 l 8 1002 l 8 884 m 135 758 l 253 758 l 253 875 l 135 875 l 135 758 m 8 758 l 126 758 l 126 875 l 8 875 l 8 758 m 8 631 l 126 631 l 126 749 l 8 749 l 8 631 m 135 631 l 253 631 l 253 749 l 135 749 l 135 631 m 135 379 l 253 379 l 253 497 l 135 497 l 135 379 m 135 253 l 253 253 l 253 370 l 135 370 l 135 253 m 135 126 l 253 126 l 253 244 l 135 244 l 135 126 m 135 -126 l 253 -126 l 253 -8 l 135 -8 l 135 -126 m 8 -126 l 126 -126 l 126 -8 l 8 -8 l 8 -126 m 8 -253 l 126 -253 l 126 -135 l 8 -135 l 8 -253 m 253 -135 l 135 -135 l 135 -253 l 253 -253 l 253 -135 m 0 884 l 126 884 l 126 758 l 0 758 l 0 884 m 126 1010 l 253 1010 l 253 884 l 126 884 l 126 1010 z "},"Č":{"ha":505,"x_min":0,"x_max":505,"o":"m 505 -387 l 0 -387 l 0 -261 l 8 -261 l 8 -379 l 126 -379 l 126 -261 l 135 -261 l 135 -379 l 253 -379 l 253 -261 l 261 -261 l 261 -379 l 379 -379 l 379 -261 l 0 -261 l 0 1010 l 505 1010 l 505 1002 l 387 1002 l 387 884 l 505 884 l 505 875 l 387 875 l 387 758 l 505 758 l 505 749 l 387 749 l 387 631 l 505 631 l 505 623 l 387 623 l 387 505 l 505 505 l 505 497 l 387 497 l 387 379 l 505 379 l 505 370 l 387 370 l 387 253 l 505 253 l 505 244 l 387 244 l 387 126 l 505 126 l 505 118 l 387 118 l 387 0 l 505 0 l 505 -8 l 387 -8 l 387 -126 l 505 -126 l 505 -135 l 387 -135 l 387 -253 l 505 -253 l 505 -261 l 387 -261 l 387 -379 l 505 -379 l 505 -387 m 135 884 l 253 884 l 253 1002 l 135 1002 l 135 884 m 8 758 l 126 758 l 126 875 l 8 875 l 8 758 m 261 758 l 379 758 l 379 875 l 261 875 l 261 758 m 8 631 l 126 631 l 126 749 l 8 749 l 8 631 m 135 631 l 253 631 l 253 749 l 135 749 l 135 631 m 261 631 l 379 631 l 379 749 l 261 749 l 261 631 m 135 379 l 253 379 l 253 497 l 135 497 l 135 379 m 261 379 l 379 379 l 379 497 l 261 497 l 261 379 m 135 253 l 253 253 l 253 370 l 135 370 l 135 253 m 261 253 l 379 253 l 379 370 l 261 370 l 261 253 m 135 126 l 253 126 l 253 244 l 135 244 l 135 126 m 261 126 l 379 126 l 379 244 l 261 244 l 261 126 m 8 -126 l 126 -126 l 126 -8 l 8 -8 l 8 -126 m 135 -126 l 253 -126 l 253 -8 l 135 -8 l 135 -126 m 261 -126 l 379 -126 l 379 -8 l 261 -8 l 261 -126 m 379 -135 l 261 -135 l 261 -253 l 379 -253 l 379 -135 m 8 -253 l 126 -253 l 126 -135 l 8 -135 l 8 -253 m 135 -253 l 253 -253 l 253 -135 l 135 -135 l 135 -253 z "},"Ç":{"ha":505,"x_min":0,"x_max":505,"o":"m 505 -387 l 0 -387 l 0 -261 l 8 -261 l 8 -379 l 126 -379 l 126 -261 l 135 -261 l 135 -379 l 253 -379 l 253 -261 l 261 -261 l 261 -379 l 379 -379 l 379 -261 l 0 -261 l 0 1010 l 505 1010 l 505 1002 l 387 1002 l 387 884 l 505 884 l 505 875 l 387 875 l 387 758 l 505 758 l 505 749 l 387 749 l 387 631 l 505 631 l 505 623 l 387 623 l 387 505 l 505 505 l 505 497 l 387 497 l 387 379 l 505 379 l 505 370 l 387 370 l 387 253 l 505 253 l 505 244 l 387 244 l 387 126 l 505 126 l 505 118 l 387 118 l 387 0 l 505 0 l 505 -8 l 387 -8 l 387 -126 l 505 -126 l 505 -135 l 387 -135 l 387 -253 l 505 -253 l 505 -261 l 387 -261 l 387 -379 l 505 -379 l 505 -387 m 379 1002 l 261 1002 l 261 884 l 379 884 l 379 1002 m 8 884 l 126 884 l 126 1002 l 8 1002 l 8 884 m 135 884 l 253 884 l 253 1002 l 135 1002 l 135 884 m 8 758 l 126 758 l 126 875 l 8 875 l 8 758 m 135 758 l 253 758 l 253 875 l 135 875 l 135 758 m 261 758 l 379 758 l 379 875 l 261 875 l 261 758 m 8 631 l 126 631 l 126 749 l 8 749 l 8 631 m 135 631 l 253 631 l 253 749 l 135 749 l 135 631 m 261 631 l 379 631 l 379 749 l 261 749 l 261 631 m 135 379 l 253 379 l 253 497 l 135 497 l 135 379 m 261 379 l 379 379 l 379 497 l 261 497 l 261 379 m 135 253 l 253 253 l 253 370 l 135 370 l 135 253 m 261 253 l 379 253 l 379 370 l 261 370 l 261 253 m 135 126 l 253 126 l 253 244 l 135 244 l 135 126 m 261 126 l 379 126 l 379 244 l 261 244 l 261 126 m 8 -126 l 126 -126 l 126 -8 l 8 -8 l 8 -126 m 135 -126 l 253 -126 l 253 -8 l 135 -8 l 135 -126 m 8 -253 l 126 -253 l 126 -135 l 8 -135 l 8 -253 m 261 -253 l 379 -253 l 379 -135 l 261 -135 l 261 -253 z "},"Ċ":{"ha":379,"x_min":0,"x_max":379,"o":"m 379 -387 l 0 -387 l 0 -261 l 8 -261 l 8 -379 l 126 -379 l 126 -261 l 135 -261 l 135 -379 l 253 -379 l 253 -261 l 0 -261 l 0 1010 l 379 1010 l 379 1002 l 261 1002 l 261 884 l 379 884 l 379 875 l 261 875 l 261 758 l 379 758 l 379 749 l 261 749 l 261 631 l 379 631 l 379 623 l 261 623 l 261 505 l 379 505 l 379 497 l 261 497 l 261 379 l 379 379 l 379 370 l 261 370 l 261 253 l 379 253 l 379 244 l 261 244 l 261 126 l 379 126 l 379 118 l 261 118 l 261 0 l 379 0 l 379 -8 l 261 -8 l 261 -126 l 379 -126 l 379 -135 l 261 -135 l 261 -253 l 379 -253 l 379 -261 l 261 -261 l 261 -379 l 379 -379 l 379 -387 m 135 884 l 253 884 l 253 1002 l 135 1002 l 135 884 m 8 884 l 126 884 l 126 1002 l 8 1002 l 8 884 m 135 758 l 253 758 l 253 875 l 135 875 l 135 758 m 8 758 l 126 758 l 126 875 l 8 875 l 8 758 m 8 631 l 126 631 l 126 749 l 8 749 l 8 631 m 135 631 l 253 631 l 253 749 l 135 749 l 135 631 m 135 379 l 253 379 l 253 497 l 135 497 l 135 379 m 135 253 l 253 253 l 253 370 l 135 370 l 135 253 m 135 126 l 253 126 l 253 244 l 135 244 l 135 126 m 135 -126 l 253 -126 l 253 -8 l 135 -8 l 135 -126 m 8 -126 l 126 -126 l 126 -8 l 8 -8 l 8 -126 m 8 -253 l 126 -253 l 126 -135 l 8 -135 l 8 -253 m 253 -135 l 135 -135 l 135 -253 l 253 -253 l 253 -135 m 126 884 l 253 884 l 253 758 l 126 758 l 126 884 z "},"D":{"ha":505,"x_min":0,"x_max":505,"o":"m 505 -387 l 0 -387 l 0 -261 l 8 -261 l 8 -379 l 126 -379 l 126 -261 l 0 -261 l 0 1010 l 505 1010 l 505 1002 l 387 1002 l 387 884 l 505 884 l 505 875 l 387 875 l 387 758 l 505 758 l 505 749 l 387 749 l 387 631 l 505 631 l 505 623 l 387 623 l 387 505 l 505 505 l 505 497 l 387 497 l 387 379 l 505 379 l 505 370 l 387 370 l 387 253 l 505 253 l 505 244 l 387 244 l 387 126 l 505 126 l 505 118 l 387 118 l 387 0 l 505 0 l 505 -8 l 387 -8 l 387 -126 l 505 -126 l 505 -135 l 387 -135 l 387 -253 l 505 -253 l 505 -261 l 387 -261 l 387 -379 l 505 -379 l 505 -387 m 261 884 l 379 884 l 379 1002 l 261 1002 l 261 884 m 8 884 l 126 884 l 126 1002 l 8 1002 l 8 884 m 135 884 l 253 884 l 253 1002 l 135 1002 l 135 884 m 261 758 l 379 758 l 379 875 l 261 875 l 261 758 m 8 758 l 126 758 l 126 875 l 8 875 l 8 758 m 135 758 l 253 758 l 253 875 l 135 875 l 135 758 m 261 631 l 379 631 l 379 749 l 261 749 l 261 631 m 8 631 l 126 631 l 126 749 l 8 749 l 8 631 m 135 631 l 253 631 l 253 749 l 135 749 l 135 631 m 261 505 l 379 505 l 379 623 l 261 623 l 261 505 m 135 379 l 253 379 l 253 497 l 135 497 l 135 379 m 135 253 l 253 253 l 253 370 l 135 370 l 135 253 m 135 126 l 253 126 l 253 244 l 135 244 l 135 126 m 261 0 l 379 0 l 379 118 l 261 118 l 261 0 m 261 -126 l 379 -126 l 379 -8 l 261 -8 l 261 -126 m 135 -126 l 253 -126 l 253 -8 l 135 -8 l 135 -126 m 8 -126 l 126 -126 l 126 -8 l 8 -8 l 8 -126 m 135 -253 l 253 -253 l 253 -135 l 135 -135 l 135 -253 m 8 -253 l 126 -253 l 126 -135 l 8 -135 l 8 -253 m 379 -135 l 261 -135 l 261 -253 l 379 -253 l 379 -135 m 253 -379 l 253 -261 l 135 -261 l 135 -379 l 253 -379 m 379 -379 l 379 -261 l 261 -261 l 261 -379 l 379 -379 z "},"Ð":{"ha":758,"x_min":0,"x_max":758,"o":"m 758 -387 l 0 -387 l 0 -261 l 8 -261 l 8 -379 l 126 -379 l 126 -261 l 135 -261 l 135 -379 l 253 -379 l 253 -261 l 261 -261 l 261 -379 l 379 -379 l 379 -261 l 387 -261 l 387 -379 l 505 -379 l 505 -261 l 513 -261 l 513 -379 l 631 -379 l 631 -261 l 0 -261 l 0 1010 l 758 1010 l 758 1002 l 640 1002 l 640 884 l 758 884 l 758 875 l 640 875 l 640 758 l 758 758 l 758 749 l 640 749 l 640 631 l 758 631 l 758 623 l 640 623 l 640 505 l 758 505 l 758 497 l 640 497 l 640 379 l 758 379 l 758 370 l 640 370 l 640 253 l 758 253 l 758 244 l 640 244 l 640 126 l 758 126 l 758 118 l 640 118 l 640 0 l 758 0 l 758 -8 l 640 -8 l 640 -126 l 758 -126 l 758 -135 l 640 -135 l 640 -253 l 758 -253 l 758 -261 l 640 -261 l 640 -379 l 758 -379 l 758 -387 m 135 884 l 253 884 l 253 1002 l 135 1002 l 135 884 m 8 884 l 126 884 l 126 1002 l 8 1002 l 8 884 m 261 884 l 379 884 l 379 1002 l 261 1002 l 261 884 m 387 884 l 505 884 l 505 1002 l 387 1002 l 387 884 m 513 884 l 631 884 l 631 1002 l 513 1002 l 513 884 m 387 758 l 505 758 l 505 875 l 387 875 l 387 758 m 8 758 l 126 758 l 126 875 l 8 875 l 8 758 m 261 758 l 379 758 l 379 875 l 261 875 l 261 758 m 135 758 l 253 758 l 253 875 l 135 875 l 135 758 m 513 758 l 631 758 l 631 875 l 513 875 l 513 758 m 387 631 l 505 631 l 505 749 l 387 749 l 387 631 m 8 631 l 126 631 l 126 749 l 8 749 l 8 631 m 513 631 l 631 631 l 631 749 l 513 749 l 513 631 m 261 631 l 379 631 l 379 749 l 261 749 l 261 631 m 135 631 l 253 631 l 253 749 l 135 749 l 135 631 m 513 505 l 631 505 l 631 623 l 513 623 l 513 505 m 8 505 l 126 505 l 126 623 l 8 623 l 8 505 m 261 379 l 379 379 l 379 497 l 261 497 l 261 379 m 8 379 l 126 379 l 126 497 l 8 497 l 8 379 m 387 379 l 505 379 l 505 497 l 387 497 l 387 379 m 387 253 l 505 253 l 505 370 l 387 370 l 387 253 m 387 126 l 505 126 l 505 244 l 387 244 l 387 126 m 261 126 l 379 126 l 379 244 l 261 244 l 261 126 m 8 126 l 126 126 l 126 244 l 8 244 l 8 126 m 513 0 l 631 0 l 631 118 l 513 118 l 513 0 m 8 0 l 126 0 l 126 118 l 8 118 l 8 0 m 513 -126 l 631 -126 l 631 -8 l 513 -8 l 513 -126 m 387 -126 l 505 -126 l 505 -8 l 387 -8 l 387 -126 m 261 -126 l 379 -126 l 379 -8 l 261 -8 l 261 -126 m 135 -126 l 253 -126 l 253 -8 l 135 -8 l 135 -126 m 8 -126 l 126 -126 l 126 -8 l 8 -8 l 8 -126 m 387 -253 l 505 -253 l 505 -135 l 387 -135 l 387 -253 m 261 -253 l 379 -253 l 379 -135 l 261 -135 l 261 -253 m 135 -253 l 253 -253 l 253 -135 l 135 -135 l 135 -253 m 8 -253 l 126 -253 l 126 -135 l 8 -135 l 8 -253 m 631 -135 l 513 -135 l 513 -253 l 631 -253 l 631 -135 z "},"Ď":{"ha":505,"x_min":0,"x_max":505,"o":"m 505 -387 l 0 -387 l 0 -261 l 8 -261 l 8 -379 l 126 -379 l 126 -261 l 0 -261 l 0 1010 l 505 1010 l 505 1002 l 387 1002 l 387 884 l 505 884 l 505 875 l 387 875 l 387 758 l 505 758 l 505 749 l 387 749 l 387 631 l 505 631 l 505 623 l 387 623 l 387 505 l 505 505 l 505 497 l 387 497 l 387 379 l 505 379 l 505 370 l 387 370 l 387 253 l 505 253 l 505 244 l 387 244 l 387 126 l 505 126 l 505 118 l 387 118 l 387 0 l 505 0 l 505 -8 l 387 -8 l 387 -126 l 505 -126 l 505 -135 l 387 -135 l 387 -253 l 505 -253 l 505 -261 l 387 -261 l 387 -379 l 505 -379 l 505 -387 m 261 884 l 379 884 l 379 1002 l 261 1002 l 261 884 m 8 884 l 126 884 l 126 1002 l 8 1002 l 8 884 m 135 884 l 253 884 l 253 1002 l 135 1002 l 135 884 m 261 758 l 379 758 l 379 875 l 261 875 l 261 758 m 8 758 l 126 758 l 126 875 l 8 875 l 8 758 m 135 758 l 253 758 l 253 875 l 135 875 l 135 758 m 261 631 l 379 631 l 379 749 l 261 749 l 261 631 m 8 631 l 126 631 l 126 749 l 8 749 l 8 631 m 135 631 l 253 631 l 253 749 l 135 749 l 135 631 m 261 505 l 379 505 l 379 623 l 261 623 l 261 505 m 135 379 l 253 379 l 253 497 l 135 497 l 135 379 m 135 253 l 253 253 l 253 370 l 135 370 l 135 253 m 135 126 l 253 126 l 253 244 l 135 244 l 135 126 m 261 0 l 379 0 l 379 118 l 261 118 l 261 0 m 261 -126 l 379 -126 l 379 -8 l 261 -8 l 261 -126 m 135 -126 l 253 -126 l 253 -8 l 135 -8 l 135 -126 m 8 -126 l 126 -126 l 126 -8 l 8 -8 l 8 -126 m 135 -253 l 253 -253 l 253 -135 l 135 -135 l 135 -253 m 8 -253 l 126 -253 l 126 -135 l 8 -135 l 8 -253 m 379 -135 l 261 -135 l 261 -253 l 379 -253 l 379 -135 m 253 -379 l 253 -261 l 135 -261 l 135 -379 l 253 -379 m 379 -379 l 379 -261 l 261 -261 l 261 -379 l 379 -379 m 0 1010 l 126 1010 l 126 884 l 0 884 l 0 1010 m 126 884 l 253 884 l 253 758 l 126 758 l 126 884 m 253 1010 l 379 1010 l 379 884 l 253 884 l 253 1010 z "},"Đ":{"ha":631,"x_min":0,"x_max":631,"o":"m 631 -387 l 0 -387 l 0 -261 l 8 -261 l 8 -379 l 126 -379 l 126 -261 l 0 -261 l 0 1010 l 631 1010 l 631 1002 l 513 1002 l 513 884 l 631 884 l 631 875 l 513 875 l 513 758 l 631 758 l 631 749 l 513 749 l 513 631 l 631 631 l 631 623 l 513 623 l 513 505 l 631 505 l 631 118 l 513 118 l 513 0 l 631 0 l 631 -8 l 513 -8 l 513 -126 l 631 -126 l 631 -135 l 513 -135 l 513 -253 l 631 -253 l 631 -261 l 513 -261 l 513 -379 l 631 -379 l 631 -387 m 387 884 l 505 884 l 505 1002 l 387 1002 l 387 884 m 261 884 l 379 884 l 379 1002 l 261 1002 l 261 884 m 135 884 l 253 884 l 253 1002 l 135 1002 l 135 884 m 8 884 l 126 884 l 126 1002 l 8 1002 l 8 884 m 261 758 l 379 758 l 379 875 l 261 875 l 261 758 m 387 758 l 505 758 l 505 875 l 387 875 l 387 758 m 135 758 l 253 758 l 253 875 l 135 875 l 135 758 m 8 758 l 126 758 l 126 875 l 8 875 l 8 758 m 387 631 l 505 631 l 505 749 l 387 749 l 387 631 m 261 631 l 379 631 l 379 749 l 261 749 l 261 631 m 8 631 l 126 631 l 126 749 l 8 749 l 8 631 m 135 631 l 253 631 l 253 749 l 135 749 l 135 631 m 8 505 l 126 505 l 126 623 l 8 623 l 8 505 m 8 379 l 126 379 l 126 497 l 8 497 l 8 379 m 261 379 l 379 379 l 379 497 l 261 497 l 261 379 m 387 379 l 505 379 l 505 497 l 387 497 l 387 379 m 387 253 l 505 253 l 505 370 l 387 370 l 387 253 m 261 126 l 379 126 l 379 244 l 261 244 l 261 126 m 8 126 l 126 126 l 126 244 l 8 244 l 8 126 m 387 126 l 505 126 l 505 244 l 387 244 l 387 126 m 8 0 l 126 0 l 126 118 l 8 118 l 8 0 m 8 -126 l 126 -126 l 126 -8 l 8 -8 l 8 -126 m 387 -126 l 505 -126 l 505 -8 l 387 -8 l 387 -126 m 135 -126 l 253 -126 l 253 -8 l 135 -8 l 135 -126 m 261 -126 l 379 -126 l 379 -8 l 261 -8 l 261 -126 m 8 -253 l 126 -253 l 126 -135 l 8 -135 l 8 -253 m 261 -253 l 379 -253 l 379 -135 l 261 -135 l 261 -253 m 135 -253 l 253 -253 l 253 -135 l 135 -135 l 135 -253 m 505 -135 l 387 -135 l 387 -253 l 505 -253 l 505 -135 m 379 -379 l 379 -261 l 135 -261 l 135 -379 l 253 -379 l 253 -261 l 261 -261 l 261 -379 l 379 -379 m 505 -379 l 505 -261 l 387 -261 l 387 -379 l 505 -379 z "},"E":{"ha":505,"x_min":0,"x_max":505,"o":"m 505 -387 l 0 -387 l 0 -261 l 8 -261 l 8 -379 l 126 -379 l 126 -261 l 0 -261 l 0 1010 l 505 1010 l 505 1002 l 387 1002 l 387 884 l 505 884 l 505 875 l 387 875 l 387 758 l 505 758 l 505 749 l 387 749 l 387 631 l 505 631 l 505 623 l 387 623 l 387 505 l 505 505 l 505 497 l 387 497 l 387 379 l 505 379 l 505 370 l 387 370 l 387 253 l 505 253 l 505 244 l 387 244 l 387 126 l 505 126 l 505 118 l 387 118 l 387 0 l 505 0 l 505 -8 l 387 -8 l 387 -126 l 505 -126 l 505 -135 l 387 -135 l 387 -253 l 505 -253 l 505 -261 l 387 -261 l 387 -379 l 505 -379 l 505 -387 m 261 884 l 379 884 l 379 1002 l 261 1002 l 261 884 m 8 884 l 126 884 l 126 1002 l 8 1002 l 8 884 m 135 884 l 253 884 l 253 1002 l 135 1002 l 135 884 m 261 758 l 379 758 l 379 875 l 261 875 l 261 758 m 8 758 l 126 758 l 126 875 l 8 875 l 8 758 m 135 758 l 253 758 l 253 875 l 135 875 l 135 758 m 261 631 l 379 631 l 379 749 l 261 749 l 261 631 m 8 631 l 126 631 l 126 749 l 8 749 l 8 631 m 135 631 l 253 631 l 253 749 l 135 749 l 135 631 m 135 379 l 253 379 l 253 497 l 135 497 l 135 379 m 261 379 l 379 379 l 379 497 l 261 497 l 261 379 m 261 253 l 379 253 l 379 370 l 261 370 l 261 253 m 135 126 l 253 126 l 253 244 l 135 244 l 135 126 m 261 126 l 379 126 l 379 244 l 261 244 l 261 126 m 261 -126 l 379 -126 l 379 -8 l 261 -8 l 261 -126 m 135 -126 l 253 -126 l 253 -8 l 135 -8 l 135 -126 m 8 -126 l 126 -126 l 126 -8 l 8 -8 l 8 -126 m 135 -253 l 253 -253 l 253 -135 l 135 -135 l 135 -253 m 8 -253 l 126 -253 l 126 -135 l 8 -135 l 8 -253 m 379 -135 l 261 -135 l 261 -253 l 379 -253 l 379 -135 m 253 -379 l 253 -261 l 135 -261 l 135 -379 l 253 -379 m 379 -379 l 379 -261 l 261 -261 l 261 -379 l 379 -379 z "},"É":{"ha":505,"x_min":0,"x_max":505,"o":"m 505 -387 l 0 -387 l 0 -261 l 8 -261 l 8 -379 l 126 -379 l 126 -261 l 0 -261 l 0 1010 l 505 1010 l 505 1002 l 387 1002 l 387 884 l 505 884 l 505 875 l 387 875 l 387 758 l 505 758 l 505 749 l 387 749 l 387 631 l 505 631 l 505 623 l 387 623 l 387 505 l 505 505 l 505 497 l 387 497 l 387 379 l 505 379 l 505 370 l 387 370 l 387 253 l 505 253 l 505 244 l 387 244 l 387 126 l 505 126 l 505 118 l 387 118 l 387 0 l 505 0 l 505 -8 l 387 -8 l 387 -126 l 505 -126 l 505 -135 l 387 -135 l 387 -253 l 505 -253 l 505 -261 l 387 -261 l 387 -379 l 505 -379 l 505 -387 m 261 884 l 379 884 l 379 1002 l 261 1002 l 261 884 m 8 884 l 126 884 l 126 1002 l 8 1002 l 8 884 m 135 884 l 253 884 l 253 1002 l 135 1002 l 135 884 m 261 758 l 379 758 l 379 875 l 261 875 l 261 758 m 8 758 l 126 758 l 126 875 l 8 875 l 8 758 m 135 758 l 253 758 l 253 875 l 135 875 l 135 758 m 261 631 l 379 631 l 379 749 l 261 749 l 261 631 m 8 631 l 126 631 l 126 749 l 8 749 l 8 631 m 135 631 l 253 631 l 253 749 l 135 749 l 135 631 m 135 379 l 253 379 l 253 497 l 135 497 l 135 379 m 261 379 l 379 379 l 379 497 l 261 497 l 261 379 m 261 253 l 379 253 l 379 370 l 261 370 l 261 253 m 135 126 l 253 126 l 253 244 l 135 244 l 135 126 m 261 126 l 379 126 l 379 244 l 261 244 l 261 126 m 261 -126 l 379 -126 l 379 -8 l 261 -8 l 261 -126 m 135 -126 l 253 -126 l 253 -8 l 135 -8 l 135 -126 m 8 -126 l 126 -126 l 126 -8 l 8 -8 l 8 -126 m 135 -253 l 253 -253 l 253 -135 l 135 -135 l 135 -253 m 8 -253 l 126 -253 l 126 -135 l 8 -135 l 8 -253 m 379 -135 l 261 -135 l 261 -253 l 379 -253 l 379 -135 m 253 -379 l 253 -261 l 135 -261 l 135 -379 l 253 -379 m 379 -379 l 379 -261 l 261 -261 l 261 -379 l 379 -379 m 0 884 l 126 884 l 126 758 l 0 758 l 0 884 m 126 1010 l 253 1010 l 253 884 l 126 884 l 126 1010 z "},"Ě":{"ha":505,"x_min":0,"x_max":505,"o":"m 505 -387 l 0 -387 l 0 -261 l 8 -261 l 8 -379 l 126 -379 l 126 -261 l 0 -261 l 0 1010 l 505 1010 l 505 1002 l 387 1002 l 387 884 l 505 884 l 505 875 l 387 875 l 387 758 l 505 758 l 505 749 l 387 749 l 387 631 l 505 631 l 505 623 l 387 623 l 387 505 l 505 505 l 505 497 l 387 497 l 387 379 l 505 379 l 505 370 l 387 370 l 387 253 l 505 253 l 505 244 l 387 244 l 387 126 l 505 126 l 505 118 l 387 118 l 387 0 l 505 0 l 505 -8 l 387 -8 l 387 -126 l 505 -126 l 505 -135 l 387 -135 l 387 -253 l 505 -253 l 505 -261 l 387 -261 l 387 -379 l 505 -379 l 505 -387 m 261 884 l 379 884 l 379 1002 l 261 1002 l 261 884 m 8 884 l 126 884 l 126 1002 l 8 1002 l 8 884 m 135 884 l 253 884 l 253 1002 l 135 1002 l 135 884 m 261 758 l 379 758 l 379 875 l 261 875 l 261 758 m 8 758 l 126 758 l 126 875 l 8 875 l 8 758 m 135 758 l 253 758 l 253 875 l 135 875 l 135 758 m 261 631 l 379 631 l 379 749 l 261 749 l 261 631 m 8 631 l 126 631 l 126 749 l 8 749 l 8 631 m 135 631 l 253 631 l 253 749 l 135 749 l 135 631 m 135 379 l 253 379 l 253 497 l 135 497 l 135 379 m 261 379 l 379 379 l 379 497 l 261 497 l 261 379 m 261 253 l 379 253 l 379 370 l 261 370 l 261 253 m 135 126 l 253 126 l 253 244 l 135 244 l 135 126 m 261 126 l 379 126 l 379 244 l 261 244 l 261 126 m 261 -126 l 379 -126 l 379 -8 l 261 -8 l 261 -126 m 135 -126 l 253 -126 l 253 -8 l 135 -8 l 135 -126 m 8 -126 l 126 -126 l 126 -8 l 8 -8 l 8 -126 m 135 -253 l 253 -253 l 253 -135 l 135 -135 l 135 -253 m 8 -253 l 126 -253 l 126 -135 l 8 -135 l 8 -253 m 379 -135 l 261 -135 l 261 -253 l 379 -253 l 379 -135 m 253 -379 l 253 -261 l 135 -261 l 135 -379 l 253 -379 m 379 -379 l 379 -261 l 261 -261 l 261 -379 l 379 -379 m 0 1010 l 126 1010 l 126 884 l 0 884 l 0 1010 m 126 884 l 253 884 l 253 758 l 126 758 l 126 884 m 253 1010 l 379 1010 l 379 884 l 253 884 l 253 1010 z "},"Ê":{"ha":505,"x_min":0,"x_max":505,"o":"m 505 -387 l 0 -387 l 0 -261 l 8 -261 l 8 -379 l 126 -379 l 126 -261 l 0 -261 l 0 1010 l 505 1010 l 505 1002 l 387 1002 l 387 884 l 505 884 l 505 875 l 387 875 l 387 758 l 505 758 l 505 749 l 387 749 l 387 631 l 505 631 l 505 623 l 387 623 l 387 505 l 505 505 l 505 497 l 387 497 l 387 379 l 505 379 l 505 370 l 387 370 l 387 253 l 505 253 l 505 244 l 387 244 l 387 126 l 505 126 l 505 118 l 387 118 l 387 0 l 505 0 l 505 -8 l 387 -8 l 387 -126 l 505 -126 l 505 -135 l 387 -135 l 387 -253 l 505 -253 l 505 -261 l 387 -261 l 387 -379 l 505 -379 l 505 -387 m 261 884 l 379 884 l 379 1002 l 261 1002 l 261 884 m 8 884 l 126 884 l 126 1002 l 8 1002 l 8 884 m 135 884 l 253 884 l 253 1002 l 135 1002 l 135 884 m 261 758 l 379 758 l 379 875 l 261 875 l 261 758 m 8 758 l 126 758 l 126 875 l 8 875 l 8 758 m 135 758 l 253 758 l 253 875 l 135 875 l 135 758 m 261 631 l 379 631 l 379 749 l 261 749 l 261 631 m 8 631 l 126 631 l 126 749 l 8 749 l 8 631 m 135 631 l 253 631 l 253 749 l 135 749 l 135 631 m 135 379 l 253 379 l 253 497 l 135 497 l 135 379 m 261 379 l 379 379 l 379 497 l 261 497 l 261 379 m 261 253 l 379 253 l 379 370 l 261 370 l 261 253 m 135 126 l 253 126 l 253 244 l 135 244 l 135 126 m 261 126 l 379 126 l 379 244 l 261 244 l 261 126 m 261 -126 l 379 -126 l 379 -8 l 261 -8 l 261 -126 m 135 -126 l 253 -126 l 253 -8 l 135 -8 l 135 -126 m 8 -126 l 126 -126 l 126 -8 l 8 -8 l 8 -126 m 135 -253 l 253 -253 l 253 -135 l 135 -135 l 135 -253 m 8 -253 l 126 -253 l 126 -135 l 8 -135 l 8 -253 m 379 -135 l 261 -135 l 261 -253 l 379 -253 l 379 -135 m 253 -379 l 253 -261 l 135 -261 l 135 -379 l 253 -379 m 379 -379 l 379 -261 l 261 -261 l 261 -379 l 379 -379 m 126 1010 l 253 1010 l 253 884 l 126 884 l 126 1010 m 0 884 l 126 884 l 126 758 l 0 758 l 0 884 m 253 884 l 379 884 l 379 758 l 253 758 l 253 884 z "},"Ë":{"ha":505,"x_min":0,"x_max":505,"o":"m 505 -387 l 0 -387 l 0 -261 l 8 -261 l 8 -379 l 126 -379 l 126 -261 l 0 -261 l 0 1010 l 505 1010 l 505 1002 l 387 1002 l 387 884 l 505 884 l 505 875 l 387 875 l 387 758 l 505 758 l 505 749 l 387 749 l 387 631 l 505 631 l 505 623 l 387 623 l 387 505 l 505 505 l 505 497 l 387 497 l 387 379 l 505 379 l 505 370 l 387 370 l 387 253 l 505 253 l 505 244 l 387 244 l 387 126 l 505 126 l 505 118 l 387 118 l 387 0 l 505 0 l 505 -8 l 387 -8 l 387 -126 l 505 -126 l 505 -135 l 387 -135 l 387 -253 l 505 -253 l 505 -261 l 387 -261 l 387 -379 l 505 -379 l 505 -387 m 261 884 l 379 884 l 379 1002 l 261 1002 l 261 884 m 8 884 l 126 884 l 126 1002 l 8 1002 l 8 884 m 135 884 l 253 884 l 253 1002 l 135 1002 l 135 884 m 261 758 l 379 758 l 379 875 l 261 875 l 261 758 m 8 758 l 126 758 l 126 875 l 8 875 l 8 758 m 135 758 l 253 758 l 253 875 l 135 875 l 135 758 m 261 631 l 379 631 l 379 749 l 261 749 l 261 631 m 8 631 l 126 631 l 126 749 l 8 749 l 8 631 m 135 631 l 253 631 l 253 749 l 135 749 l 135 631 m 135 379 l 253 379 l 253 497 l 135 497 l 135 379 m 261 379 l 379 379 l 379 497 l 261 497 l 261 379 m 261 253 l 379 253 l 379 370 l 261 370 l 261 253 m 135 126 l 253 126 l 253 244 l 135 244 l 135 126 m 261 126 l 379 126 l 379 244 l 261 244 l 261 126 m 261 -126 l 379 -126 l 379 -8 l 261 -8 l 261 -126 m 135 -126 l 253 -126 l 253 -8 l 135 -8 l 135 -126 m 8 -126 l 126 -126 l 126 -8 l 8 -8 l 8 -126 m 135 -253 l 253 -253 l 253 -135 l 135 -135 l 135 -253 m 8 -253 l 126 -253 l 126 -135 l 8 -135 l 8 -253 m 379 -135 l 261 -135 l 261 -253 l 379 -253 l 379 -135 m 253 -379 l 253 -261 l 135 -261 l 135 -379 l 253 -379 m 379 -379 l 379 -261 l 261 -261 l 261 -379 l 379 -379 m 0 884 l 126 884 l 126 758 l 0 758 l 0 884 m 253 884 l 379 884 l 379 758 l 253 758 l 253 884 z "},"Ė":{"ha":505,"x_min":0,"x_max":505,"o":"m 505 -387 l 0 -387 l 0 -261 l 8 -261 l 8 -379 l 126 -379 l 126 -261 l 0 -261 l 0 1010 l 505 1010 l 505 1002 l 387 1002 l 387 884 l 505 884 l 505 875 l 387 875 l 387 758 l 505 758 l 505 749 l 387 749 l 387 631 l 505 631 l 505 623 l 387 623 l 387 505 l 505 505 l 505 497 l 387 497 l 387 379 l 505 379 l 505 370 l 387 370 l 387 253 l 505 253 l 505 244 l 387 244 l 387 126 l 505 126 l 505 118 l 387 118 l 387 0 l 505 0 l 505 -8 l 387 -8 l 387 -126 l 505 -126 l 505 -135 l 387 -135 l 387 -253 l 505 -253 l 505 -261 l 387 -261 l 387 -379 l 505 -379 l 505 -387 m 261 884 l 379 884 l 379 1002 l 261 1002 l 261 884 m 8 884 l 126 884 l 126 1002 l 8 1002 l 8 884 m 135 884 l 253 884 l 253 1002 l 135 1002 l 135 884 m 261 758 l 379 758 l 379 875 l 261 875 l 261 758 m 8 758 l 126 758 l 126 875 l 8 875 l 8 758 m 135 758 l 253 758 l 253 875 l 135 875 l 135 758 m 261 631 l 379 631 l 379 749 l 261 749 l 261 631 m 8 631 l 126 631 l 126 749 l 8 749 l 8 631 m 135 631 l 253 631 l 253 749 l 135 749 l 135 631 m 135 379 l 253 379 l 253 497 l 135 497 l 135 379 m 261 379 l 379 379 l 379 497 l 261 497 l 261 379 m 261 253 l 379 253 l 379 370 l 261 370 l 261 253 m 135 126 l 253 126 l 253 244 l 135 244 l 135 126 m 261 126 l 379 126 l 379 244 l 261 244 l 261 126 m 261 -126 l 379 -126 l 379 -8 l 261 -8 l 261 -126 m 135 -126 l 253 -126 l 253 -8 l 135 -8 l 135 -126 m 8 -126 l 126 -126 l 126 -8 l 8 -8 l 8 -126 m 135 -253 l 253 -253 l 253 -135 l 135 -135 l 135 -253 m 8 -253 l 126 -253 l 126 -135 l 8 -135 l 8 -253 m 379 -135 l 261 -135 l 261 -253 l 379 -253 l 379 -135 m 253 -379 l 253 -261 l 135 -261 l 135 -379 l 253 -379 m 379 -379 l 379 -261 l 261 -261 l 261 -379 l 379 -379 m 126 884 l 253 884 l 253 758 l 126 758 l 126 884 z "},"È":{"ha":505,"x_min":0,"x_max":505,"o":"m 505 -387 l 0 -387 l 0 -261 l 8 -261 l 8 -379 l 126 -379 l 126 -261 l 0 -261 l 0 1010 l 505 1010 l 505 1002 l 387 1002 l 387 884 l 505 884 l 505 875 l 387 875 l 387 758 l 505 758 l 505 749 l 387 749 l 387 631 l 505 631 l 505 623 l 387 623 l 387 505 l 505 505 l 505 497 l 387 497 l 387 379 l 505 379 l 505 370 l 387 370 l 387 253 l 505 253 l 505 244 l 387 244 l 387 126 l 505 126 l 505 118 l 387 118 l 387 0 l 505 0 l 505 -8 l 387 -8 l 387 -126 l 505 -126 l 505 -135 l 387 -135 l 387 -253 l 505 -253 l 505 -261 l 387 -261 l 387 -379 l 505 -379 l 505 -387 m 261 884 l 379 884 l 379 1002 l 261 1002 l 261 884 m 8 884 l 126 884 l 126 1002 l 8 1002 l 8 884 m 135 884 l 253 884 l 253 1002 l 135 1002 l 135 884 m 261 758 l 379 758 l 379 875 l 261 875 l 261 758 m 8 758 l 126 758 l 126 875 l 8 875 l 8 758 m 135 758 l 253 758 l 253 875 l 135 875 l 135 758 m 261 631 l 379 631 l 379 749 l 261 749 l 261 631 m 8 631 l 126 631 l 126 749 l 8 749 l 8 631 m 135 631 l 253 631 l 253 749 l 135 749 l 135 631 m 135 379 l 253 379 l 253 497 l 135 497 l 135 379 m 261 379 l 379 379 l 379 497 l 261 497 l 261 379 m 261 253 l 379 253 l 379 370 l 261 370 l 261 253 m 135 126 l 253 126 l 253 244 l 135 244 l 135 126 m 261 126 l 379 126 l 379 244 l 261 244 l 261 126 m 261 -126 l 379 -126 l 379 -8 l 261 -8 l 261 -126 m 135 -126 l 253 -126 l 253 -8 l 135 -8 l 135 -126 m 8 -126 l 126 -126 l 126 -8 l 8 -8 l 8 -126 m 135 -253 l 253 -253 l 253 -135 l 135 -135 l 135 -253 m 8 -253 l 126 -253 l 126 -135 l 8 -135 l 8 -253 m 379 -135 l 261 -135 l 261 -253 l 379 -253 l 379 -135 m 253 -379 l 253 -261 l 135 -261 l 135 -379 l 253 -379 m 379 -379 l 379 -261 l 261 -261 l 261 -379 l 379 -379 m 126 884 l 253 884 l 253 758 l 126 758 l 126 884 m 0 1010 l 126 1010 l 126 884 l 0 884 l 0 1010 z "},"Ē":{"ha":505,"x_min":0,"x_max":505,"o":"m 505 -387 l 0 -387 l 0 -261 l 8 -261 l 8 -379 l 126 -379 l 126 -261 l 0 -261 l 0 1010 l 505 1010 l 505 1002 l 387 1002 l 387 884 l 505 884 l 505 875 l 387 875 l 387 758 l 505 758 l 505 749 l 387 749 l 387 631 l 505 631 l 505 623 l 387 623 l 387 505 l 505 505 l 505 497 l 387 497 l 387 379 l 505 379 l 505 370 l 387 370 l 387 253 l 505 253 l 505 244 l 387 244 l 387 126 l 505 126 l 505 118 l 387 118 l 387 0 l 505 0 l 505 -8 l 387 -8 l 387 -126 l 505 -126 l 505 -135 l 387 -135 l 387 -253 l 505 -253 l 505 -261 l 387 -261 l 387 -379 l 505 -379 l 505 -387 m 261 884 l 379 884 l 379 1002 l 261 1002 l 261 884 m 8 884 l 126 884 l 126 1002 l 8 1002 l 8 884 m 135 884 l 253 884 l 253 1002 l 135 1002 l 135 884 m 261 758 l 379 758 l 379 875 l 261 875 l 261 758 m 8 758 l 126 758 l 126 875 l 8 875 l 8 758 m 135 758 l 253 758 l 253 875 l 135 875 l 135 758 m 261 631 l 379 631 l 379 749 l 261 749 l 261 631 m 8 631 l 126 631 l 126 749 l 8 749 l 8 631 m 135 631 l 253 631 l 253 749 l 135 749 l 135 631 m 135 379 l 253 379 l 253 497 l 135 497 l 135 379 m 261 379 l 379 379 l 379 497 l 261 497 l 261 379 m 261 253 l 379 253 l 379 370 l 261 370 l 261 253 m 135 126 l 253 126 l 253 244 l 135 244 l 135 126 m 261 126 l 379 126 l 379 244 l 261 244 l 261 126 m 261 -126 l 379 -126 l 379 -8 l 261 -8 l 261 -126 m 135 -126 l 253 -126 l 253 -8 l 135 -8 l 135 -126 m 8 -126 l 126 -126 l 126 -8 l 8 -8 l 8 -126 m 135 -253 l 253 -253 l 253 -135 l 135 -135 l 135 -253 m 8 -253 l 126 -253 l 126 -135 l 8 -135 l 8 -253 m 379 -135 l 261 -135 l 261 -253 l 379 -253 l 379 -135 m 253 -379 l 253 -261 l 135 -261 l 135 -379 l 253 -379 m 379 -379 l 379 -261 l 261 -261 l 261 -379 l 379 -379 m 0 884 l 126 884 l 126 758 l 0 758 l 0 884 m 126 884 l 253 884 l 253 758 l 126 758 l 126 884 m 253 884 l 379 884 l 379 758 l 253 758 l 253 884 z "},"Ę":{"ha":505,"x_min":0,"x_max":505,"o":"m 505 -387 l 0 -387 l 0 -261 l 8 -261 l 8 -379 l 126 -379 l 126 -261 l 0 -261 l 0 1010 l 505 1010 l 505 1002 l 387 1002 l 387 884 l 505 884 l 505 875 l 387 875 l 387 758 l 505 758 l 505 749 l 387 749 l 387 631 l 505 631 l 505 623 l 387 623 l 387 505 l 505 505 l 505 497 l 387 497 l 387 379 l 505 379 l 505 370 l 387 370 l 387 253 l 505 253 l 505 244 l 387 244 l 387 126 l 505 126 l 505 118 l 387 118 l 387 0 l 505 0 l 505 -8 l 387 -8 l 387 -126 l 505 -126 l 505 -135 l 387 -135 l 387 -253 l 505 -253 l 505 -261 l 387 -261 l 387 -379 l 505 -379 l 505 -387 m 261 884 l 379 884 l 379 1002 l 261 1002 l 261 884 m 8 884 l 126 884 l 126 1002 l 8 1002 l 8 884 m 135 884 l 253 884 l 253 1002 l 135 1002 l 135 884 m 261 758 l 379 758 l 379 875 l 261 875 l 261 758 m 8 758 l 126 758 l 126 875 l 8 875 l 8 758 m 135 758 l 253 758 l 253 875 l 135 875 l 135 758 m 261 631 l 379 631 l 379 749 l 261 749 l 261 631 m 8 631 l 126 631 l 126 749 l 8 749 l 8 631 m 135 631 l 253 631 l 253 749 l 135 749 l 135 631 m 135 379 l 253 379 l 253 497 l 135 497 l 135 379 m 261 379 l 379 379 l 379 497 l 261 497 l 261 379 m 261 253 l 379 253 l 379 370 l 261 370 l 261 253 m 135 126 l 253 126 l 253 244 l 135 244 l 135 126 m 261 126 l 379 126 l 379 244 l 261 244 l 261 126 m 261 -126 l 379 -126 l 379 -8 l 261 -8 l 261 -126 m 135 -126 l 253 -126 l 253 -8 l 135 -8 l 135 -126 m 8 -126 l 126 -126 l 126 -8 l 8 -8 l 8 -126 m 135 -253 l 253 -253 l 253 -135 l 135 -135 l 135 -253 m 8 -253 l 126 -253 l 126 -135 l 8 -135 l 8 -253 m 379 -135 l 261 -135 l 261 -253 l 379 -253 l 379 -135 m 253 -379 l 253 -261 l 135 -261 l 135 -379 l 253 -379 m 379 -379 l 379 -261 l 261 -261 l 261 -379 l 379 -379 m 253 0 l 253 -126 l 126 -126 l 126 0 l 253 0 m 379 -126 l 379 -253 l 253 -253 l 253 -126 l 379 -126 z "},"F":{"ha":505,"x_min":0,"x_max":505,"o":"m 505 -387 l 0 -387 l 0 -261 l 8 -261 l 8 -379 l 126 -379 l 126 -261 l 135 -261 l 135 -379 l 253 -379 l 253 -261 l 261 -261 l 261 -379 l 379 -379 l 379 -261 l 0 -261 l 0 1010 l 505 1010 l 505 1002 l 387 1002 l 387 884 l 505 884 l 505 875 l 387 875 l 387 758 l 505 758 l 505 749 l 387 749 l 387 631 l 505 631 l 505 623 l 387 623 l 387 505 l 505 505 l 505 497 l 387 497 l 387 379 l 505 379 l 505 370 l 387 370 l 387 253 l 505 253 l 505 244 l 387 244 l 387 126 l 505 126 l 505 118 l 387 118 l 387 0 l 505 0 l 505 -8 l 387 -8 l 387 -126 l 505 -126 l 505 -135 l 387 -135 l 387 -253 l 505 -253 l 505 -261 l 387 -261 l 387 -379 l 505 -379 l 505 -387 m 135 884 l 253 884 l 253 1002 l 135 1002 l 135 884 m 261 884 l 379 884 l 379 1002 l 261 1002 l 261 884 m 8 884 l 126 884 l 126 1002 l 8 1002 l 8 884 m 261 758 l 379 758 l 379 875 l 261 875 l 261 758 m 135 758 l 253 758 l 253 875 l 135 875 l 135 758 m 8 758 l 126 758 l 126 875 l 8 875 l 8 758 m 261 631 l 379 631 l 379 749 l 261 749 l 261 631 m 135 631 l 253 631 l 253 749 l 135 749 l 135 631 m 8 631 l 126 631 l 126 749 l 8 749 l 8 631 m 135 379 l 253 379 l 253 497 l 135 497 l 135 379 m 261 379 l 379 379 l 379 497 l 261 497 l 261 379 m 261 253 l 379 253 l 379 370 l 261 370 l 261 253 m 135 126 l 253 126 l 253 244 l 135 244 l 135 126 m 261 126 l 379 126 l 379 244 l 261 244 l 261 126 m 261 0 l 379 0 l 379 118 l 261 118 l 261 0 m 135 0 l 253 0 l 253 118 l 135 118 l 135 0 m 261 -126 l 379 -126 l 379 -8 l 261 -8 l 261 -126 m 8 -126 l 126 -126 l 126 -8 l 8 -8 l 8 -126 m 135 -126 l 253 -126 l 253 -8 l 135 -8 l 135 -126 m 8 -253 l 126 -253 l 126 -135 l 8 -135 l 8 -253 m 135 -253 l 253 -253 l 253 -135 l 135 -135 l 135 -253 m 379 -135 l 261 -135 l 261 -253 l 379 -253 l 379 -135 z "},"G":{"ha":505,"x_min":0,"x_max":505,"o":"m 505 -387 l 0 -387 l 0 -261 l 8 -261 l 8 -379 l 126 -379 l 126 -261 l 0 -261 l 0 1010 l 505 1010 l 505 1002 l 387 1002 l 387 884 l 505 884 l 505 875 l 387 875 l 387 758 l 505 758 l 505 749 l 387 749 l 387 631 l 505 631 l 505 623 l 387 623 l 387 505 l 505 505 l 505 497 l 387 497 l 387 379 l 505 379 l 505 370 l 387 370 l 387 253 l 505 253 l 505 244 l 387 244 l 387 126 l 505 126 l 505 118 l 387 118 l 387 0 l 505 0 l 505 -8 l 387 -8 l 387 -126 l 505 -126 l 505 -135 l 387 -135 l 387 -253 l 505 -253 l 505 -261 l 387 -261 l 387 -379 l 505 -379 l 505 -387 m 261 884 l 379 884 l 379 1002 l 261 1002 l 261 884 m 8 884 l 126 884 l 126 1002 l 8 1002 l 8 884 m 135 884 l 253 884 l 253 1002 l 135 1002 l 135 884 m 261 758 l 379 758 l 379 875 l 261 875 l 261 758 m 8 758 l 126 758 l 126 875 l 8 875 l 8 758 m 135 758 l 253 758 l 253 875 l 135 875 l 135 758 m 261 631 l 379 631 l 379 749 l 261 749 l 261 631 m 8 631 l 126 631 l 126 749 l 8 749 l 8 631 m 135 631 l 253 631 l 253 749 l 135 749 l 135 631 m 135 379 l 253 379 l 253 497 l 135 497 l 135 379 m 261 379 l 379 379 l 379 497 l 261 497 l 261 379 m 135 253 l 253 253 l 253 370 l 135 370 l 135 253 m 135 126 l 253 126 l 253 244 l 135 244 l 135 126 m 261 0 l 379 0 l 379 118 l 261 118 l 261 0 m 261 -126 l 379 -126 l 379 -8 l 261 -8 l 261 -126 m 135 -126 l 253 -126 l 253 -8 l 135 -8 l 135 -126 m 8 -126 l 126 -126 l 126 -8 l 8 -8 l 8 -126 m 135 -253 l 253 -253 l 253 -135 l 135 -135 l 135 -253 m 8 -253 l 126 -253 l 126 -135 l 8 -135 l 8 -253 m 379 -135 l 261 -135 l 261 -253 l 379 -253 l 379 -135 m 253 -379 l 253 -261 l 135 -261 l 135 -379 l 253 -379 m 379 -379 l 379 -261 l 261 -261 l 261 -379 l 379 -379 z "},"Ğ":{"ha":505,"x_min":0,"x_max":505,"o":"m 505 -387 l 0 -387 l 0 -261 l 8 -261 l 8 -379 l 126 -379 l 126 -261 l 0 -261 l 0 1010 l 505 1010 l 505 1002 l 387 1002 l 387 884 l 505 884 l 505 875 l 387 875 l 387 758 l 505 758 l 505 749 l 387 749 l 387 631 l 505 631 l 505 623 l 387 623 l 387 505 l 505 505 l 505 497 l 387 497 l 387 379 l 505 379 l 505 370 l 387 370 l 387 253 l 505 253 l 505 244 l 387 244 l 387 126 l 505 126 l 505 118 l 387 118 l 387 0 l 505 0 l 505 -8 l 387 -8 l 387 -126 l 505 -126 l 505 -135 l 387 -135 l 387 -253 l 505 -253 l 505 -261 l 387 -261 l 387 -379 l 505 -379 l 505 -387 m 261 884 l 379 884 l 379 1002 l 261 1002 l 261 884 m 8 884 l 126 884 l 126 1002 l 8 1002 l 8 884 m 135 884 l 253 884 l 253 1002 l 135 1002 l 135 884 m 261 758 l 379 758 l 379 875 l 261 875 l 261 758 m 8 758 l 126 758 l 126 875 l 8 875 l 8 758 m 135 758 l 253 758 l 253 875 l 135 875 l 135 758 m 261 631 l 379 631 l 379 749 l 261 749 l 261 631 m 8 631 l 126 631 l 126 749 l 8 749 l 8 631 m 135 631 l 253 631 l 253 749 l 135 749 l 135 631 m 135 379 l 253 379 l 253 497 l 135 497 l 135 379 m 261 379 l 379 379 l 379 497 l 261 497 l 261 379 m 135 253 l 253 253 l 253 370 l 135 370 l 135 253 m 135 126 l 253 126 l 253 244 l 135 244 l 135 126 m 261 0 l 379 0 l 379 118 l 261 118 l 261 0 m 261 -126 l 379 -126 l 379 -8 l 261 -8 l 261 -126 m 135 -126 l 253 -126 l 253 -8 l 135 -8 l 135 -126 m 8 -126 l 126 -126 l 126 -8 l 8 -8 l 8 -126 m 135 -253 l 253 -253 l 253 -135 l 135 -135 l 135 -253 m 8 -253 l 126 -253 l 126 -135 l 8 -135 l 8 -253 m 379 -135 l 261 -135 l 261 -253 l 379 -253 l 379 -135 m 253 -379 l 253 -261 l 135 -261 l 135 -379 l 253 -379 m 379 -379 l 379 -261 l 261 -261 l 261 -379 l 379 -379 m 0 1010 l 126 1010 l 126 884 l 0 884 l 0 1010 m 126 884 l 253 884 l 253 758 l 126 758 l 126 884 m 253 1010 l 379 1010 l 379 884 l 253 884 l 253 1010 m 253 884 l 379 884 l 379 758 l 253 758 l 253 884 m 0 884 l 126 884 l 126 758 l 0 758 l 0 884 z "},"Ģ":{"ha":505,"x_min":0,"x_max":505,"o":"m 505 -387 l 0 -387 l 0 -261 l 8 -261 l 8 -379 l 126 -379 l 126 -261 l 0 -261 l 0 1010 l 505 1010 l 505 1002 l 387 1002 l 387 884 l 505 884 l 505 875 l 387 875 l 387 758 l 505 758 l 505 749 l 387 749 l 387 631 l 505 631 l 505 623 l 387 623 l 387 505 l 505 505 l 505 497 l 387 497 l 387 379 l 505 379 l 505 370 l 387 370 l 387 253 l 505 253 l 505 244 l 387 244 l 387 126 l 505 126 l 505 118 l 387 118 l 387 0 l 505 0 l 505 -8 l 387 -8 l 387 -126 l 505 -126 l 505 -135 l 387 -135 l 387 -253 l 505 -253 l 505 -261 l 387 -261 l 387 -379 l 505 -379 l 505 -387 m 261 884 l 379 884 l 379 1002 l 261 1002 l 261 884 m 8 884 l 126 884 l 126 1002 l 8 1002 l 8 884 m 135 884 l 253 884 l 253 1002 l 135 1002 l 135 884 m 261 758 l 379 758 l 379 875 l 261 875 l 261 758 m 8 758 l 126 758 l 126 875 l 8 875 l 8 758 m 135 758 l 253 758 l 253 875 l 135 875 l 135 758 m 261 631 l 379 631 l 379 749 l 261 749 l 261 631 m 8 631 l 126 631 l 126 749 l 8 749 l 8 631 m 135 631 l 253 631 l 253 749 l 135 749 l 135 631 m 135 379 l 253 379 l 253 497 l 135 497 l 135 379 m 261 379 l 379 379 l 379 497 l 261 497 l 261 379 m 135 253 l 253 253 l 253 370 l 135 370 l 135 253 m 135 126 l 253 126 l 253 244 l 135 244 l 135 126 m 261 0 l 379 0 l 379 118 l 261 118 l 261 0 m 261 -126 l 379 -126 l 379 -8 l 261 -8 l 261 -126 m 135 -126 l 253 -126 l 253 -8 l 135 -8 l 135 -126 m 8 -126 l 126 -126 l 126 -8 l 8 -8 l 8 -126 m 135 -253 l 253 -253 l 253 -135 l 135 -135 l 135 -253 m 8 -253 l 126 -253 l 126 -135 l 8 -135 l 8 -253 m 379 -135 l 261 -135 l 261 -253 l 379 -253 l 379 -135 m 253 -379 l 253 -261 l 135 -261 l 135 -379 l 253 -379 m 379 -379 l 379 -261 l 261 -261 l 261 -379 l 379 -379 m 126 -126 l 253 -126 l 253 -253 l 126 -253 l 126 -126 z "},"Ġ":{"ha":505,"x_min":0,"x_max":505,"o":"m 505 -387 l 0 -387 l 0 -261 l 8 -261 l 8 -379 l 126 -379 l 126 -261 l 0 -261 l 0 1010 l 505 1010 l 505 1002 l 387 1002 l 387 884 l 505 884 l 505 875 l 387 875 l 387 758 l 505 758 l 505 749 l 387 749 l 387 631 l 505 631 l 505 623 l 387 623 l 387 505 l 505 505 l 505 497 l 387 497 l 387 379 l 505 379 l 505 370 l 387 370 l 387 253 l 505 253 l 505 244 l 387 244 l 387 126 l 505 126 l 505 118 l 387 118 l 387 0 l 505 0 l 505 -8 l 387 -8 l 387 -126 l 505 -126 l 505 -135 l 387 -135 l 387 -253 l 505 -253 l 505 -261 l 387 -261 l 387 -379 l 505 -379 l 505 -387 m 261 884 l 379 884 l 379 1002 l 261 1002 l 261 884 m 8 884 l 126 884 l 126 1002 l 8 1002 l 8 884 m 135 884 l 253 884 l 253 1002 l 135 1002 l 135 884 m 261 758 l 379 758 l 379 875 l 261 875 l 261 758 m 8 758 l 126 758 l 126 875 l 8 875 l 8 758 m 135 758 l 253 758 l 253 875 l 135 875 l 135 758 m 261 631 l 379 631 l 379 749 l 261 749 l 261 631 m 8 631 l 126 631 l 126 749 l 8 749 l 8 631 m 135 631 l 253 631 l 253 749 l 135 749 l 135 631 m 135 379 l 253 379 l 253 497 l 135 497 l 135 379 m 261 379 l 379 379 l 379 497 l 261 497 l 261 379 m 135 253 l 253 253 l 253 370 l 135 370 l 135 253 m 135 126 l 253 126 l 253 244 l 135 244 l 135 126 m 261 0 l 379 0 l 379 118 l 261 118 l 261 0 m 261 -126 l 379 -126 l 379 -8 l 261 -8 l 261 -126 m 135 -126 l 253 -126 l 253 -8 l 135 -8 l 135 -126 m 8 -126 l 126 -126 l 126 -8 l 8 -8 l 8 -126 m 135 -253 l 253 -253 l 253 -135 l 135 -135 l 135 -253 m 8 -253 l 126 -253 l 126 -135 l 8 -135 l 8 -253 m 379 -135 l 261 -135 l 261 -253 l 379 -253 l 379 -135 m 253 -379 l 253 -261 l 135 -261 l 135 -379 l 253 -379 m 379 -379 l 379 -261 l 261 -261 l 261 -379 l 379 -379 m 126 884 l 253 884 l 253 758 l 126 758 l 126 884 z "},"H":{"ha":505,"x_min":0,"x_max":505,"o":"m 505 -387 l 0 -387 l 0 1010 l 505 1010 l 505 1002 l 387 1002 l 387 884 l 505 884 l 505 875 l 387 875 l 387 758 l 505 758 l 505 749 l 387 749 l 387 631 l 505 631 l 505 623 l 387 623 l 387 505 l 505 505 l 505 497 l 387 497 l 387 379 l 505 379 l 505 370 l 387 370 l 387 253 l 505 253 l 505 244 l 387 244 l 387 126 l 505 126 l 505 118 l 387 118 l 387 0 l 505 0 l 505 -8 l 387 -8 l 387 -126 l 505 -126 l 505 -135 l 387 -135 l 387 -253 l 505 -253 l 505 -261 l 387 -261 l 387 -379 l 505 -379 l 505 -387 m 261 884 l 379 884 l 379 1002 l 261 1002 l 261 884 m 8 884 l 126 884 l 126 1002 l 8 1002 l 8 884 m 135 884 l 253 884 l 253 1002 l 135 1002 l 135 884 m 261 758 l 379 758 l 379 875 l 261 875 l 261 758 m 8 758 l 126 758 l 126 875 l 8 875 l 8 758 m 135 758 l 253 758 l 253 875 l 135 875 l 135 758 m 8 631 l 126 631 l 126 749 l 8 749 l 8 631 m 261 631 l 379 631 l 379 749 l 261 749 l 261 631 m 135 631 l 253 631 l 253 749 l 135 749 l 135 631 m 135 505 l 253 505 l 253 623 l 135 623 l 135 505 m 135 379 l 253 379 l 253 497 l 135 497 l 135 379 m 135 126 l 253 126 l 253 244 l 135 244 l 135 126 m 135 0 l 253 0 l 253 118 l 135 118 l 135 0 m 261 -126 l 379 -126 l 379 -8 l 261 -8 l 261 -126 m 135 -126 l 253 -126 l 253 -8 l 135 -8 l 135 -126 m 8 -126 l 126 -126 l 126 -8 l 8 -8 l 8 -126 m 135 -253 l 253 -253 l 253 -135 l 135 -135 l 135 -253 m 8 -253 l 126 -253 l 126 -135 l 8 -135 l 8 -253 m 379 -135 l 261 -135 l 261 -253 l 379 -253 l 379 -135 m 253 -379 l 253 -261 l 8 -261 l 8 -379 l 126 -379 l 126 -261 l 135 -261 l 135 -379 l 253 -379 m 379 -379 l 379 -261 l 261 -261 l 261 -379 l 379 -379 z "},"Ħ":{"ha":758,"x_min":0,"x_max":758,"o":"m 758 -387 l 0 -387 l 0 -261 l 8 -261 l 8 -379 l 126 -379 l 126 -261 l 135 -261 l 135 -379 l 253 -379 l 253 -261 l 261 -261 l 261 -379 l 379 -379 l 379 -261 l 387 -261 l 387 -379 l 505 -379 l 505 -261 l 513 -261 l 513 -379 l 631 -379 l 631 -261 l 0 -261 l 0 1010 l 758 1010 l 758 1002 l 640 1002 l 640 884 l 758 884 l 758 875 l 640 875 l 640 758 l 758 758 l 758 749 l 640 749 l 640 631 l 758 631 l 758 623 l 640 623 l 640 505 l 758 505 l 758 497 l 640 497 l 640 379 l 758 379 l 758 370 l 640 370 l 640 253 l 758 253 l 758 244 l 640 244 l 640 126 l 758 126 l 758 118 l 640 118 l 640 0 l 758 0 l 758 -8 l 640 -8 l 640 -126 l 758 -126 l 758 -135 l 640 -135 l 640 -253 l 758 -253 l 758 -261 l 640 -261 l 640 -379 l 758 -379 l 758 -387 m 135 884 l 253 884 l 253 1002 l 135 1002 l 135 884 m 8 884 l 126 884 l 126 1002 l 8 1002 l 8 884 m 261 884 l 379 884 l 379 1002 l 261 1002 l 261 884 m 387 884 l 505 884 l 505 1002 l 387 1002 l 387 884 m 513 884 l 631 884 l 631 1002 l 513 1002 l 513 884 m 387 758 l 505 758 l 505 875 l 387 875 l 387 758 m 8 758 l 126 758 l 126 875 l 8 875 l 8 758 m 261 758 l 379 758 l 379 875 l 261 875 l 261 758 m 513 758 l 631 758 l 631 875 l 513 875 l 513 758 m 135 758 l 253 758 l 253 875 l 135 875 l 135 758 m 387 631 l 505 631 l 505 749 l 387 749 l 387 631 m 8 631 l 126 631 l 126 749 l 8 749 l 8 631 m 513 631 l 631 631 l 631 749 l 513 749 l 513 631 m 261 631 l 379 631 l 379 749 l 261 749 l 261 631 m 135 631 l 253 631 l 253 749 l 135 749 l 135 631 m 513 505 l 631 505 l 631 623 l 513 623 l 513 505 m 8 505 l 126 505 l 126 623 l 8 623 l 8 505 m 261 505 l 379 505 l 379 623 l 261 623 l 261 505 m 261 379 l 379 379 l 379 497 l 261 497 l 261 379 m 513 253 l 631 253 l 631 370 l 513 370 l 513 253 m 8 253 l 126 253 l 126 370 l 8 370 l 8 253 m 513 126 l 631 126 l 631 244 l 513 244 l 513 126 m 261 126 l 379 126 l 379 244 l 261 244 l 261 126 m 8 126 l 126 126 l 126 244 l 8 244 l 8 126 m 513 0 l 631 0 l 631 118 l 513 118 l 513 0 m 261 0 l 379 0 l 379 118 l 261 118 l 261 0 m 8 0 l 126 0 l 126 118 l 8 118 l 8 0 m 513 -126 l 631 -126 l 631 -8 l 513 -8 l 513 -126 m 387 -126 l 505 -126 l 505 -8 l 387 -8 l 387 -126 m 261 -126 l 379 -126 l 379 -8 l 261 -8 l 261 -126 m 135 -126 l 253 -126 l 253 -8 l 135 -8 l 135 -126 m 8 -126 l 126 -126 l 126 -8 l 8 -8 l 8 -126 m 387 -253 l 505 -253 l 505 -135 l 387 -135 l 387 -253 m 261 -253 l 379 -253 l 379 -135 l 261 -135 l 261 -253 m 135 -253 l 253 -253 l 253 -135 l 135 -135 l 135 -253 m 8 -253 l 126 -253 l 126 -135 l 8 -135 l 8 -253 m 631 -135 l 513 -135 l 513 -253 l 631 -253 l 631 -135 z "},"I":{"ha":253,"x_min":0,"x_max":253,"o":"m 0 -387 l 0 -261 l 8 -261 l 8 -379 l 126 -379 l 126 -261 l 0 -261 l 0 1010 l 253 1010 l 253 1002 l 135 1002 l 135 884 l 253 884 l 253 875 l 135 875 l 135 758 l 253 758 l 253 749 l 135 749 l 135 631 l 253 631 l 253 623 l 135 623 l 135 505 l 253 505 l 253 497 l 135 497 l 135 379 l 253 379 l 253 370 l 135 370 l 135 253 l 253 253 l 253 244 l 135 244 l 135 126 l 253 126 l 253 118 l 135 118 l 135 0 l 253 0 l 253 -8 l 135 -8 l 135 -126 l 253 -126 l 253 -135 l 135 -135 l 135 -253 l 253 -253 l 253 -261 l 135 -261 l 135 -379 l 253 -379 l 253 -387 l 0 -387 m 8 884 l 126 884 l 126 1002 l 8 1002 l 8 884 m 8 758 l 126 758 l 126 875 l 8 875 l 8 758 m 8 631 l 126 631 l 126 749 l 8 749 l 8 631 m 8 -126 l 126 -126 l 126 -8 l 8 -8 l 8 -126 m 126 -135 l 8 -135 l 8 -253 l 126 -253 l 126 -135 z "},"Ĳ":{"ha":631,"x_min":0,"x_max":631,"o":"m 0 -387 l 0 -261 l 8 -261 l 8 -379 l 126 -379 l 126 -261 l 0 -261 l 0 1010 l 253 1010 l 253 1002 l 135 1002 l 135 884 l 253 884 l 253 875 l 135 875 l 135 758 l 253 758 l 253 749 l 135 749 l 135 631 l 253 631 l 253 623 l 135 623 l 135 505 l 253 505 l 253 497 l 135 497 l 135 379 l 253 379 l 253 370 l 135 370 l 135 253 l 253 253 l 253 244 l 135 244 l 135 126 l 253 126 l 253 118 l 135 118 l 135 0 l 253 0 l 253 -8 l 135 -8 l 135 -126 l 253 -126 l 253 -135 l 135 -135 l 135 -253 l 253 -253 l 253 -261 l 135 -261 l 135 -379 l 253 -379 l 253 -387 l 0 -387 m 8 884 l 126 884 l 126 1002 l 8 1002 l 8 884 m 8 758 l 126 758 l 126 875 l 8 875 l 8 758 m 8 631 l 126 631 l 126 749 l 8 749 l 8 631 m 8 -126 l 126 -126 l 126 -8 l 8 -8 l 8 -126 m 126 -135 l 8 -135 l 8 -253 l 126 -253 l 126 -135 m 631 -387 l 253 -387 l 253 -261 l 261 -261 l 261 -379 l 379 -379 l 379 -261 l 387 -261 l 387 -379 l 505 -379 l 505 -261 l 253 -261 l 253 1010 l 631 1010 l 631 1002 l 513 1002 l 513 884 l 631 884 l 631 875 l 513 875 l 513 758 l 631 758 l 631 749 l 513 749 l 513 631 l 631 631 l 631 623 l 513 623 l 513 505 l 631 505 l 631 497 l 513 497 l 513 379 l 631 379 l 631 370 l 513 370 l 513 253 l 631 253 l 631 244 l 513 244 l 513 126 l 631 126 l 631 118 l 513 118 l 513 0 l 631 0 l 631 -8 l 513 -8 l 513 -126 l 631 -126 l 631 -135 l 513 -135 l 513 -253 l 631 -253 l 631 -261 l 513 -261 l 513 -379 l 631 -379 l 631 -387 m 261 884 l 379 884 l 379 1002 l 261 1002 l 261 884 m 387 884 l 505 884 l 505 1002 l 387 1002 l 387 884 m 261 758 l 379 758 l 379 875 l 261 875 l 261 758 m 387 758 l 505 758 l 505 875 l 387 875 l 387 758 m 261 631 l 379 631 l 379 749 l 261 749 l 261 631 m 387 631 l 505 631 l 505 749 l 387 749 l 387 631 m 261 505 l 379 505 l 379 623 l 261 623 l 261 505 m 261 379 l 379 379 l 379 497 l 261 497 l 261 379 m 261 253 l 379 253 l 379 370 l 261 370 l 261 253 m 261 126 l 379 126 l 379 244 l 261 244 l 261 126 m 387 0 l 505 0 l 505 118 l 387 118 l 387 0 m 261 -126 l 379 -126 l 379 -8 l 261 -8 l 261 -126 m 387 -126 l 505 -126 l 505 -8 l 387 -8 l 387 -126 m 505 -135 l 387 -135 l 387 -253 l 505 -253 l 505 -135 m 261 -253 l 379 -253 l 379 -135 l 261 -135 l 261 -253 z "},"Í":{"ha":253,"x_min":0,"x_max":253,"o":"m 0 -387 l 0 -261 l 8 -261 l 8 -379 l 126 -379 l 126 -261 l 0 -261 l 0 1010 l 253 1010 l 253 875 l 135 875 l 135 758 l 253 758 l 253 749 l 135 749 l 135 631 l 253 631 l 253 623 l 135 623 l 135 505 l 253 505 l 253 497 l 135 497 l 135 379 l 253 379 l 253 370 l 135 370 l 135 253 l 253 253 l 253 244 l 135 244 l 135 126 l 253 126 l 253 118 l 135 118 l 135 0 l 253 0 l 253 -8 l 135 -8 l 135 -126 l 253 -126 l 253 -135 l 135 -135 l 135 -253 l 253 -253 l 253 -261 l 135 -261 l 135 -379 l 253 -379 l 253 -387 l 0 -387 m 8 884 l 126 884 l 126 1002 l 8 1002 l 8 884 m 8 631 l 126 631 l 126 749 l 8 749 l 8 631 m 8 -126 l 126 -126 l 126 -8 l 8 -8 l 8 -126 m 126 -135 l 8 -135 l 8 -253 l 126 -253 l 126 -135 z "},"Î":{"ha":253,"x_min":-126,"x_max":253,"o":"m 0 -387 l 0 -261 l 8 -261 l 8 -379 l 126 -379 l 126 -261 l 0 -261 l 0 758 l -126 758 l -126 884 l 0 884 l 0 1010 l 253 1010 l 253 1002 l 135 1002 l 135 884 l 253 884 l 253 749 l 135 749 l 135 631 l 253 631 l 253 623 l 135 623 l 135 505 l 253 505 l 253 497 l 135 497 l 135 379 l 253 379 l 253 370 l 135 370 l 135 253 l 253 253 l 253 244 l 135 244 l 135 126 l 253 126 l 253 118 l 135 118 l 135 0 l 253 0 l 253 -8 l 135 -8 l 135 -126 l 253 -126 l 253 -135 l 135 -135 l 135 -253 l 253 -253 l 253 -261 l 135 -261 l 135 -379 l 253 -379 l 253 -387 l 0 -387 m 8 758 l 126 758 l 126 875 l 8 875 l 8 758 m 8 631 l 126 631 l 126 749 l 8 749 l 8 631 m 8 -126 l 126 -126 l 126 -8 l 8 -8 l 8 -126 m 126 -135 l 8 -135 l 8 -253 l 126 -253 l 126 -135 z "},"Ï":{"ha":253,"x_min":-126,"x_max":253,"o":"m 0 -387 l 0 -261 l 8 -261 l 8 -379 l 126 -379 l 126 -261 l 0 -261 l 0 758 l -126 758 l -126 884 l 0 884 l 0 1010 l 253 1010 l 253 1002 l 135 1002 l 135 884 l 253 884 l 253 749 l 135 749 l 135 631 l 253 631 l 253 623 l 135 623 l 135 505 l 253 505 l 253 497 l 135 497 l 135 379 l 253 379 l 253 370 l 135 370 l 135 253 l 253 253 l 253 244 l 135 244 l 135 126 l 253 126 l 253 118 l 135 118 l 135 0 l 253 0 l 253 -8 l 135 -8 l 135 -126 l 253 -126 l 253 -135 l 135 -135 l 135 -253 l 253 -253 l 253 -261 l 135 -261 l 135 -379 l 253 -379 l 253 -387 l 0 -387 m 8 884 l 126 884 l 126 1002 l 8 1002 l 8 884 m 8 758 l 126 758 l 126 875 l 8 875 l 8 758 m 8 631 l 126 631 l 126 749 l 8 749 l 8 631 m 8 -126 l 126 -126 l 126 -8 l 8 -8 l 8 -126 m 126 -135 l 8 -135 l 8 -253 l 126 -253 l 126 -135 z "},"İ":{"ha":253,"x_min":0,"x_max":253,"o":"m 0 -387 l 0 -261 l 8 -261 l 8 -379 l 126 -379 l 126 -261 l 0 -261 l 0 1010 l 253 1010 l 253 1002 l 135 1002 l 135 884 l 253 884 l 253 875 l 135 875 l 135 758 l 253 758 l 253 749 l 135 749 l 135 631 l 253 631 l 253 623 l 135 623 l 135 505 l 253 505 l 253 497 l 135 497 l 135 379 l 253 379 l 253 370 l 135 370 l 135 253 l 253 253 l 253 244 l 135 244 l 135 126 l 253 126 l 253 118 l 135 118 l 135 0 l 253 0 l 253 -8 l 135 -8 l 135 -126 l 253 -126 l 253 -135 l 135 -135 l 135 -253 l 253 -253 l 253 -261 l 135 -261 l 135 -379 l 253 -379 l 253 -387 l 0 -387 m 8 884 l 126 884 l 126 1002 l 8 1002 l 8 884 m 8 758 l 126 758 l 126 875 l 8 875 l 8 758 m 8 631 l 126 631 l 126 749 l 8 749 l 8 631 m 8 -126 l 126 -126 l 126 -8 l 8 -8 l 8 -126 m 126 -135 l 8 -135 l 8 -253 l 126 -253 l 126 -135 m 0 884 l 126 884 l 126 758 l 0 758 l 0 884 z "},"Ì":{"ha":253,"x_min":-126,"x_max":253,"o":"m 0 -387 l 0 -261 l 8 -261 l 8 -379 l 126 -379 l 126 -261 l 0 -261 l 0 884 l -126 884 l -126 1010 l 253 1010 l 253 1002 l 135 1002 l 135 884 l 253 884 l 253 875 l 135 875 l 135 758 l 253 758 l 253 749 l 135 749 l 135 631 l 253 631 l 253 623 l 135 623 l 135 505 l 253 505 l 253 497 l 135 497 l 135 379 l 253 379 l 253 370 l 135 370 l 135 253 l 253 253 l 253 244 l 135 244 l 135 126 l 253 126 l 253 118 l 135 118 l 135 0 l 253 0 l 253 -8 l 135 -8 l 135 -126 l 253 -126 l 253 -135 l 135 -135 l 135 -253 l 253 -253 l 253 -261 l 135 -261 l 135 -379 l 253 -379 l 253 -387 l 0 -387 m 8 884 l 126 884 l 126 1002 l 8 1002 l 8 884 m 8 631 l 126 631 l 126 749 l 8 749 l 8 631 m 8 -126 l 126 -126 l 126 -8 l 8 -8 l 8 -126 m 126 -135 l 8 -135 l 8 -253 l 126 -253 l 126 -135 z "},"Ī":{"ha":253,"x_min":-126,"x_max":253,"o":"m 0 -387 l 0 -261 l 8 -261 l 8 -379 l 126 -379 l 126 -261 l 0 -261 l 0 758 l -126 758 l -126 884 l 0 884 l 0 1010 l 253 1010 l 253 1002 l 135 1002 l 135 884 l 253 884 l 253 749 l 135 749 l 135 631 l 253 631 l 253 623 l 135 623 l 135 505 l 253 505 l 253 497 l 135 497 l 135 379 l 253 379 l 253 370 l 135 370 l 135 253 l 253 253 l 253 244 l 135 244 l 135 126 l 253 126 l 253 118 l 135 118 l 135 0 l 253 0 l 253 -8 l 135 -8 l 135 -126 l 253 -126 l 253 -135 l 135 -135 l 135 -253 l 253 -253 l 253 -261 l 135 -261 l 135 -379 l 253 -379 l 253 -387 l 0 -387 m 8 884 l 126 884 l 126 1002 l 8 1002 l 8 884 m 8 631 l 126 631 l 126 749 l 8 749 l 8 631 m 8 -126 l 126 -126 l 126 -8 l 8 -8 l 8 -126 m 126 -135 l 8 -135 l 8 -253 l 126 -253 l 126 -135 z "},"Į":{"ha":253,"x_min":-126,"x_max":253,"o":"m 0 -387 l 0 -261 l 8 -261 l 8 -379 l 126 -379 l 126 -261 l 0 -261 l 0 1010 l 253 1010 l 253 1002 l 135 1002 l 135 884 l 253 884 l 253 875 l 135 875 l 135 758 l 253 758 l 253 749 l 135 749 l 135 631 l 253 631 l 253 623 l 135 623 l 135 505 l 253 505 l 253 497 l 135 497 l 135 379 l 253 379 l 253 370 l 135 370 l 135 253 l 253 253 l 253 244 l 135 244 l 135 126 l 253 126 l 253 118 l 135 118 l 135 0 l 253 0 l 253 -8 l 135 -8 l 135 -126 l 253 -126 l 253 -135 l 135 -135 l 135 -253 l 253 -253 l 253 -261 l 135 -261 l 135 -379 l 253 -379 l 253 -387 l 0 -387 m 8 884 l 126 884 l 126 1002 l 8 1002 l 8 884 m 8 758 l 126 758 l 126 875 l 8 875 l 8 758 m 8 631 l 126 631 l 126 749 l 8 749 l 8 631 m 8 -126 l 126 -126 l 126 -8 l 8 -8 l 8 -126 m 126 -135 l 8 -135 l 8 -253 l 126 -253 l 126 -135 m 0 0 l 0 -126 l -126 -126 l -126 0 l 0 0 m 126 -126 l 126 -253 l 0 -253 l 0 -126 l 126 -126 z "},"J":{"ha":379,"x_min":0,"x_max":379,"o":"m 379 -387 l 0 -387 l 0 -261 l 8 -261 l 8 -379 l 126 -379 l 126 -261 l 135 -261 l 135 -379 l 253 -379 l 253 -261 l 0 -261 l 0 1010 l 379 1010 l 379 1002 l 261 1002 l 261 884 l 379 884 l 379 875 l 261 875 l 261 758 l 379 758 l 379 749 l 261 749 l 261 631 l 379 631 l 379 623 l 261 623 l 261 505 l 379 505 l 379 497 l 261 497 l 261 379 l 379 379 l 379 370 l 261 370 l 261 253 l 379 253 l 379 244 l 261 244 l 261 126 l 379 126 l 379 118 l 261 118 l 261 0 l 379 0 l 379 -8 l 261 -8 l 261 -126 l 379 -126 l 379 -135 l 261 -135 l 261 -253 l 379 -253 l 379 -261 l 261 -261 l 261 -379 l 379 -379 l 379 -387 m 8 884 l 126 884 l 126 1002 l 8 1002 l 8 884 m 135 884 l 253 884 l 253 1002 l 135 1002 l 135 884 m 8 758 l 126 758 l 126 875 l 8 875 l 8 758 m 135 758 l 253 758 l 253 875 l 135 875 l 135 758 m 8 631 l 126 631 l 126 749 l 8 749 l 8 631 m 135 631 l 253 631 l 253 749 l 135 749 l 135 631 m 8 505 l 126 505 l 126 623 l 8 623 l 8 505 m 8 379 l 126 379 l 126 497 l 8 497 l 8 379 m 8 253 l 126 253 l 126 370 l 8 370 l 8 253 m 8 126 l 126 126 l 126 244 l 8 244 l 8 126 m 135 0 l 253 0 l 253 118 l 135 118 l 135 0 m 8 -126 l 126 -126 l 126 -8 l 8 -8 l 8 -126 m 135 -126 l 253 -126 l 253 -8 l 135 -8 l 135 -126 m 253 -135 l 135 -135 l 135 -253 l 253 -253 l 253 -135 m 8 -253 l 126 -253 l 126 -135 l 8 -135 l 8 -253 z "},"K":{"ha":505,"x_min":0,"x_max":505,"o":"m 505 -387 l 0 -387 l 0 -261 l 8 -261 l 8 -379 l 126 -379 l 126 -261 l 0 -261 l 0 1010 l 505 1010 l 505 1002 l 387 1002 l 387 884 l 505 884 l 505 875 l 387 875 l 387 758 l 505 758 l 505 749 l 387 749 l 387 631 l 505 631 l 505 623 l 387 623 l 387 505 l 505 505 l 505 497 l 387 497 l 387 379 l 505 379 l 505 370 l 387 370 l 387 253 l 505 253 l 505 244 l 387 244 l 387 126 l 505 126 l 505 118 l 387 118 l 387 0 l 505 0 l 505 -8 l 387 -8 l 387 -126 l 505 -126 l 505 -135 l 387 -135 l 387 -253 l 505 -253 l 505 -261 l 387 -261 l 387 -379 l 505 -379 l 505 -387 m 261 884 l 379 884 l 379 1002 l 261 1002 l 261 884 m 8 884 l 126 884 l 126 1002 l 8 1002 l 8 884 m 135 884 l 253 884 l 253 1002 l 135 1002 l 135 884 m 261 758 l 379 758 l 379 875 l 261 875 l 261 758 m 8 758 l 126 758 l 126 875 l 8 875 l 8 758 m 135 758 l 253 758 l 253 875 l 135 875 l 135 758 m 261 631 l 379 631 l 379 749 l 261 749 l 261 631 m 8 631 l 126 631 l 126 749 l 8 749 l 8 631 m 135 631 l 253 631 l 253 749 l 135 749 l 135 631 m 135 505 l 253 505 l 253 623 l 135 623 l 135 505 m 135 379 l 253 379 l 253 497 l 135 497 l 135 379 m 261 253 l 379 253 l 379 370 l 261 370 l 261 253 m 135 126 l 253 126 l 253 244 l 135 244 l 135 126 m 135 0 l 253 0 l 253 118 l 135 118 l 135 0 m 261 -126 l 379 -126 l 379 -8 l 261 -8 l 261 -126 m 135 -126 l 253 -126 l 253 -8 l 135 -8 l 135 -126 m 8 -126 l 126 -126 l 126 -8 l 8 -8 l 8 -126 m 135 -253 l 253 -253 l 253 -135 l 135 -135 l 135 -253 m 8 -253 l 126 -253 l 126 -135 l 8 -135 l 8 -253 m 379 -135 l 261 -135 l 261 -253 l 379 -253 l 379 -135 m 253 -379 l 253 -261 l 135 -261 l 135 -379 l 253 -379 m 379 -379 l 379 -261 l 261 -261 l 261 -379 l 379 -379 z "},"Ķ":{"ha":505,"x_min":0,"x_max":505,"o":"m 505 -387 l 0 -387 l 0 -261 l 8 -261 l 8 -379 l 126 -379 l 126 -261 l 0 -261 l 0 1010 l 505 1010 l 505 1002 l 387 1002 l 387 884 l 505 884 l 505 875 l 387 875 l 387 758 l 505 758 l 505 749 l 387 749 l 387 631 l 505 631 l 505 623 l 387 623 l 387 505 l 505 505 l 505 497 l 387 497 l 387 379 l 505 379 l 505 370 l 387 370 l 387 253 l 505 253 l 505 244 l 387 244 l 387 126 l 505 126 l 505 118 l 387 118 l 387 0 l 505 0 l 505 -8 l 387 -8 l 387 -126 l 505 -126 l 505 -135 l 387 -135 l 387 -253 l 505 -253 l 505 -261 l 387 -261 l 387 -379 l 505 -379 l 505 -387 m 261 884 l 379 884 l 379 1002 l 261 1002 l 261 884 m 8 884 l 126 884 l 126 1002 l 8 1002 l 8 884 m 135 884 l 253 884 l 253 1002 l 135 1002 l 135 884 m 261 758 l 379 758 l 379 875 l 261 875 l 261 758 m 8 758 l 126 758 l 126 875 l 8 875 l 8 758 m 135 758 l 253 758 l 253 875 l 135 875 l 135 758 m 261 631 l 379 631 l 379 749 l 261 749 l 261 631 m 8 631 l 126 631 l 126 749 l 8 749 l 8 631 m 135 631 l 253 631 l 253 749 l 135 749 l 135 631 m 135 505 l 253 505 l 253 623 l 135 623 l 135 505 m 135 379 l 253 379 l 253 497 l 135 497 l 135 379 m 261 253 l 379 253 l 379 370 l 261 370 l 261 253 m 135 126 l 253 126 l 253 244 l 135 244 l 135 126 m 135 0 l 253 0 l 253 118 l 135 118 l 135 0 m 261 -126 l 379 -126 l 379 -8 l 261 -8 l 261 -126 m 135 -126 l 253 -126 l 253 -8 l 135 -8 l 135 -126 m 8 -126 l 126 -126 l 126 -8 l 8 -8 l 8 -126 m 135 -253 l 253 -253 l 253 -135 l 135 -135 l 135 -253 m 8 -253 l 126 -253 l 126 -135 l 8 -135 l 8 -253 m 379 -135 l 261 -135 l 261 -253 l 379 -253 l 379 -135 m 253 -379 l 253 -261 l 135 -261 l 135 -379 l 253 -379 m 379 -379 l 379 -261 l 261 -261 l 261 -379 l 379 -379 m 126 -126 l 253 -126 l 253 -253 l 126 -253 l 126 -126 z "},"L":{"ha":379,"x_min":0,"x_max":379,"o":"m 379 -387 l 0 -387 l 0 -261 l 8 -261 l 8 -379 l 126 -379 l 126 -261 l 135 -261 l 135 -379 l 253 -379 l 253 -261 l 0 -261 l 0 1010 l 379 1010 l 379 1002 l 261 1002 l 261 884 l 379 884 l 379 875 l 261 875 l 261 758 l 379 758 l 379 749 l 261 749 l 261 631 l 379 631 l 379 623 l 261 623 l 261 505 l 379 505 l 379 497 l 261 497 l 261 379 l 379 379 l 379 370 l 261 370 l 261 253 l 379 253 l 379 244 l 261 244 l 261 126 l 379 126 l 379 118 l 261 118 l 261 0 l 379 0 l 379 -8 l 261 -8 l 261 -126 l 379 -126 l 379 -135 l 261 -135 l 261 -253 l 379 -253 l 379 -261 l 261 -261 l 261 -379 l 379 -379 l 379 -387 m 8 884 l 126 884 l 126 1002 l 8 1002 l 8 884 m 135 884 l 253 884 l 253 1002 l 135 1002 l 135 884 m 8 758 l 126 758 l 126 875 l 8 875 l 8 758 m 135 758 l 253 758 l 253 875 l 135 875 l 135 758 m 8 631 l 126 631 l 126 749 l 8 749 l 8 631 m 135 631 l 253 631 l 253 749 l 135 749 l 135 631 m 135 505 l 253 505 l 253 623 l 135 623 l 135 505 m 135 379 l 253 379 l 253 497 l 135 497 l 135 379 m 135 253 l 253 253 l 253 370 l 135 370 l 135 253 m 135 126 l 253 126 l 253 244 l 135 244 l 135 126 m 8 -126 l 126 -126 l 126 -8 l 8 -8 l 8 -126 m 135 -126 l 253 -126 l 253 -8 l 135 -8 l 135 -126 m 253 -135 l 135 -135 l 135 -253 l 253 -253 l 253 -135 m 8 -253 l 126 -253 l 126 -135 l 8 -135 l 8 -253 z "},"Ĺ":{"ha":379,"x_min":0,"x_max":379,"o":"m 379 -387 l 0 -387 l 0 -261 l 8 -261 l 8 -379 l 126 -379 l 126 -261 l 135 -261 l 135 -379 l 253 -379 l 253 -261 l 0 -261 l 0 1010 l 379 1010 l 379 1002 l 261 1002 l 261 884 l 379 884 l 379 875 l 261 875 l 261 758 l 379 758 l 379 749 l 261 749 l 261 631 l 379 631 l 379 623 l 261 623 l 261 505 l 379 505 l 379 497 l 261 497 l 261 379 l 379 379 l 379 370 l 261 370 l 261 253 l 379 253 l 379 244 l 261 244 l 261 126 l 379 126 l 379 118 l 261 118 l 261 0 l 379 0 l 379 -8 l 261 -8 l 261 -126 l 379 -126 l 379 -135 l 261 -135 l 261 -253 l 379 -253 l 379 -261 l 261 -261 l 261 -379 l 379 -379 l 379 -387 m 8 884 l 126 884 l 126 1002 l 8 1002 l 8 884 m 135 758 l 253 758 l 253 875 l 135 875 l 135 758 m 8 631 l 126 631 l 126 749 l 8 749 l 8 631 m 135 631 l 253 631 l 253 749 l 135 749 l 135 631 m 135 505 l 253 505 l 253 623 l 135 623 l 135 505 m 135 379 l 253 379 l 253 497 l 135 497 l 135 379 m 135 253 l 253 253 l 253 370 l 135 370 l 135 253 m 135 126 l 253 126 l 253 244 l 135 244 l 135 126 m 8 -126 l 126 -126 l 126 -8 l 8 -8 l 8 -126 m 135 -126 l 253 -126 l 253 -8 l 135 -8 l 135 -126 m 253 -135 l 135 -135 l 135 -253 l 253 -253 l 253 -135 m 8 -253 l 126 -253 l 126 -135 l 8 -135 l 8 -253 z "},"Ľ":{"ha":379,"x_min":0,"x_max":379,"o":"m 379 -387 l 0 -387 l 0 -261 l 8 -261 l 8 -379 l 126 -379 l 126 -261 l 135 -261 l 135 -379 l 253 -379 l 253 -261 l 0 -261 l 0 1010 l 379 1010 l 379 1002 l 261 1002 l 261 884 l 379 884 l 379 875 l 261 875 l 261 758 l 379 758 l 379 749 l 261 749 l 261 631 l 379 631 l 379 623 l 261 623 l 261 505 l 379 505 l 379 497 l 261 497 l 261 379 l 379 379 l 379 370 l 261 370 l 261 253 l 379 253 l 379 244 l 261 244 l 261 126 l 379 126 l 379 118 l 261 118 l 261 0 l 379 0 l 379 -8 l 261 -8 l 261 -126 l 379 -126 l 379 -135 l 261 -135 l 261 -253 l 379 -253 l 379 -261 l 261 -261 l 261 -379 l 379 -379 l 379 -387 m 8 884 l 126 884 l 126 1002 l 8 1002 l 8 884 m 135 884 l 253 884 l 253 1002 l 135 1002 l 135 884 m 8 758 l 126 758 l 126 875 l 8 875 l 8 758 m 135 758 l 253 758 l 253 875 l 135 875 l 135 758 m 8 631 l 126 631 l 126 749 l 8 749 l 8 631 m 135 631 l 253 631 l 253 749 l 135 749 l 135 631 m 135 505 l 253 505 l 253 623 l 135 623 l 135 505 m 135 379 l 253 379 l 253 497 l 135 497 l 135 379 m 135 253 l 253 253 l 253 370 l 135 370 l 135 253 m 135 126 l 253 126 l 253 244 l 135 244 l 135 126 m 8 -126 l 126 -126 l 126 -8 l 8 -8 l 8 -126 m 135 -126 l 253 -126 l 253 -8 l 135 -8 l 135 -126 m 253 -135 l 135 -135 l 135 -253 l 253 -253 l 253 -135 m 8 -253 l 126 -253 l 126 -135 l 8 -135 l 8 -253 m 253 631 l 379 631 l 379 505 l 253 505 l 253 631 m 253 505 l 379 505 l 379 379 l 253 379 l 253 505 z "},"Ļ":{"ha":379,"x_min":0,"x_max":379,"o":"m 379 -387 l 0 -387 l 0 -261 l 8 -261 l 8 -379 l 126 -379 l 126 -261 l 135 -261 l 135 -379 l 253 -379 l 253 -261 l 0 -261 l 0 1010 l 379 1010 l 379 1002 l 261 1002 l 261 884 l 379 884 l 379 875 l 261 875 l 261 758 l 379 758 l 379 749 l 261 749 l 261 631 l 379 631 l 379 623 l 261 623 l 261 505 l 379 505 l 379 497 l 261 497 l 261 379 l 379 379 l 379 370 l 261 370 l 261 253 l 379 253 l 379 244 l 261 244 l 261 126 l 379 126 l 379 118 l 261 118 l 261 0 l 379 0 l 379 -8 l 261 -8 l 261 -126 l 379 -126 l 379 -135 l 261 -135 l 261 -253 l 379 -253 l 379 -261 l 261 -261 l 261 -379 l 379 -379 l 379 -387 m 8 884 l 126 884 l 126 1002 l 8 1002 l 8 884 m 135 884 l 253 884 l 253 1002 l 135 1002 l 135 884 m 8 758 l 126 758 l 126 875 l 8 875 l 8 758 m 135 758 l 253 758 l 253 875 l 135 875 l 135 758 m 8 631 l 126 631 l 126 749 l 8 749 l 8 631 m 135 631 l 253 631 l 253 749 l 135 749 l 135 631 m 135 505 l 253 505 l 253 623 l 135 623 l 135 505 m 135 379 l 253 379 l 253 497 l 135 497 l 135 379 m 135 253 l 253 253 l 253 370 l 135 370 l 135 253 m 135 126 l 253 126 l 253 244 l 135 244 l 135 126 m 8 -126 l 126 -126 l 126 -8 l 8 -8 l 8 -126 m 135 -126 l 253 -126 l 253 -8 l 135 -8 l 135 -126 m 253 -135 l 135 -135 l 135 -253 l 253 -253 l 253 -135 m 8 -253 l 126 -253 l 126 -135 l 8 -135 l 8 -253 m 126 -126 l 253 -126 l 253 -253 l 126 -253 l 126 -126 z "},"Ł":{"ha":505,"x_min":0,"x_max":505,"o":"m 505 -387 l 0 -387 l 0 -261 l 8 -261 l 8 -379 l 126 -379 l 126 -261 l 0 -261 l 0 1010 l 505 1010 l 505 1002 l 387 1002 l 387 884 l 505 884 l 505 875 l 387 875 l 387 758 l 505 758 l 505 749 l 387 749 l 387 631 l 505 631 l 505 623 l 387 623 l 387 505 l 505 505 l 505 497 l 387 497 l 387 379 l 505 379 l 505 370 l 387 370 l 387 253 l 505 253 l 505 244 l 387 244 l 387 126 l 505 126 l 505 118 l 387 118 l 387 0 l 505 0 l 505 -8 l 387 -8 l 387 -126 l 505 -126 l 505 -135 l 387 -135 l 387 -253 l 505 -253 l 505 -261 l 387 -261 l 387 -379 l 505 -379 l 505 -387 m 261 884 l 379 884 l 379 1002 l 261 1002 l 261 884 m 135 884 l 253 884 l 253 1002 l 135 1002 l 135 884 m 8 884 l 126 884 l 126 1002 l 8 1002 l 8 884 m 261 758 l 379 758 l 379 875 l 261 875 l 261 758 m 8 758 l 126 758 l 126 875 l 8 875 l 8 758 m 135 758 l 253 758 l 253 875 l 135 875 l 135 758 m 261 631 l 379 631 l 379 749 l 261 749 l 261 631 m 8 631 l 126 631 l 126 749 l 8 749 l 8 631 m 135 631 l 253 631 l 253 749 l 135 749 l 135 631 m 261 505 l 379 505 l 379 623 l 261 623 l 261 505 m 135 505 l 253 505 l 253 623 l 135 623 l 135 505 m 135 379 l 253 379 l 253 497 l 135 497 l 135 379 m 261 253 l 379 253 l 379 370 l 261 370 l 261 253 m 135 126 l 253 126 l 253 244 l 135 244 l 135 126 m 261 126 l 379 126 l 379 244 l 261 244 l 261 126 m 261 -126 l 379 -126 l 379 -8 l 261 -8 l 261 -126 m 135 -126 l 253 -126 l 253 -8 l 135 -8 l 135 -126 m 8 -126 l 126 -126 l 126 -8 l 8 -8 l 8 -126 m 135 -253 l 253 -253 l 253 -135 l 135 -135 l 135 -253 m 8 -253 l 126 -253 l 126 -135 l 8 -135 l 8 -253 m 379 -135 l 261 -135 l 261 -253 l 379 -253 l 379 -135 m 253 -379 l 253 -261 l 135 -261 l 135 -379 l 253 -379 m 379 -379 l 379 -261 l 261 -261 l 261 -379 l 379 -379 z "},"M":{"ha":758,"x_min":0,"x_max":758,"o":"m 758 -387 l 0 -387 l 0 -261 l 8 -261 l 8 -379 l 126 -379 l 126 -261 l 0 -261 l 0 1010 l 758 1010 l 758 1002 l 640 1002 l 640 884 l 758 884 l 758 875 l 640 875 l 640 758 l 758 758 l 758 749 l 640 749 l 640 631 l 758 631 l 758 623 l 640 623 l 640 505 l 758 505 l 758 497 l 640 497 l 640 379 l 758 379 l 758 370 l 640 370 l 640 253 l 758 253 l 758 244 l 640 244 l 640 126 l 758 126 l 758 118 l 640 118 l 640 0 l 758 0 l 758 -8 l 640 -8 l 640 -126 l 758 -126 l 758 -135 l 640 -135 l 640 -253 l 758 -253 l 758 -261 l 640 -261 l 640 -379 l 758 -379 l 758 -387 m 8 884 l 126 884 l 126 1002 l 8 1002 l 8 884 m 261 884 l 379 884 l 379 1002 l 261 1002 l 261 884 m 513 884 l 631 884 l 631 1002 l 513 1002 l 513 884 m 135 884 l 253 884 l 253 1002 l 135 1002 l 135 884 m 387 884 l 505 884 l 505 1002 l 387 1002 l 387 884 m 8 758 l 126 758 l 126 875 l 8 875 l 8 758 m 261 758 l 379 758 l 379 875 l 261 875 l 261 758 m 513 758 l 631 758 l 631 875 l 513 875 l 513 758 m 135 758 l 253 758 l 253 875 l 135 875 l 135 758 m 387 758 l 505 758 l 505 875 l 387 875 l 387 758 m 387 631 l 505 631 l 505 749 l 387 749 l 387 631 m 8 631 l 126 631 l 126 749 l 8 749 l 8 631 m 261 631 l 379 631 l 379 749 l 261 749 l 261 631 m 135 631 l 253 631 l 253 749 l 135 749 l 135 631 m 513 631 l 631 631 l 631 749 l 513 749 l 513 631 m 513 505 l 631 505 l 631 623 l 513 623 l 513 505 m 261 505 l 379 505 l 379 623 l 261 623 l 261 505 m 135 379 l 253 379 l 253 497 l 135 497 l 135 379 m 387 379 l 505 379 l 505 497 l 387 497 l 387 379 m 387 253 l 505 253 l 505 370 l 387 370 l 387 253 m 135 253 l 253 253 l 253 370 l 135 370 l 135 253 m 387 126 l 505 126 l 505 244 l 387 244 l 387 126 m 135 126 l 253 126 l 253 244 l 135 244 l 135 126 m 387 0 l 505 0 l 505 118 l 387 118 l 387 0 m 135 0 l 253 0 l 253 118 l 135 118 l 135 0 m 387 -126 l 505 -126 l 505 -8 l 387 -8 l 387 -126 m 8 -126 l 126 -126 l 126 -8 l 8 -8 l 8 -126 m 513 -126 l 631 -126 l 631 -8 l 513 -8 l 513 -126 m 261 -126 l 379 -126 l 379 -8 l 261 -8 l 261 -126 m 135 -126 l 253 -126 l 253 -8 l 135 -8 l 135 -126 m 631 -135 l 513 -135 l 513 -253 l 631 -253 l 631 -135 m 135 -253 l 253 -253 l 253 -135 l 135 -135 l 135 -253 m 261 -253 l 379 -253 l 379 -135 l 261 -135 l 261 -253 m 387 -253 l 505 -253 l 505 -135 l 387 -135 l 387 -253 m 8 -253 l 126 -253 l 126 -135 l 8 -135 l 8 -253 m 379 -379 l 379 -261 l 135 -261 l 135 -379 l 253 -379 l 253 -261 l 261 -261 l 261 -379 l 379 -379 m 505 -379 l 505 -261 l 387 -261 l 387 -379 l 505 -379 m 631 -379 l 631 -261 l 513 -261 l 513 -379 l 631 -379 z "},"N":{"ha":505,"x_min":0,"x_max":505,"o":"m 505 -387 l 0 -387 l 0 -261 l 8 -261 l 8 -379 l 126 -379 l 126 -261 l 0 -261 l 0 1010 l 505 1010 l 505 1002 l 387 1002 l 387 884 l 505 884 l 505 875 l 387 875 l 387 758 l 505 758 l 505 749 l 387 749 l 387 631 l 505 631 l 505 623 l 387 623 l 387 505 l 505 505 l 505 497 l 387 497 l 387 379 l 505 379 l 505 370 l 387 370 l 387 253 l 505 253 l 505 244 l 387 244 l 387 126 l 505 126 l 505 118 l 387 118 l 387 0 l 505 0 l 505 -8 l 387 -8 l 387 -126 l 505 -126 l 505 -135 l 387 -135 l 387 -253 l 505 -253 l 505 -261 l 387 -261 l 387 -379 l 505 -379 l 505 -387 m 261 884 l 379 884 l 379 1002 l 261 1002 l 261 884 m 8 884 l 126 884 l 126 1002 l 8 1002 l 8 884 m 135 884 l 253 884 l 253 1002 l 135 1002 l 135 884 m 261 758 l 379 758 l 379 875 l 261 875 l 261 758 m 8 758 l 126 758 l 126 875 l 8 875 l 8 758 m 135 758 l 253 758 l 253 875 l 135 875 l 135 758 m 261 631 l 379 631 l 379 749 l 261 749 l 261 631 m 8 631 l 126 631 l 126 749 l 8 749 l 8 631 m 135 631 l 253 631 l 253 749 l 135 749 l 135 631 m 261 505 l 379 505 l 379 623 l 261 623 l 261 505 m 135 379 l 253 379 l 253 497 l 135 497 l 135 379 m 135 253 l 253 253 l 253 370 l 135 370 l 135 253 m 135 126 l 253 126 l 253 244 l 135 244 l 135 126 m 135 0 l 253 0 l 253 118 l 135 118 l 135 0 m 261 -126 l 379 -126 l 379 -8 l 261 -8 l 261 -126 m 135 -126 l 253 -126 l 253 -8 l 135 -8 l 135 -126 m 8 -126 l 126 -126 l 126 -8 l 8 -8 l 8 -126 m 135 -253 l 253 -253 l 253 -135 l 135 -135 l 135 -253 m 8 -253 l 126 -253 l 126 -135 l 8 -135 l 8 -253 m 379 -135 l 261 -135 l 261 -253 l 379 -253 l 379 -135 m 253 -379 l 253 -261 l 135 -261 l 135 -379 l 253 -379 m 379 -379 l 379 -261 l 261 -261 l 261 -379 l 379 -379 z "},"Ń":{"ha":505,"x_min":0,"x_max":505,"o":"m 505 -387 l 0 -387 l 0 -261 l 8 -261 l 8 -379 l 126 -379 l 126 -261 l 0 -261 l 0 1010 l 505 1010 l 505 1002 l 387 1002 l 387 884 l 505 884 l 505 875 l 387 875 l 387 758 l 505 758 l 505 749 l 387 749 l 387 631 l 505 631 l 505 623 l 387 623 l 387 505 l 505 505 l 505 497 l 387 497 l 387 379 l 505 379 l 505 370 l 387 370 l 387 253 l 505 253 l 505 244 l 387 244 l 387 126 l 505 126 l 505 118 l 387 118 l 387 0 l 505 0 l 505 -8 l 387 -8 l 387 -126 l 505 -126 l 505 -135 l 387 -135 l 387 -253 l 505 -253 l 505 -261 l 387 -261 l 387 -379 l 505 -379 l 505 -387 m 261 884 l 379 884 l 379 1002 l 261 1002 l 261 884 m 8 884 l 126 884 l 126 1002 l 8 1002 l 8 884 m 135 884 l 253 884 l 253 1002 l 135 1002 l 135 884 m 261 758 l 379 758 l 379 875 l 261 875 l 261 758 m 8 758 l 126 758 l 126 875 l 8 875 l 8 758 m 135 758 l 253 758 l 253 875 l 135 875 l 135 758 m 261 631 l 379 631 l 379 749 l 261 749 l 261 631 m 8 631 l 126 631 l 126 749 l 8 749 l 8 631 m 135 631 l 253 631 l 253 749 l 135 749 l 135 631 m 261 505 l 379 505 l 379 623 l 261 623 l 261 505 m 135 379 l 253 379 l 253 497 l 135 497 l 135 379 m 135 253 l 253 253 l 253 370 l 135 370 l 135 253 m 135 126 l 253 126 l 253 244 l 135 244 l 135 126 m 135 0 l 253 0 l 253 118 l 135 118 l 135 0 m 261 -126 l 379 -126 l 379 -8 l 261 -8 l 261 -126 m 135 -126 l 253 -126 l 253 -8 l 135 -8 l 135 -126 m 8 -126 l 126 -126 l 126 -8 l 8 -8 l 8 -126 m 135 -253 l 253 -253 l 253 -135 l 135 -135 l 135 -253 m 8 -253 l 126 -253 l 126 -135 l 8 -135 l 8 -253 m 379 -135 l 261 -135 l 261 -253 l 379 -253 l 379 -135 m 253 -379 l 253 -261 l 135 -261 l 135 -379 l 253 -379 m 379 -379 l 379 -261 l 261 -261 l 261 -379 l 379 -379 m 0 884 l 126 884 l 126 758 l 0 758 l 0 884 m 126 1010 l 253 1010 l 253 884 l 126 884 l 126 1010 z "},"Ň":{"ha":505,"x_min":0,"x_max":505,"o":"m 505 -387 l 0 -387 l 0 -261 l 8 -261 l 8 -379 l 126 -379 l 126 -261 l 0 -261 l 0 1010 l 505 1010 l 505 1002 l 387 1002 l 387 884 l 505 884 l 505 875 l 387 875 l 387 758 l 505 758 l 505 749 l 387 749 l 387 631 l 505 631 l 505 623 l 387 623 l 387 505 l 505 505 l 505 497 l 387 497 l 387 379 l 505 379 l 505 370 l 387 370 l 387 253 l 505 253 l 505 244 l 387 244 l 387 126 l 505 126 l 505 118 l 387 118 l 387 0 l 505 0 l 505 -8 l 387 -8 l 387 -126 l 505 -126 l 505 -135 l 387 -135 l 387 -253 l 505 -253 l 505 -261 l 387 -261 l 387 -379 l 505 -379 l 505 -387 m 261 884 l 379 884 l 379 1002 l 261 1002 l 261 884 m 8 884 l 126 884 l 126 1002 l 8 1002 l 8 884 m 135 884 l 253 884 l 253 1002 l 135 1002 l 135 884 m 261 758 l 379 758 l 379 875 l 261 875 l 261 758 m 8 758 l 126 758 l 126 875 l 8 875 l 8 758 m 135 758 l 253 758 l 253 875 l 135 875 l 135 758 m 261 631 l 379 631 l 379 749 l 261 749 l 261 631 m 8 631 l 126 631 l 126 749 l 8 749 l 8 631 m 135 631 l 253 631 l 253 749 l 135 749 l 135 631 m 261 505 l 379 505 l 379 623 l 261 623 l 261 505 m 135 379 l 253 379 l 253 497 l 135 497 l 135 379 m 135 253 l 253 253 l 253 370 l 135 370 l 135 253 m 135 126 l 253 126 l 253 244 l 135 244 l 135 126 m 135 0 l 253 0 l 253 118 l 135 118 l 135 0 m 261 -126 l 379 -126 l 379 -8 l 261 -8 l 261 -126 m 135 -126 l 253 -126 l 253 -8 l 135 -8 l 135 -126 m 8 -126 l 126 -126 l 126 -8 l 8 -8 l 8 -126 m 135 -253 l 253 -253 l 253 -135 l 135 -135 l 135 -253 m 8 -253 l 126 -253 l 126 -135 l 8 -135 l 8 -253 m 379 -135 l 261 -135 l 261 -253 l 379 -253 l 379 -135 m 253 -379 l 253 -261 l 135 -261 l 135 -379 l 253 -379 m 379 -379 l 379 -261 l 261 -261 l 261 -379 l 379 -379 m 0 1010 l 126 1010 l 126 884 l 0 884 l 0 1010 m 126 884 l 253 884 l 253 758 l 126 758 l 126 884 m 253 1010 l 379 1010 l 379 884 l 253 884 l 253 1010 z "},"Ņ":{"ha":505,"x_min":0,"x_max":505,"o":"m 505 -387 l 0 -387 l 0 -261 l 8 -261 l 8 -379 l 126 -379 l 126 -261 l 0 -261 l 0 1010 l 505 1010 l 505 1002 l 387 1002 l 387 884 l 505 884 l 505 875 l 387 875 l 387 758 l 505 758 l 505 749 l 387 749 l 387 631 l 505 631 l 505 623 l 387 623 l 387 505 l 505 505 l 505 497 l 387 497 l 387 379 l 505 379 l 505 370 l 387 370 l 387 253 l 505 253 l 505 244 l 387 244 l 387 126 l 505 126 l 505 118 l 387 118 l 387 0 l 505 0 l 505 -8 l 387 -8 l 387 -126 l 505 -126 l 505 -135 l 387 -135 l 387 -253 l 505 -253 l 505 -261 l 387 -261 l 387 -379 l 505 -379 l 505 -387 m 261 884 l 379 884 l 379 1002 l 261 1002 l 261 884 m 8 884 l 126 884 l 126 1002 l 8 1002 l 8 884 m 135 884 l 253 884 l 253 1002 l 135 1002 l 135 884 m 261 758 l 379 758 l 379 875 l 261 875 l 261 758 m 8 758 l 126 758 l 126 875 l 8 875 l 8 758 m 135 758 l 253 758 l 253 875 l 135 875 l 135 758 m 261 631 l 379 631 l 379 749 l 261 749 l 261 631 m 8 631 l 126 631 l 126 749 l 8 749 l 8 631 m 135 631 l 253 631 l 253 749 l 135 749 l 135 631 m 261 505 l 379 505 l 379 623 l 261 623 l 261 505 m 135 379 l 253 379 l 253 497 l 135 497 l 135 379 m 135 253 l 253 253 l 253 370 l 135 370 l 135 253 m 135 126 l 253 126 l 253 244 l 135 244 l 135 126 m 135 0 l 253 0 l 253 118 l 135 118 l 135 0 m 261 -126 l 379 -126 l 379 -8 l 261 -8 l 261 -126 m 135 -126 l 253 -126 l 253 -8 l 135 -8 l 135 -126 m 8 -126 l 126 -126 l 126 -8 l 8 -8 l 8 -126 m 135 -253 l 253 -253 l 253 -135 l 135 -135 l 135 -253 m 8 -253 l 126 -253 l 126 -135 l 8 -135 l 8 -253 m 379 -135 l 261 -135 l 261 -253 l 379 -253 l 379 -135 m 253 -379 l 253 -261 l 135 -261 l 135 -379 l 253 -379 m 379 -379 l 379 -261 l 261 -261 l 261 -379 l 379 -379 m 126 -126 l 253 -126 l 253 -253 l 126 -253 l 126 -126 z "},"Ñ":{"ha":505,"x_min":-126,"x_max":505,"o":"m 505 -387 l 0 -387 l 0 -261 l 8 -261 l 8 -379 l 126 -379 l 126 -261 l 0 -261 l 0 1010 l 505 1010 l 505 1002 l 387 1002 l 387 884 l 505 884 l 505 875 l 387 875 l 387 758 l 505 758 l 505 749 l 387 749 l 387 631 l 505 631 l 505 623 l 387 623 l 387 505 l 505 505 l 505 497 l 387 497 l 387 379 l 505 379 l 505 370 l 387 370 l 387 253 l 505 253 l 505 244 l 387 244 l 387 126 l 505 126 l 505 118 l 387 118 l 387 0 l 505 0 l 505 -8 l 387 -8 l 387 -126 l 505 -126 l 505 -135 l 387 -135 l 387 -253 l 505 -253 l 505 -261 l 387 -261 l 387 -379 l 505 -379 l 505 -387 m 261 884 l 379 884 l 379 1002 l 261 1002 l 261 884 m 8 884 l 126 884 l 126 1002 l 8 1002 l 8 884 m 135 884 l 253 884 l 253 1002 l 135 1002 l 135 884 m 261 758 l 379 758 l 379 875 l 261 875 l 261 758 m 8 758 l 126 758 l 126 875 l 8 875 l 8 758 m 135 758 l 253 758 l 253 875 l 135 875 l 135 758 m 261 631 l 379 631 l 379 749 l 261 749 l 261 631 m 8 631 l 126 631 l 126 749 l 8 749 l 8 631 m 135 631 l 253 631 l 253 749 l 135 749 l 135 631 m 261 505 l 379 505 l 379 623 l 261 623 l 261 505 m 135 379 l 253 379 l 253 497 l 135 497 l 135 379 m 135 253 l 253 253 l 253 370 l 135 370 l 135 253 m 135 126 l 253 126 l 253 244 l 135 244 l 135 126 m 135 0 l 253 0 l 253 118 l 135 118 l 135 0 m 261 -126 l 379 -126 l 379 -8 l 261 -8 l 261 -126 m 135 -126 l 253 -126 l 253 -8 l 135 -8 l 135 -126 m 8 -126 l 126 -126 l 126 -8 l 8 -8 l 8 -126 m 135 -253 l 253 -253 l 253 -135 l 135 -135 l 135 -253 m 8 -253 l 126 -253 l 126 -135 l 8 -135 l 8 -253 m 379 -135 l 261 -135 l 261 -253 l 379 -253 l 379 -135 m 253 -379 l 253 -261 l 135 -261 l 135 -379 l 253 -379 m 379 -379 l 379 -261 l 261 -261 l 261 -379 l 379 -379 m -126 884 l 0 884 l 0 758 l -126 758 l -126 884 m 0 1010 l 126 1010 l 126 884 l 0 884 l 0 1010 m 126 884 l 253 884 l 253 758 l 126 758 l 126 884 m 253 1010 l 379 1010 l 379 884 l 253 884 l 253 1010 m -126 1010 l 0 1010 l 0 884 l -126 884 l -126 1010 m 253 884 l 379 884 l 379 758 l 253 758 l 253 884 z "},"Ŋ":{"ha":505,"x_min":0,"x_max":505,"o":"m 505 -387 l 0 -387 l 0 -261 l 8 -261 l 8 -379 l 126 -379 l 126 -261 l 0 -261 l 0 1010 l 505 1010 l 505 1002 l 387 1002 l 387 884 l 505 884 l 505 875 l 387 875 l 387 758 l 505 758 l 505 749 l 387 749 l 387 631 l 505 631 l 505 623 l 387 623 l 387 505 l 505 505 l 505 497 l 387 497 l 387 379 l 505 379 l 505 370 l 387 370 l 387 253 l 505 253 l 505 244 l 387 244 l 387 126 l 505 126 l 505 118 l 387 118 l 387 0 l 505 0 l 505 -8 l 387 -8 l 387 -126 l 505 -126 l 505 -135 l 387 -135 l 387 -253 l 505 -253 l 505 -261 l 387 -261 l 387 -379 l 505 -379 l 505 -387 m 261 884 l 379 884 l 379 1002 l 261 1002 l 261 884 m 8 884 l 126 884 l 126 1002 l 8 1002 l 8 884 m 135 884 l 253 884 l 253 1002 l 135 1002 l 135 884 m 261 758 l 379 758 l 379 875 l 261 875 l 261 758 m 8 758 l 126 758 l 126 875 l 8 875 l 8 758 m 135 758 l 253 758 l 253 875 l 135 875 l 135 758 m 8 631 l 126 631 l 126 749 l 8 749 l 8 631 m 261 631 l 379 631 l 379 749 l 261 749 l 261 631 m 135 631 l 253 631 l 253 749 l 135 749 l 135 631 m 261 505 l 379 505 l 379 623 l 261 623 l 261 505 m 135 379 l 253 379 l 253 497 l 135 497 l 135 379 m 135 253 l 253 253 l 253 370 l 135 370 l 135 253 m 135 126 l 253 126 l 253 244 l 135 244 l 135 126 m 135 0 l 253 0 l 253 118 l 135 118 l 135 0 m 135 -126 l 253 -126 l 253 -8 l 135 -8 l 135 -126 m 8 -126 l 126 -126 l 126 -8 l 8 -8 l 8 -126 m 135 -253 l 253 -253 l 253 -135 l 135 -135 l 135 -253 m 8 -253 l 126 -253 l 126 -135 l 8 -135 l 8 -253 m 379 -135 l 261 -135 l 261 -253 l 379 -253 l 379 -135 m 379 -379 l 379 -261 l 135 -261 l 135 -379 l 253 -379 l 253 -261 l 261 -261 l 261 -379 l 379 -379 z "},"O":{"ha":505,"x_min":0,"x_max":505,"o":"m 505 -387 l 0 -387 l 0 -261 l 8 -261 l 8 -379 l 126 -379 l 126 -261 l 0 -261 l 0 1010 l 505 1010 l 505 1002 l 387 1002 l 387 884 l 505 884 l 505 875 l 387 875 l 387 758 l 505 758 l 505 749 l 387 749 l 387 631 l 505 631 l 505 623 l 387 623 l 387 505 l 505 505 l 505 497 l 387 497 l 387 379 l 505 379 l 505 370 l 387 370 l 387 253 l 505 253 l 505 244 l 387 244 l 387 126 l 505 126 l 505 118 l 387 118 l 387 0 l 505 0 l 505 -8 l 387 -8 l 387 -126 l 505 -126 l 505 -135 l 387 -135 l 387 -253 l 505 -253 l 505 -261 l 387 -261 l 387 -379 l 505 -379 l 505 -387 m 261 884 l 379 884 l 379 1002 l 261 1002 l 261 884 m 8 884 l 126 884 l 126 1002 l 8 1002 l 8 884 m 135 884 l 253 884 l 253 1002 l 135 1002 l 135 884 m 261 758 l 379 758 l 379 875 l 261 875 l 261 758 m 8 758 l 126 758 l 126 875 l 8 875 l 8 758 m 135 758 l 253 758 l 253 875 l 135 875 l 135 758 m 261 631 l 379 631 l 379 749 l 261 749 l 261 631 m 8 631 l 126 631 l 126 749 l 8 749 l 8 631 m 135 631 l 253 631 l 253 749 l 135 749 l 135 631 m 135 379 l 253 379 l 253 497 l 135 497 l 135 379 m 135 253 l 253 253 l 253 370 l 135 370 l 135 253 m 135 126 l 253 126 l 253 244 l 135 244 l 135 126 m 261 -126 l 379 -126 l 379 -8 l 261 -8 l 261 -126 m 135 -126 l 253 -126 l 253 -8 l 135 -8 l 135 -126 m 8 -126 l 126 -126 l 126 -8 l 8 -8 l 8 -126 m 135 -253 l 253 -253 l 253 -135 l 135 -135 l 135 -253 m 8 -253 l 126 -253 l 126 -135 l 8 -135 l 8 -253 m 379 -135 l 261 -135 l 261 -253 l 379 -253 l 379 -135 m 253 -379 l 253 -261 l 135 -261 l 135 -379 l 253 -379 m 379 -379 l 379 -261 l 261 -261 l 261 -379 l 379 -379 z "},"Ó":{"ha":505,"x_min":0,"x_max":505,"o":"m 505 -387 l 0 -387 l 0 -261 l 8 -261 l 8 -379 l 126 -379 l 126 -261 l 135 -261 l 135 -379 l 253 -379 l 253 -261 l 261 -261 l 261 -379 l 379 -379 l 379 -261 l 0 -261 l 0 1010 l 505 1010 l 505 1002 l 387 1002 l 387 884 l 505 884 l 505 875 l 387 875 l 387 758 l 505 758 l 505 749 l 387 749 l 387 631 l 505 631 l 505 623 l 387 623 l 387 505 l 505 505 l 505 497 l 387 497 l 387 379 l 505 379 l 505 370 l 387 370 l 387 253 l 505 253 l 505 244 l 387 244 l 387 126 l 505 126 l 505 118 l 387 118 l 387 0 l 505 0 l 505 -8 l 387 -8 l 387 -126 l 505 -126 l 505 -135 l 387 -135 l 387 -253 l 505 -253 l 505 -261 l 387 -261 l 387 -379 l 505 -379 l 505 -387 m 8 884 l 126 884 l 126 1002 l 8 1002 l 8 884 m 135 884 l 253 884 l 253 1002 l 135 1002 l 135 884 m 8 758 l 126 758 l 126 875 l 8 875 l 8 758 m 261 758 l 379 758 l 379 875 l 261 875 l 261 758 m 8 631 l 126 631 l 126 749 l 8 749 l 8 631 m 135 631 l 253 631 l 253 749 l 135 749 l 135 631 m 261 631 l 379 631 l 379 749 l 261 749 l 261 631 m 135 379 l 253 379 l 253 497 l 135 497 l 135 379 m 135 253 l 253 253 l 253 370 l 135 370 l 135 253 m 135 126 l 253 126 l 253 244 l 135 244 l 135 126 m 8 -126 l 126 -126 l 126 -8 l 8 -8 l 8 -126 m 135 -126 l 253 -126 l 253 -8 l 135 -8 l 135 -126 m 261 -126 l 379 -126 l 379 -8 l 261 -8 l 261 -126 m 379 -135 l 261 -135 l 261 -253 l 379 -253 l 379 -135 m 8 -253 l 126 -253 l 126 -135 l 8 -135 l 8 -253 m 135 -253 l 253 -253 l 253 -135 l 135 -135 l 135 -253 z "},"Ô":{"ha":505,"x_min":0,"x_max":505,"o":"m 505 -387 l 0 -387 l 0 -261 l 8 -261 l 8 -379 l 126 -379 l 126 -261 l 0 -261 l 0 1010 l 505 1010 l 505 1002 l 387 1002 l 387 884 l 505 884 l 505 875 l 387 875 l 387 758 l 505 758 l 505 749 l 387 749 l 387 631 l 505 631 l 505 623 l 387 623 l 387 505 l 505 505 l 505 497 l 387 497 l 387 379 l 505 379 l 505 370 l 387 370 l 387 253 l 505 253 l 505 244 l 387 244 l 387 126 l 505 126 l 505 118 l 387 118 l 387 0 l 505 0 l 505 -8 l 387 -8 l 387 -126 l 505 -126 l 505 -135 l 387 -135 l 387 -253 l 505 -253 l 505 -261 l 387 -261 l 387 -379 l 505 -379 l 505 -387 m 261 884 l 379 884 l 379 1002 l 261 1002 l 261 884 m 8 884 l 126 884 l 126 1002 l 8 1002 l 8 884 m 135 884 l 253 884 l 253 1002 l 135 1002 l 135 884 m 261 758 l 379 758 l 379 875 l 261 875 l 261 758 m 8 758 l 126 758 l 126 875 l 8 875 l 8 758 m 135 758 l 253 758 l 253 875 l 135 875 l 135 758 m 261 631 l 379 631 l 379 749 l 261 749 l 261 631 m 8 631 l 126 631 l 126 749 l 8 749 l 8 631 m 135 631 l 253 631 l 253 749 l 135 749 l 135 631 m 135 379 l 253 379 l 253 497 l 135 497 l 135 379 m 135 253 l 253 253 l 253 370 l 135 370 l 135 253 m 135 126 l 253 126 l 253 244 l 135 244 l 135 126 m 261 -126 l 379 -126 l 379 -8 l 261 -8 l 261 -126 m 135 -126 l 253 -126 l 253 -8 l 135 -8 l 135 -126 m 8 -126 l 126 -126 l 126 -8 l 8 -8 l 8 -126 m 135 -253 l 253 -253 l 253 -135 l 135 -135 l 135 -253 m 8 -253 l 126 -253 l 126 -135 l 8 -135 l 8 -253 m 379 -135 l 261 -135 l 261 -253 l 379 -253 l 379 -135 m 253 -379 l 253 -261 l 135 -261 l 135 -379 l 253 -379 m 379 -379 l 379 -261 l 261 -261 l 261 -379 l 379 -379 m 126 1010 l 253 1010 l 253 884 l 126 884 l 126 1010 m 0 884 l 126 884 l 126 758 l 0 758 l 0 884 m 253 884 l 379 884 l 379 758 l 253 758 l 253 884 z "},"Ö":{"ha":505,"x_min":0,"x_max":505,"o":"m 505 -387 l 0 -387 l 0 -261 l 8 -261 l 8 -379 l 126 -379 l 126 -261 l 0 -261 l 0 1010 l 505 1010 l 505 1002 l 387 1002 l 387 884 l 505 884 l 505 875 l 387 875 l 387 758 l 505 758 l 505 749 l 387 749 l 387 631 l 505 631 l 505 623 l 387 623 l 387 505 l 505 505 l 505 497 l 387 497 l 387 379 l 505 379 l 505 370 l 387 370 l 387 253 l 505 253 l 505 244 l 387 244 l 387 126 l 505 126 l 505 118 l 387 118 l 387 0 l 505 0 l 505 -8 l 387 -8 l 387 -126 l 505 -126 l 505 -135 l 387 -135 l 387 -253 l 505 -253 l 505 -261 l 387 -261 l 387 -379 l 505 -379 l 505 -387 m 261 884 l 379 884 l 379 1002 l 261 1002 l 261 884 m 8 884 l 126 884 l 126 1002 l 8 1002 l 8 884 m 135 884 l 253 884 l 253 1002 l 135 1002 l 135 884 m 261 758 l 379 758 l 379 875 l 261 875 l 261 758 m 8 758 l 126 758 l 126 875 l 8 875 l 8 758 m 135 758 l 253 758 l 253 875 l 135 875 l 135 758 m 261 631 l 379 631 l 379 749 l 261 749 l 261 631 m 8 631 l 126 631 l 126 749 l 8 749 l 8 631 m 135 631 l 253 631 l 253 749 l 135 749 l 135 631 m 135 379 l 253 379 l 253 497 l 135 497 l 135 379 m 135 253 l 253 253 l 253 370 l 135 370 l 135 253 m 135 126 l 253 126 l 253 244 l 135 244 l 135 126 m 261 -126 l 379 -126 l 379 -8 l 261 -8 l 261 -126 m 135 -126 l 253 -126 l 253 -8 l 135 -8 l 135 -126 m 8 -126 l 126 -126 l 126 -8 l 8 -8 l 8 -126 m 135 -253 l 253 -253 l 253 -135 l 135 -135 l 135 -253 m 8 -253 l 126 -253 l 126 -135 l 8 -135 l 8 -253 m 379 -135 l 261 -135 l 261 -253 l 379 -253 l 379 -135 m 253 -379 l 253 -261 l 135 -261 l 135 -379 l 253 -379 m 379 -379 l 379 -261 l 261 -261 l 261 -379 l 379 -379 m 0 884 l 126 884 l 126 758 l 0 758 l 0 884 m 253 884 l 379 884 l 379 758 l 253 758 l 253 884 z "},"Ò":{"ha":505,"x_min":0,"x_max":505,"o":"m 505 -387 l 0 -387 l 0 -261 l 8 -261 l 8 -379 l 126 -379 l 126 -261 l 0 -261 l 0 1010 l 505 1010 l 505 1002 l 387 1002 l 387 884 l 505 884 l 505 875 l 387 875 l 387 758 l 505 758 l 505 749 l 387 749 l 387 631 l 505 631 l 505 623 l 387 623 l 387 505 l 505 505 l 505 497 l 387 497 l 387 379 l 505 379 l 505 370 l 387 370 l 387 253 l 505 253 l 505 244 l 387 244 l 387 126 l 505 126 l 505 118 l 387 118 l 387 0 l 505 0 l 505 -8 l 387 -8 l 387 -126 l 505 -126 l 505 -135 l 387 -135 l 387 -253 l 505 -253 l 505 -261 l 387 -261 l 387 -379 l 505 -379 l 505 -387 m 261 884 l 379 884 l 379 1002 l 261 1002 l 261 884 m 8 884 l 126 884 l 126 1002 l 8 1002 l 8 884 m 135 884 l 253 884 l 253 1002 l 135 1002 l 135 884 m 261 758 l 379 758 l 379 875 l 261 875 l 261 758 m 8 758 l 126 758 l 126 875 l 8 875 l 8 758 m 135 758 l 253 758 l 253 875 l 135 875 l 135 758 m 261 631 l 379 631 l 379 749 l 261 749 l 261 631 m 8 631 l 126 631 l 126 749 l 8 749 l 8 631 m 135 631 l 253 631 l 253 749 l 135 749 l 135 631 m 135 379 l 253 379 l 253 497 l 135 497 l 135 379 m 135 253 l 253 253 l 253 370 l 135 370 l 135 253 m 135 126 l 253 126 l 253 244 l 135 244 l 135 126 m 261 -126 l 379 -126 l 379 -8 l 261 -8 l 261 -126 m 135 -126 l 253 -126 l 253 -8 l 135 -8 l 135 -126 m 8 -126 l 126 -126 l 126 -8 l 8 -8 l 8 -126 m 135 -253 l 253 -253 l 253 -135 l 135 -135 l 135 -253 m 8 -253 l 126 -253 l 126 -135 l 8 -135 l 8 -253 m 379 -135 l 261 -135 l 261 -253 l 379 -253 l 379 -135 m 253 -379 l 253 -261 l 135 -261 l 135 -379 l 253 -379 m 379 -379 l 379 -261 l 261 -261 l 261 -379 l 379 -379 m 126 884 l 253 884 l 253 758 l 126 758 l 126 884 m 0 1010 l 126 1010 l 126 884 l 0 884 l 0 1010 z "},"Ő":{"ha":505,"x_min":-126,"x_max":505,"o":"m 505 -387 l 0 -387 l 0 -261 l 8 -261 l 8 -379 l 126 -379 l 126 -261 l 0 -261 l 0 1010 l 505 1010 l 505 1002 l 387 1002 l 387 884 l 505 884 l 505 875 l 387 875 l 387 758 l 505 758 l 505 749 l 387 749 l 387 631 l 505 631 l 505 623 l 387 623 l 387 505 l 505 505 l 505 497 l 387 497 l 387 379 l 505 379 l 505 370 l 387 370 l 387 253 l 505 253 l 505 244 l 387 244 l 387 126 l 505 126 l 505 118 l 387 118 l 387 0 l 505 0 l 505 -8 l 387 -8 l 387 -126 l 505 -126 l 505 -135 l 387 -135 l 387 -253 l 505 -253 l 505 -261 l 387 -261 l 387 -379 l 505 -379 l 505 -387 m 261 884 l 379 884 l 379 1002 l 261 1002 l 261 884 m 8 884 l 126 884 l 126 1002 l 8 1002 l 8 884 m 135 884 l 253 884 l 253 1002 l 135 1002 l 135 884 m 261 758 l 379 758 l 379 875 l 261 875 l 261 758 m 8 758 l 126 758 l 126 875 l 8 875 l 8 758 m 135 758 l 253 758 l 253 875 l 135 875 l 135 758 m 261 631 l 379 631 l 379 749 l 261 749 l 261 631 m 8 631 l 126 631 l 126 749 l 8 749 l 8 631 m 135 631 l 253 631 l 253 749 l 135 749 l 135 631 m 135 379 l 253 379 l 253 497 l 135 497 l 135 379 m 135 253 l 253 253 l 253 370 l 135 370 l 135 253 m 135 126 l 253 126 l 253 244 l 135 244 l 135 126 m 261 -126 l 379 -126 l 379 -8 l 261 -8 l 261 -126 m 135 -126 l 253 -126 l 253 -8 l 135 -8 l 135 -126 m 8 -126 l 126 -126 l 126 -8 l 8 -8 l 8 -126 m 135 -253 l 253 -253 l 253 -135 l 135 -135 l 135 -253 m 8 -253 l 126 -253 l 126 -135 l 8 -135 l 8 -253 m 379 -135 l 261 -135 l 261 -253 l 379 -253 l 379 -135 m 253 -379 l 253 -261 l 135 -261 l 135 -379 l 253 -379 m 379 -379 l 379 -261 l 261 -261 l 261 -379 l 379 -379 m -126 884 l 0 884 l 0 758 l -126 758 l -126 884 m 0 1010 l 126 1010 l 126 884 l 0 884 l 0 1010 m 126 884 l 253 884 l 253 758 l 126 758 l 126 884 m 253 1010 l 379 1010 l 379 884 l 253 884 l 253 1010 z "},"Ō":{"ha":505,"x_min":0,"x_max":505,"o":"m 505 -387 l 0 -387 l 0 -261 l 8 -261 l 8 -379 l 126 -379 l 126 -261 l 0 -261 l 0 1010 l 505 1010 l 505 1002 l 387 1002 l 387 884 l 505 884 l 505 875 l 387 875 l 387 758 l 505 758 l 505 749 l 387 749 l 387 631 l 505 631 l 505 623 l 387 623 l 387 505 l 505 505 l 505 497 l 387 497 l 387 379 l 505 379 l 505 370 l 387 370 l 387 253 l 505 253 l 505 244 l 387 244 l 387 126 l 505 126 l 505 118 l 387 118 l 387 0 l 505 0 l 505 -8 l 387 -8 l 387 -126 l 505 -126 l 505 -135 l 387 -135 l 387 -253 l 505 -253 l 505 -261 l 387 -261 l 387 -379 l 505 -379 l 505 -387 m 261 884 l 379 884 l 379 1002 l 261 1002 l 261 884 m 8 884 l 126 884 l 126 1002 l 8 1002 l 8 884 m 135 884 l 253 884 l 253 1002 l 135 1002 l 135 884 m 261 758 l 379 758 l 379 875 l 261 875 l 261 758 m 8 758 l 126 758 l 126 875 l 8 875 l 8 758 m 135 758 l 253 758 l 253 875 l 135 875 l 135 758 m 261 631 l 379 631 l 379 749 l 261 749 l 261 631 m 8 631 l 126 631 l 126 749 l 8 749 l 8 631 m 135 631 l 253 631 l 253 749 l 135 749 l 135 631 m 135 379 l 253 379 l 253 497 l 135 497 l 135 379 m 135 253 l 253 253 l 253 370 l 135 370 l 135 253 m 135 126 l 253 126 l 253 244 l 135 244 l 135 126 m 261 -126 l 379 -126 l 379 -8 l 261 -8 l 261 -126 m 135 -126 l 253 -126 l 253 -8 l 135 -8 l 135 -126 m 8 -126 l 126 -126 l 126 -8 l 8 -8 l 8 -126 m 135 -253 l 253 -253 l 253 -135 l 135 -135 l 135 -253 m 8 -253 l 126 -253 l 126 -135 l 8 -135 l 8 -253 m 379 -135 l 261 -135 l 261 -253 l 379 -253 l 379 -135 m 253 -379 l 253 -261 l 135 -261 l 135 -379 l 253 -379 m 379 -379 l 379 -261 l 261 -261 l 261 -379 l 379 -379 m 0 884 l 126 884 l 126 758 l 0 758 l 0 884 m 126 884 l 253 884 l 253 758 l 126 758 l 126 884 m 253 884 l 379 884 l 379 758 l 253 758 l 253 884 z "},"Ø":{"ha":758,"x_min":0,"x_max":758,"o":"m 758 -387 l 0 -387 l 0 -261 l 8 -261 l 8 -379 l 126 -379 l 126 -261 l 0 -261 l 0 1010 l 758 1010 l 758 1002 l 640 1002 l 640 884 l 758 884 l 758 875 l 640 875 l 640 758 l 758 758 l 758 749 l 640 749 l 640 631 l 758 631 l 758 623 l 640 623 l 640 505 l 758 505 l 758 497 l 640 497 l 640 379 l 758 379 l 758 370 l 640 370 l 640 253 l 758 253 l 758 244 l 640 244 l 640 126 l 758 126 l 758 118 l 640 118 l 640 0 l 758 0 l 758 -8 l 640 -8 l 640 -126 l 758 -126 l 758 -135 l 640 -135 l 640 -253 l 758 -253 l 758 -261 l 640 -261 l 640 -379 l 758 -379 l 758 -387 m 8 884 l 126 884 l 126 1002 l 8 1002 l 8 884 m 261 884 l 379 884 l 379 1002 l 261 1002 l 261 884 m 513 884 l 631 884 l 631 1002 l 513 1002 l 513 884 m 135 884 l 253 884 l 253 1002 l 135 1002 l 135 884 m 387 884 l 505 884 l 505 1002 l 387 1002 l 387 884 m 8 758 l 126 758 l 126 875 l 8 875 l 8 758 m 261 758 l 379 758 l 379 875 l 261 875 l 261 758 m 513 758 l 631 758 l 631 875 l 513 875 l 513 758 m 135 758 l 253 758 l 253 875 l 135 875 l 135 758 m 387 758 l 505 758 l 505 875 l 387 875 l 387 758 m 387 631 l 505 631 l 505 749 l 387 749 l 387 631 m 8 631 l 126 631 l 126 749 l 8 749 l 8 631 m 261 631 l 379 631 l 379 749 l 261 749 l 261 631 m 135 631 l 253 631 l 253 749 l 135 749 l 135 631 m 513 631 l 631 631 l 631 749 l 513 749 l 513 631 m 8 505 l 126 505 l 126 623 l 8 623 l 8 505 m 261 379 l 379 379 l 379 497 l 261 497 l 261 379 m 513 379 l 631 379 l 631 497 l 513 497 l 513 379 m 8 379 l 126 379 l 126 497 l 8 497 l 8 379 m 513 253 l 631 253 l 631 370 l 513 370 l 513 253 m 8 253 l 126 253 l 126 370 l 8 370 l 8 253 m 261 126 l 379 126 l 379 244 l 261 244 l 261 126 m 513 126 l 631 126 l 631 244 l 513 244 l 513 126 m 8 126 l 126 126 l 126 244 l 8 244 l 8 126 m 513 0 l 631 0 l 631 118 l 513 118 l 513 0 m 387 -126 l 505 -126 l 505 -8 l 387 -8 l 387 -126 m 8 -126 l 126 -126 l 126 -8 l 8 -8 l 8 -126 m 513 -126 l 631 -126 l 631 -8 l 513 -8 l 513 -126 m 261 -126 l 379 -126 l 379 -8 l 261 -8 l 261 -126 m 135 -126 l 253 -126 l 253 -8 l 135 -8 l 135 -126 m 631 -135 l 513 -135 l 513 -253 l 631 -253 l 631 -135 m 135 -253 l 253 -253 l 253 -135 l 135 -135 l 135 -253 m 261 -253 l 379 -253 l 379 -135 l 261 -135 l 261 -253 m 387 -253 l 505 -253 l 505 -135 l 387 -135 l 387 -253 m 8 -253 l 126 -253 l 126 -135 l 8 -135 l 8 -253 m 379 -379 l 379 -261 l 135 -261 l 135 -379 l 253 -379 l 253 -261 l 261 -261 l 261 -379 l 379 -379 m 505 -379 l 505 -261 l 387 -261 l 387 -379 l 505 -379 m 631 -379 l 631 -261 l 513 -261 l 513 -379 l 631 -379 z "},"Õ":{"ha":505,"x_min":-126,"x_max":505,"o":"m 505 -387 l 0 -387 l 0 -261 l 8 -261 l 8 -379 l 126 -379 l 126 -261 l 0 -261 l 0 1010 l 505 1010 l 505 1002 l 387 1002 l 387 884 l 505 884 l 505 875 l 387 875 l 387 758 l 505 758 l 505 749 l 387 749 l 387 631 l 505 631 l 505 623 l 387 623 l 387 505 l 505 505 l 505 497 l 387 497 l 387 379 l 505 379 l 505 370 l 387 370 l 387 253 l 505 253 l 505 244 l 387 244 l 387 126 l 505 126 l 505 118 l 387 118 l 387 0 l 505 0 l 505 -8 l 387 -8 l 387 -126 l 505 -126 l 505 -135 l 387 -135 l 387 -253 l 505 -253 l 505 -261 l 387 -261 l 387 -379 l 505 -379 l 505 -387 m 261 884 l 379 884 l 379 1002 l 261 1002 l 261 884 m 8 884 l 126 884 l 126 1002 l 8 1002 l 8 884 m 135 884 l 253 884 l 253 1002 l 135 1002 l 135 884 m 261 758 l 379 758 l 379 875 l 261 875 l 261 758 m 8 758 l 126 758 l 126 875 l 8 875 l 8 758 m 135 758 l 253 758 l 253 875 l 135 875 l 135 758 m 261 631 l 379 631 l 379 749 l 261 749 l 261 631 m 8 631 l 126 631 l 126 749 l 8 749 l 8 631 m 135 631 l 253 631 l 253 749 l 135 749 l 135 631 m 135 379 l 253 379 l 253 497 l 135 497 l 135 379 m 135 253 l 253 253 l 253 370 l 135 370 l 135 253 m 135 126 l 253 126 l 253 244 l 135 244 l 135 126 m 261 -126 l 379 -126 l 379 -8 l 261 -8 l 261 -126 m 135 -126 l 253 -126 l 253 -8 l 135 -8 l 135 -126 m 8 -126 l 126 -126 l 126 -8 l 8 -8 l 8 -126 m 135 -253 l 253 -253 l 253 -135 l 135 -135 l 135 -253 m 8 -253 l 126 -253 l 126 -135 l 8 -135 l 8 -253 m 379 -135 l 261 -135 l 261 -253 l 379 -253 l 379 -135 m 253 -379 l 253 -261 l 135 -261 l 135 -379 l 253 -379 m 379 -379 l 379 -261 l 261 -261 l 261 -379 l 379 -379 m -126 884 l 0 884 l 0 758 l -126 758 l -126 884 m 0 1010 l 126 1010 l 126 884 l 0 884 l 0 1010 m 126 884 l 253 884 l 253 758 l 126 758 l 126 884 m 253 1010 l 379 1010 l 379 884 l 253 884 l 253 1010 m -126 1010 l 0 1010 l 0 884 l -126 884 l -126 1010 m 253 884 l 379 884 l 379 758 l 253 758 l 253 884 z "},"Œ":{"ha":758,"x_min":0,"x_max":758,"o":"m 758 -387 l 0 -387 l 0 -261 l 8 -261 l 8 -379 l 126 -379 l 126 -261 l 0 -261 l 0 1010 l 758 1010 l 758 1002 l 640 1002 l 640 884 l 758 884 l 758 875 l 640 875 l 640 758 l 758 758 l 758 749 l 640 749 l 640 631 l 758 631 l 758 623 l 640 623 l 640 505 l 758 505 l 758 497 l 640 497 l 640 379 l 758 379 l 758 370 l 640 370 l 640 253 l 758 253 l 758 244 l 640 244 l 640 126 l 758 126 l 758 118 l 640 118 l 640 0 l 758 0 l 758 -8 l 640 -8 l 640 -126 l 758 -126 l 758 -135 l 640 -135 l 640 -253 l 758 -253 l 758 -261 l 640 -261 l 640 -379 l 758 -379 l 758 -387 m 8 884 l 126 884 l 126 1002 l 8 1002 l 8 884 m 513 884 l 631 884 l 631 1002 l 513 1002 l 513 884 m 387 884 l 505 884 l 505 1002 l 387 1002 l 387 884 m 135 884 l 253 884 l 253 1002 l 135 1002 l 135 884 m 261 884 l 379 884 l 379 1002 l 261 1002 l 261 884 m 8 758 l 126 758 l 126 875 l 8 875 l 8 758 m 513 758 l 631 758 l 631 875 l 513 875 l 513 758 m 387 758 l 505 758 l 505 875 l 387 875 l 387 758 m 135 758 l 253 758 l 253 875 l 135 875 l 135 758 m 261 758 l 379 758 l 379 875 l 261 875 l 261 758 m 8 631 l 126 631 l 126 749 l 8 749 l 8 631 m 513 631 l 631 631 l 631 749 l 513 749 l 513 631 m 135 631 l 253 631 l 253 749 l 135 749 l 135 631 m 387 631 l 505 631 l 505 749 l 387 749 l 387 631 m 261 631 l 379 631 l 379 749 l 261 749 l 261 631 m 513 379 l 631 379 l 631 497 l 513 497 l 513 379 m 135 379 l 253 379 l 253 497 l 135 497 l 135 379 m 387 379 l 505 379 l 505 497 l 387 497 l 387 379 m 135 253 l 253 253 l 253 370 l 135 370 l 135 253 m 513 253 l 631 253 l 631 370 l 513 370 l 513 253 m 387 126 l 505 126 l 505 244 l 387 244 l 387 126 m 513 126 l 631 126 l 631 244 l 513 244 l 513 126 m 135 126 l 253 126 l 253 244 l 135 244 l 135 126 m 261 -126 l 379 -126 l 379 -8 l 261 -8 l 261 -126 m 387 -126 l 505 -126 l 505 -8 l 387 -8 l 387 -126 m 513 -126 l 631 -126 l 631 -8 l 513 -8 l 513 -126 m 135 -126 l 253 -126 l 253 -8 l 135 -8 l 135 -126 m 8 -126 l 126 -126 l 126 -8 l 8 -8 l 8 -126 m 631 -135 l 513 -135 l 513 -253 l 631 -253 l 631 -135 m 135 -253 l 253 -253 l 253 -135 l 135 -135 l 135 -253 m 261 -253 l 379 -253 l 379 -135 l 261 -135 l 261 -253 m 387 -253 l 505 -253 l 505 -135 l 387 -135 l 387 -253 m 8 -253 l 126 -253 l 126 -135 l 8 -135 l 8 -253 m 253 -379 l 253 -261 l 135 -261 l 135 -379 l 253 -379 m 379 -379 l 379 -261 l 261 -261 l 261 -379 l 379 -379 m 505 -379 l 505 -261 l 387 -261 l 387 -379 l 505 -379 m 631 -379 l 631 -261 l 513 -261 l 513 -379 l 631 -379 z "},"P":{"ha":505,"x_min":0,"x_max":505,"o":"m 505 -387 l 0 -387 l 0 -261 l 8 -261 l 8 -379 l 126 -379 l 126 -261 l 0 -261 l 0 1010 l 505 1010 l 505 1002 l 387 1002 l 387 884 l 505 884 l 505 875 l 387 875 l 387 758 l 505 758 l 505 749 l 387 749 l 387 631 l 505 631 l 505 623 l 387 623 l 387 505 l 505 505 l 505 497 l 387 497 l 387 379 l 505 379 l 505 370 l 387 370 l 387 253 l 505 253 l 505 244 l 387 244 l 387 126 l 505 126 l 505 118 l 387 118 l 387 0 l 505 0 l 505 -8 l 387 -8 l 387 -126 l 505 -126 l 505 -135 l 387 -135 l 387 -253 l 505 -253 l 505 -261 l 387 -261 l 387 -379 l 505 -379 l 505 -387 m 261 884 l 379 884 l 379 1002 l 261 1002 l 261 884 m 8 884 l 126 884 l 126 1002 l 8 1002 l 8 884 m 135 884 l 253 884 l 253 1002 l 135 1002 l 135 884 m 261 758 l 379 758 l 379 875 l 261 875 l 261 758 m 8 758 l 126 758 l 126 875 l 8 875 l 8 758 m 135 758 l 253 758 l 253 875 l 135 875 l 135 758 m 261 631 l 379 631 l 379 749 l 261 749 l 261 631 m 8 631 l 126 631 l 126 749 l 8 749 l 8 631 m 135 631 l 253 631 l 253 749 l 135 749 l 135 631 m 135 379 l 253 379 l 253 497 l 135 497 l 135 379 m 135 126 l 253 126 l 253 244 l 135 244 l 135 126 m 261 126 l 379 126 l 379 244 l 261 244 l 261 126 m 135 0 l 253 0 l 253 118 l 135 118 l 135 0 m 261 0 l 379 0 l 379 118 l 261 118 l 261 0 m 261 -126 l 379 -126 l 379 -8 l 261 -8 l 261 -126 m 135 -126 l 253 -126 l 253 -8 l 135 -8 l 135 -126 m 8 -126 l 126 -126 l 126 -8 l 8 -8 l 8 -126 m 135 -253 l 253 -253 l 253 -135 l 135 -135 l 135 -253 m 8 -253 l 126 -253 l 126 -135 l 8 -135 l 8 -253 m 379 -135 l 261 -135 l 261 -253 l 379 -253 l 379 -135 m 253 -379 l 253 -261 l 135 -261 l 135 -379 l 253 -379 m 379 -379 l 379 -261 l 261 -261 l 261 -379 l 379 -379 z "},"Þ":{"ha":505,"x_min":0,"x_max":505,"o":"m 505 -387 l 0 -387 l 0 -261 l 8 -261 l 8 -379 l 126 -379 l 126 -261 l 0 -261 l 0 1010 l 505 1010 l 505 1002 l 387 1002 l 387 884 l 505 884 l 505 875 l 387 875 l 387 758 l 505 758 l 505 749 l 387 749 l 387 631 l 505 631 l 505 623 l 387 623 l 387 505 l 505 505 l 505 497 l 387 497 l 387 379 l 505 379 l 505 370 l 387 370 l 387 253 l 505 253 l 505 244 l 387 244 l 387 126 l 505 126 l 505 118 l 387 118 l 387 0 l 505 0 l 505 -8 l 387 -8 l 387 -126 l 505 -126 l 505 -135 l 387 -135 l 387 -253 l 505 -253 l 505 -261 l 387 -261 l 387 -379 l 505 -379 l 505 -387 m 261 884 l 379 884 l 379 1002 l 261 1002 l 261 884 m 8 884 l 126 884 l 126 1002 l 8 1002 l 8 884 m 135 884 l 253 884 l 253 1002 l 135 1002 l 135 884 m 261 758 l 379 758 l 379 875 l 261 875 l 261 758 m 8 758 l 126 758 l 126 875 l 8 875 l 8 758 m 135 758 l 253 758 l 253 875 l 135 875 l 135 758 m 261 631 l 379 631 l 379 749 l 261 749 l 261 631 m 8 631 l 126 631 l 126 749 l 8 749 l 8 631 m 135 631 l 253 631 l 253 749 l 135 749 l 135 631 m 261 505 l 379 505 l 379 623 l 261 623 l 261 505 m 135 505 l 253 505 l 253 623 l 135 623 l 135 505 m 135 253 l 253 253 l 253 370 l 135 370 l 135 253 m 135 0 l 253 0 l 253 118 l 135 118 l 135 0 m 261 0 l 379 0 l 379 118 l 261 118 l 261 0 m 261 -126 l 379 -126 l 379 -8 l 261 -8 l 261 -126 m 135 -126 l 253 -126 l 253 -8 l 135 -8 l 135 -126 m 8 -126 l 126 -126 l 126 -8 l 8 -8 l 8 -126 m 135 -253 l 253 -253 l 253 -135 l 135 -135 l 135 -253 m 8 -253 l 126 -253 l 126 -135 l 8 -135 l 8 -253 m 379 -135 l 261 -135 l 261 -253 l 379 -253 l 379 -135 m 253 -379 l 253 -261 l 135 -261 l 135 -379 l 253 -379 m 379 -379 l 379 -261 l 261 -261 l 261 -379 l 379 -379 z "},"Q":{"ha":505,"x_min":0,"x_max":505,"o":"m 505 -387 l 0 -387 l 0 1010 l 505 1010 l 505 1002 l 387 1002 l 387 884 l 505 884 l 505 875 l 387 875 l 387 758 l 505 758 l 505 749 l 387 749 l 387 631 l 505 631 l 505 623 l 387 623 l 387 505 l 505 505 l 505 497 l 387 497 l 387 379 l 505 379 l 505 370 l 387 370 l 387 253 l 505 253 l 505 244 l 387 244 l 387 126 l 505 126 l 505 118 l 387 118 l 387 0 l 505 0 l 505 -8 l 387 -8 l 387 -126 l 505 -126 l 505 -135 l 387 -135 l 387 -253 l 505 -253 l 505 -261 l 387 -261 l 387 -379 l 505 -379 l 505 -387 m 261 884 l 379 884 l 379 1002 l 261 1002 l 261 884 m 8 884 l 126 884 l 126 1002 l 8 1002 l 8 884 m 135 884 l 253 884 l 253 1002 l 135 1002 l 135 884 m 261 758 l 379 758 l 379 875 l 261 875 l 261 758 m 8 758 l 126 758 l 126 875 l 8 875 l 8 758 m 135 758 l 253 758 l 253 875 l 135 875 l 135 758 m 8 631 l 126 631 l 126 749 l 8 749 l 8 631 m 261 631 l 379 631 l 379 749 l 261 749 l 261 631 m 135 631 l 253 631 l 253 749 l 135 749 l 135 631 m 135 379 l 253 379 l 253 497 l 135 497 l 135 379 m 135 253 l 253 253 l 253 370 l 135 370 l 135 253 m 135 126 l 253 126 l 253 244 l 135 244 l 135 126 m 135 0 l 253 0 l 253 118 l 135 118 l 135 0 m 261 -126 l 379 -126 l 379 -8 l 261 -8 l 261 -126 m 8 -126 l 126 -126 l 126 -8 l 8 -8 l 8 -126 m 135 -253 l 253 -253 l 253 -135 l 135 -135 l 135 -253 m 8 -253 l 126 -253 l 126 -135 l 8 -135 l 8 -253 m 379 -135 l 261 -135 l 261 -253 l 379 -253 l 379 -135 m 253 -379 l 253 -261 l 8 -261 l 8 -379 l 126 -379 l 126 -261 l 135 -261 l 135 -379 l 253 -379 m 379 -379 l 379 -261 l 261 -261 l 261 -379 l 379 -379 z "},"R":{"ha":505,"x_min":0,"x_max":505,"o":"m 505 -387 l 0 -387 l 0 1010 l 505 1010 l 505 1002 l 387 1002 l 387 884 l 505 884 l 505 875 l 387 875 l 387 758 l 505 758 l 505 749 l 387 749 l 387 631 l 505 631 l 505 623 l 387 623 l 387 505 l 505 505 l 505 497 l 387 497 l 387 379 l 505 379 l 505 370 l 387 370 l 387 253 l 505 253 l 505 244 l 387 244 l 387 126 l 505 126 l 505 118 l 387 118 l 387 0 l 505 0 l 505 -8 l 387 -8 l 387 -126 l 505 -126 l 505 -135 l 387 -135 l 387 -253 l 505 -253 l 505 -261 l 387 -261 l 387 -379 l 505 -379 l 505 -387 m 261 884 l 379 884 l 379 1002 l 261 1002 l 261 884 m 8 884 l 126 884 l 126 1002 l 8 1002 l 8 884 m 135 884 l 253 884 l 253 1002 l 135 1002 l 135 884 m 261 758 l 379 758 l 379 875 l 261 875 l 261 758 m 8 758 l 126 758 l 126 875 l 8 875 l 8 758 m 135 758 l 253 758 l 253 875 l 135 875 l 135 758 m 8 631 l 126 631 l 126 749 l 8 749 l 8 631 m 261 631 l 379 631 l 379 749 l 261 749 l 261 631 m 135 631 l 253 631 l 253 749 l 135 749 l 135 631 m 135 379 l 253 379 l 253 497 l 135 497 l 135 379 m 261 253 l 379 253 l 379 370 l 261 370 l 261 253 m 135 126 l 253 126 l 253 244 l 135 244 l 135 126 m 135 0 l 253 0 l 253 118 l 135 118 l 135 0 m 261 -126 l 379 -126 l 379 -8 l 261 -8 l 261 -126 m 135 -126 l 253 -126 l 253 -8 l 135 -8 l 135 -126 m 8 -126 l 126 -126 l 126 -8 l 8 -8 l 8 -126 m 135 -253 l 253 -253 l 253 -135 l 135 -135 l 135 -253 m 8 -253 l 126 -253 l 126 -135 l 8 -135 l 8 -253 m 379 -135 l 261 -135 l 261 -253 l 379 -253 l 379 -135 m 253 -379 l 253 -261 l 8 -261 l 8 -379 l 126 -379 l 126 -261 l 135 -261 l 135 -379 l 253 -379 m 379 -379 l 379 -261 l 261 -261 l 261 -379 l 379 -379 z "},"Ŕ":{"ha":505,"x_min":0,"x_max":505,"o":"m 505 -387 l 0 -387 l 0 1010 l 505 1010 l 505 1002 l 387 1002 l 387 884 l 505 884 l 505 875 l 387 875 l 387 758 l 505 758 l 505 749 l 387 749 l 387 631 l 505 631 l 505 623 l 387 623 l 387 505 l 505 505 l 505 497 l 387 497 l 387 379 l 505 379 l 505 370 l 387 370 l 387 253 l 505 253 l 505 244 l 387 244 l 387 126 l 505 126 l 505 118 l 387 118 l 387 0 l 505 0 l 505 -8 l 387 -8 l 387 -126 l 505 -126 l 505 -135 l 387 -135 l 387 -253 l 505 -253 l 505 -261 l 387 -261 l 387 -379 l 505 -379 l 505 -387 m 261 884 l 379 884 l 379 1002 l 261 1002 l 261 884 m 8 884 l 126 884 l 126 1002 l 8 1002 l 8 884 m 135 884 l 253 884 l 253 1002 l 135 1002 l 135 884 m 261 758 l 379 758 l 379 875 l 261 875 l 261 758 m 8 758 l 126 758 l 126 875 l 8 875 l 8 758 m 135 758 l 253 758 l 253 875 l 135 875 l 135 758 m 8 631 l 126 631 l 126 749 l 8 749 l 8 631 m 261 631 l 379 631 l 379 749 l 261 749 l 261 631 m 135 631 l 253 631 l 253 749 l 135 749 l 135 631 m 135 379 l 253 379 l 253 497 l 135 497 l 135 379 m 261 253 l 379 253 l 379 370 l 261 370 l 261 253 m 135 126 l 253 126 l 253 244 l 135 244 l 135 126 m 135 0 l 253 0 l 253 118 l 135 118 l 135 0 m 261 -126 l 379 -126 l 379 -8 l 261 -8 l 261 -126 m 135 -126 l 253 -126 l 253 -8 l 135 -8 l 135 -126 m 8 -126 l 126 -126 l 126 -8 l 8 -8 l 8 -126 m 135 -253 l 253 -253 l 253 -135 l 135 -135 l 135 -253 m 8 -253 l 126 -253 l 126 -135 l 8 -135 l 8 -253 m 379 -135 l 261 -135 l 261 -253 l 379 -253 l 379 -135 m 253 -379 l 253 -261 l 8 -261 l 8 -379 l 126 -379 l 126 -261 l 135 -261 l 135 -379 l 253 -379 m 379 -379 l 379 -261 l 261 -261 l 261 -379 l 379 -379 m 0 884 l 126 884 l 126 758 l 0 758 l 0 884 m 126 1010 l 253 1010 l 253 884 l 126 884 l 126 1010 z "},"Ř":{"ha":505,"x_min":0,"x_max":505,"o":"m 505 -387 l 0 -387 l 0 1010 l 505 1010 l 505 1002 l 387 1002 l 387 884 l 505 884 l 505 875 l 387 875 l 387 758 l 505 758 l 505 749 l 387 749 l 387 631 l 505 631 l 505 623 l 387 623 l 387 505 l 505 505 l 505 497 l 387 497 l 387 379 l 505 379 l 505 370 l 387 370 l 387 253 l 505 253 l 505 244 l 387 244 l 387 126 l 505 126 l 505 118 l 387 118 l 387 0 l 505 0 l 505 -8 l 387 -8 l 387 -126 l 505 -126 l 505 -135 l 387 -135 l 387 -253 l 505 -253 l 505 -261 l 387 -261 l 387 -379 l 505 -379 l 505 -387 m 261 884 l 379 884 l 379 1002 l 261 1002 l 261 884 m 8 884 l 126 884 l 126 1002 l 8 1002 l 8 884 m 135 884 l 253 884 l 253 1002 l 135 1002 l 135 884 m 261 758 l 379 758 l 379 875 l 261 875 l 261 758 m 8 758 l 126 758 l 126 875 l 8 875 l 8 758 m 135 758 l 253 758 l 253 875 l 135 875 l 135 758 m 8 631 l 126 631 l 126 749 l 8 749 l 8 631 m 261 631 l 379 631 l 379 749 l 261 749 l 261 631 m 135 631 l 253 631 l 253 749 l 135 749 l 135 631 m 135 379 l 253 379 l 253 497 l 135 497 l 135 379 m 261 253 l 379 253 l 379 370 l 261 370 l 261 253 m 135 126 l 253 126 l 253 244 l 135 244 l 135 126 m 135 0 l 253 0 l 253 118 l 135 118 l 135 0 m 261 -126 l 379 -126 l 379 -8 l 261 -8 l 261 -126 m 135 -126 l 253 -126 l 253 -8 l 135 -8 l 135 -126 m 8 -126 l 126 -126 l 126 -8 l 8 -8 l 8 -126 m 135 -253 l 253 -253 l 253 -135 l 135 -135 l 135 -253 m 8 -253 l 126 -253 l 126 -135 l 8 -135 l 8 -253 m 379 -135 l 261 -135 l 261 -253 l 379 -253 l 379 -135 m 253 -379 l 253 -261 l 8 -261 l 8 -379 l 126 -379 l 126 -261 l 135 -261 l 135 -379 l 253 -379 m 379 -379 l 379 -261 l 261 -261 l 261 -379 l 379 -379 m 0 1010 l 126 1010 l 126 884 l 0 884 l 0 1010 m 126 884 l 253 884 l 253 758 l 126 758 l 126 884 m 253 1010 l 379 1010 l 379 884 l 253 884 l 253 1010 z "},"Ŗ":{"ha":505,"x_min":0,"x_max":505,"o":"m 505 -387 l 0 -387 l 0 1010 l 505 1010 l 505 1002 l 387 1002 l 387 884 l 505 884 l 505 875 l 387 875 l 387 758 l 505 758 l 505 749 l 387 749 l 387 631 l 505 631 l 505 623 l 387 623 l 387 505 l 505 505 l 505 497 l 387 497 l 387 379 l 505 379 l 505 370 l 387 370 l 387 253 l 505 253 l 505 244 l 387 244 l 387 126 l 505 126 l 505 118 l 387 118 l 387 0 l 505 0 l 505 -8 l 387 -8 l 387 -126 l 505 -126 l 505 -135 l 387 -135 l 387 -253 l 505 -253 l 505 -261 l 387 -261 l 387 -379 l 505 -379 l 505 -387 m 261 884 l 379 884 l 379 1002 l 261 1002 l 261 884 m 8 884 l 126 884 l 126 1002 l 8 1002 l 8 884 m 135 884 l 253 884 l 253 1002 l 135 1002 l 135 884 m 261 758 l 379 758 l 379 875 l 261 875 l 261 758 m 8 758 l 126 758 l 126 875 l 8 875 l 8 758 m 135 758 l 253 758 l 253 875 l 135 875 l 135 758 m 8 631 l 126 631 l 126 749 l 8 749 l 8 631 m 261 631 l 379 631 l 379 749 l 261 749 l 261 631 m 135 631 l 253 631 l 253 749 l 135 749 l 135 631 m 135 379 l 253 379 l 253 497 l 135 497 l 135 379 m 261 253 l 379 253 l 379 370 l 261 370 l 261 253 m 135 126 l 253 126 l 253 244 l 135 244 l 135 126 m 135 0 l 253 0 l 253 118 l 135 118 l 135 0 m 261 -126 l 379 -126 l 379 -8 l 261 -8 l 261 -126 m 135 -126 l 253 -126 l 253 -8 l 135 -8 l 135 -126 m 8 -126 l 126 -126 l 126 -8 l 8 -8 l 8 -126 m 135 -253 l 253 -253 l 253 -135 l 135 -135 l 135 -253 m 8 -253 l 126 -253 l 126 -135 l 8 -135 l 8 -253 m 379 -135 l 261 -135 l 261 -253 l 379 -253 l 379 -135 m 253 -379 l 253 -261 l 8 -261 l 8 -379 l 126 -379 l 126 -261 l 135 -261 l 135 -379 l 253 -379 m 379 -379 l 379 -261 l 261 -261 l 261 -379 l 379 -379 m 126 -126 l 253 -126 l 253 -253 l 126 -253 l 126 -126 z "},"S":{"ha":505,"x_min":0,"x_max":505,"o":"m 505 -387 l 0 -387 l 0 1010 l 505 1010 l 505 1002 l 387 1002 l 387 884 l 505 884 l 505 875 l 387 875 l 387 758 l 505 758 l 505 749 l 387 749 l 387 631 l 505 631 l 505 623 l 387 623 l 387 505 l 505 505 l 505 497 l 387 497 l 387 379 l 505 379 l 505 370 l 387 370 l 387 253 l 505 253 l 505 244 l 387 244 l 387 126 l 505 126 l 505 118 l 387 118 l 387 0 l 505 0 l 505 -8 l 387 -8 l 387 -126 l 505 -126 l 505 -135 l 387 -135 l 387 -253 l 505 -253 l 505 -261 l 387 -261 l 387 -379 l 505 -379 l 505 -387 m 261 884 l 379 884 l 379 1002 l 261 1002 l 261 884 m 8 884 l 126 884 l 126 1002 l 8 1002 l 8 884 m 135 884 l 253 884 l 253 1002 l 135 1002 l 135 884 m 261 758 l 379 758 l 379 875 l 261 875 l 261 758 m 8 758 l 126 758 l 126 875 l 8 875 l 8 758 m 135 758 l 253 758 l 253 875 l 135 875 l 135 758 m 8 631 l 126 631 l 126 749 l 8 749 l 8 631 m 261 631 l 379 631 l 379 749 l 261 749 l 261 631 m 135 631 l 253 631 l 253 749 l 135 749 l 135 631 m 261 379 l 379 379 l 379 497 l 261 497 l 261 379 m 135 379 l 253 379 l 253 497 l 135 497 l 135 379 m 135 126 l 253 126 l 253 244 l 135 244 l 135 126 m 8 126 l 126 126 l 126 244 l 8 244 l 8 126 m 261 -126 l 379 -126 l 379 -8 l 261 -8 l 261 -126 m 135 -126 l 253 -126 l 253 -8 l 135 -8 l 135 -126 m 8 -126 l 126 -126 l 126 -8 l 8 -8 l 8 -126 m 135 -253 l 253 -253 l 253 -135 l 135 -135 l 135 -253 m 8 -253 l 126 -253 l 126 -135 l 8 -135 l 8 -253 m 379 -135 l 261 -135 l 261 -253 l 379 -253 l 379 -135 m 253 -379 l 253 -261 l 8 -261 l 8 -379 l 126 -379 l 126 -261 l 135 -261 l 135 -379 l 253 -379 m 379 -379 l 379 -261 l 261 -261 l 261 -379 l 379 -379 z "},"Ś":{"ha":505,"x_min":0,"x_max":505,"o":"m 505 -387 l 0 -387 l 0 1010 l 505 1010 l 505 1002 l 387 1002 l 387 884 l 505 884 l 505 875 l 387 875 l 387 758 l 505 758 l 505 749 l 387 749 l 387 631 l 505 631 l 505 623 l 387 623 l 387 505 l 505 505 l 505 497 l 387 497 l 387 379 l 505 379 l 505 370 l 387 370 l 387 253 l 505 253 l 505 244 l 387 244 l 387 126 l 505 126 l 505 118 l 387 118 l 387 0 l 505 0 l 505 -8 l 387 -8 l 387 -126 l 505 -126 l 505 -135 l 387 -135 l 387 -253 l 505 -253 l 505 -261 l 387 -261 l 387 -379 l 505 -379 l 505 -387 m 261 884 l 379 884 l 379 1002 l 261 1002 l 261 884 m 8 884 l 126 884 l 126 1002 l 8 1002 l 8 884 m 135 884 l 253 884 l 253 1002 l 135 1002 l 135 884 m 261 758 l 379 758 l 379 875 l 261 875 l 261 758 m 8 758 l 126 758 l 126 875 l 8 875 l 8 758 m 135 758 l 253 758 l 253 875 l 135 875 l 135 758 m 8 631 l 126 631 l 126 749 l 8 749 l 8 631 m 261 631 l 379 631 l 379 749 l 261 749 l 261 631 m 135 631 l 253 631 l 253 749 l 135 749 l 135 631 m 261 379 l 379 379 l 379 497 l 261 497 l 261 379 m 135 379 l 253 379 l 253 497 l 135 497 l 135 379 m 135 126 l 253 126 l 253 244 l 135 244 l 135 126 m 8 126 l 126 126 l 126 244 l 8 244 l 8 126 m 261 -126 l 379 -126 l 379 -8 l 261 -8 l 261 -126 m 135 -126 l 253 -126 l 253 -8 l 135 -8 l 135 -126 m 8 -126 l 126 -126 l 126 -8 l 8 -8 l 8 -126 m 135 -253 l 253 -253 l 253 -135 l 135 -135 l 135 -253 m 8 -253 l 126 -253 l 126 -135 l 8 -135 l 8 -253 m 379 -135 l 261 -135 l 261 -253 l 379 -253 l 379 -135 m 253 -379 l 253 -261 l 8 -261 l 8 -379 l 126 -379 l 126 -261 l 135 -261 l 135 -379 l 253 -379 m 379 -379 l 379 -261 l 261 -261 l 261 -379 l 379 -379 m 0 884 l 126 884 l 126 758 l 0 758 l 0 884 m 126 1010 l 253 1010 l 253 884 l 126 884 l 126 1010 z "},"Š":{"ha":505,"x_min":0,"x_max":505,"o":"m 505 -387 l 0 -387 l 0 1010 l 505 1010 l 505 1002 l 387 1002 l 387 884 l 505 884 l 505 875 l 387 875 l 387 758 l 505 758 l 505 749 l 387 749 l 387 631 l 505 631 l 505 623 l 387 623 l 387 505 l 505 505 l 505 497 l 387 497 l 387 379 l 505 379 l 505 370 l 387 370 l 387 253 l 505 253 l 505 244 l 387 244 l 387 126 l 505 126 l 505 118 l 387 118 l 387 0 l 505 0 l 505 -8 l 387 -8 l 387 -126 l 505 -126 l 505 -135 l 387 -135 l 387 -253 l 505 -253 l 505 -261 l 387 -261 l 387 -379 l 505 -379 l 505 -387 m 261 884 l 379 884 l 379 1002 l 261 1002 l 261 884 m 8 884 l 126 884 l 126 1002 l 8 1002 l 8 884 m 135 884 l 253 884 l 253 1002 l 135 1002 l 135 884 m 261 758 l 379 758 l 379 875 l 261 875 l 261 758 m 8 758 l 126 758 l 126 875 l 8 875 l 8 758 m 135 758 l 253 758 l 253 875 l 135 875 l 135 758 m 8 631 l 126 631 l 126 749 l 8 749 l 8 631 m 261 631 l 379 631 l 379 749 l 261 749 l 261 631 m 135 631 l 253 631 l 253 749 l 135 749 l 135 631 m 261 379 l 379 379 l 379 497 l 261 497 l 261 379 m 135 379 l 253 379 l 253 497 l 135 497 l 135 379 m 135 126 l 253 126 l 253 244 l 135 244 l 135 126 m 8 126 l 126 126 l 126 244 l 8 244 l 8 126 m 261 -126 l 379 -126 l 379 -8 l 261 -8 l 261 -126 m 135 -126 l 253 -126 l 253 -8 l 135 -8 l 135 -126 m 8 -126 l 126 -126 l 126 -8 l 8 -8 l 8 -126 m 135 -253 l 253 -253 l 253 -135 l 135 -135 l 135 -253 m 8 -253 l 126 -253 l 126 -135 l 8 -135 l 8 -253 m 379 -135 l 261 -135 l 261 -253 l 379 -253 l 379 -135 m 253 -379 l 253 -261 l 8 -261 l 8 -379 l 126 -379 l 126 -261 l 135 -261 l 135 -379 l 253 -379 m 379 -379 l 379 -261 l 261 -261 l 261 -379 l 379 -379 m 0 1010 l 126 1010 l 126 884 l 0 884 l 0 1010 m 126 884 l 253 884 l 253 758 l 126 758 l 126 884 m 253 1010 l 379 1010 l 379 884 l 253 884 l 253 1010 z "},"Ş":{"ha":505,"x_min":0,"x_max":505,"o":"m 505 -387 l 0 -387 l 0 1010 l 505 1010 l 505 1002 l 387 1002 l 387 884 l 505 884 l 505 875 l 387 875 l 387 758 l 505 758 l 505 749 l 387 749 l 387 631 l 505 631 l 505 623 l 387 623 l 387 505 l 505 505 l 505 497 l 387 497 l 387 379 l 505 379 l 505 370 l 387 370 l 387 253 l 505 253 l 505 244 l 387 244 l 387 126 l 505 126 l 505 118 l 387 118 l 387 0 l 505 0 l 505 -8 l 387 -8 l 387 -126 l 505 -126 l 505 -135 l 387 -135 l 387 -253 l 505 -253 l 505 -261 l 387 -261 l 387 -379 l 505 -379 l 505 -387 m 261 884 l 379 884 l 379 1002 l 261 1002 l 261 884 m 8 884 l 126 884 l 126 1002 l 8 1002 l 8 884 m 135 884 l 253 884 l 253 1002 l 135 1002 l 135 884 m 261 758 l 379 758 l 379 875 l 261 875 l 261 758 m 8 758 l 126 758 l 126 875 l 8 875 l 8 758 m 135 758 l 253 758 l 253 875 l 135 875 l 135 758 m 8 631 l 126 631 l 126 749 l 8 749 l 8 631 m 261 631 l 379 631 l 379 749 l 261 749 l 261 631 m 135 631 l 253 631 l 253 749 l 135 749 l 135 631 m 261 379 l 379 379 l 379 497 l 261 497 l 261 379 m 135 379 l 253 379 l 253 497 l 135 497 l 135 379 m 135 126 l 253 126 l 253 244 l 135 244 l 135 126 m 8 126 l 126 126 l 126 244 l 8 244 l 8 126 m 261 -126 l 379 -126 l 379 -8 l 261 -8 l 261 -126 m 135 -126 l 253 -126 l 253 -8 l 135 -8 l 135 -126 m 8 -126 l 126 -126 l 126 -8 l 8 -8 l 8 -126 m 135 -253 l 253 -253 l 253 -135 l 135 -135 l 135 -253 m 8 -253 l 126 -253 l 126 -135 l 8 -135 l 8 -253 m 379 -135 l 261 -135 l 261 -253 l 379 -253 l 379 -135 m 253 -379 l 253 -261 l 8 -261 l 8 -379 l 126 -379 l 126 -261 l 135 -261 l 135 -379 l 253 -379 m 379 -379 l 379 -261 l 261 -261 l 261 -379 l 379 -379 m 253 0 l 379 0 l 379 -126 l 253 -126 l 253 0 m 126 -126 l 253 -126 l 253 -253 l 126 -253 l 126 -126 z "},"Ș":{"ha":505,"x_min":0,"x_max":505,"o":"m 505 -387 l 0 -387 l 0 1010 l 505 1010 l 505 1002 l 387 1002 l 387 884 l 505 884 l 505 875 l 387 875 l 387 758 l 505 758 l 505 749 l 387 749 l 387 631 l 505 631 l 505 623 l 387 623 l 387 505 l 505 505 l 505 497 l 387 497 l 387 379 l 505 379 l 505 370 l 387 370 l 387 253 l 505 253 l 505 244 l 387 244 l 387 126 l 505 126 l 505 118 l 387 118 l 387 0 l 505 0 l 505 -8 l 387 -8 l 387 -126 l 505 -126 l 505 -135 l 387 -135 l 387 -253 l 505 -253 l 505 -261 l 387 -261 l 387 -379 l 505 -379 l 505 -387 m 261 884 l 379 884 l 379 1002 l 261 1002 l 261 884 m 8 884 l 126 884 l 126 1002 l 8 1002 l 8 884 m 135 884 l 253 884 l 253 1002 l 135 1002 l 135 884 m 261 758 l 379 758 l 379 875 l 261 875 l 261 758 m 8 758 l 126 758 l 126 875 l 8 875 l 8 758 m 135 758 l 253 758 l 253 875 l 135 875 l 135 758 m 8 631 l 126 631 l 126 749 l 8 749 l 8 631 m 261 631 l 379 631 l 379 749 l 261 749 l 261 631 m 135 631 l 253 631 l 253 749 l 135 749 l 135 631 m 261 379 l 379 379 l 379 497 l 261 497 l 261 379 m 135 379 l 253 379 l 253 497 l 135 497 l 135 379 m 135 126 l 253 126 l 253 244 l 135 244 l 135 126 m 8 126 l 126 126 l 126 244 l 8 244 l 8 126 m 261 -126 l 379 -126 l 379 -8 l 261 -8 l 261 -126 m 135 -126 l 253 -126 l 253 -8 l 135 -8 l 135 -126 m 8 -126 l 126 -126 l 126 -8 l 8 -8 l 8 -126 m 135 -253 l 253 -253 l 253 -135 l 135 -135 l 135 -253 m 8 -253 l 126 -253 l 126 -135 l 8 -135 l 8 -253 m 379 -135 l 261 -135 l 261 -253 l 379 -253 l 379 -135 m 253 -379 l 253 -261 l 8 -261 l 8 -379 l 126 -379 l 126 -261 l 135 -261 l 135 -379 l 253 -379 m 379 -379 l 379 -261 l 261 -261 l 261 -379 l 379 -379 m 126 -126 l 253 -126 l 253 -253 l 126 -253 l 126 -126 z "},"ẞ":{"ha":631,"x_min":0,"x_max":631,"o":"m 631 -387 l 0 -387 l 0 -261 l 8 -261 l 8 -379 l 126 -379 l 126 -261 l 135 -261 l 135 -379 l 253 -379 l 253 -261 l 0 -261 l 0 1010 l 631 1010 l 631 1002 l 513 1002 l 513 884 l 631 884 l 631 875 l 513 875 l 513 758 l 631 758 l 631 749 l 513 749 l 513 631 l 631 631 l 631 623 l 513 623 l 513 505 l 631 505 l 631 497 l 513 497 l 513 379 l 631 379 l 631 370 l 513 370 l 513 253 l 631 253 l 631 244 l 513 244 l 513 126 l 631 126 l 631 118 l 513 118 l 513 0 l 631 0 l 631 -8 l 513 -8 l 513 -126 l 631 -126 l 631 -135 l 513 -135 l 513 -253 l 631 -253 l 631 -261 l 513 -261 l 513 -379 l 631 -379 l 631 -387 m 387 884 l 505 884 l 505 1002 l 387 1002 l 387 884 m 261 884 l 379 884 l 379 1002 l 261 1002 l 261 884 m 135 884 l 253 884 l 253 1002 l 135 1002 l 135 884 m 8 884 l 126 884 l 126 1002 l 8 1002 l 8 884 m 387 758 l 505 758 l 505 875 l 387 875 l 387 758 m 261 758 l 379 758 l 379 875 l 261 875 l 261 758 m 135 758 l 253 758 l 253 875 l 135 875 l 135 758 m 8 758 l 126 758 l 126 875 l 8 875 l 8 758 m 261 631 l 379 631 l 379 749 l 261 749 l 261 631 m 387 631 l 505 631 l 505 749 l 387 749 l 387 631 m 8 631 l 126 631 l 126 749 l 8 749 l 8 631 m 135 631 l 253 631 l 253 749 l 135 749 l 135 631 m 135 379 l 253 379 l 253 497 l 135 497 l 135 379 m 261 379 l 379 379 l 379 497 l 261 497 l 261 379 m 135 253 l 253 253 l 253 370 l 135 370 l 135 253 m 387 253 l 505 253 l 505 370 l 387 370 l 387 253 m 135 126 l 253 126 l 253 244 l 135 244 l 135 126 m 261 126 l 379 126 l 379 244 l 261 244 l 261 126 m 135 0 l 253 0 l 253 118 l 135 118 l 135 0 m 8 -126 l 126 -126 l 126 -8 l 8 -8 l 8 -126 m 387 -126 l 505 -126 l 505 -8 l 387 -8 l 387 -126 m 135 -126 l 253 -126 l 253 -8 l 135 -8 l 135 -126 m 261 -126 l 379 -126 l 379 -8 l 261 -8 l 261 -126 m 8 -253 l 126 -253 l 126 -135 l 8 -135 l 8 -253 m 261 -253 l 379 -253 l 379 -135 l 261 -135 l 261 -253 m 135 -253 l 253 -253 l 253 -135 l 135 -135 l 135 -253 m 505 -135 l 387 -135 l 387 -253 l 505 -253 l 505 -135 m 505 -379 l 505 -261 l 261 -261 l 261 -379 l 379 -379 l 379 -261 l 387 -261 l 387 -379 l 505 -379 z "},"T":{"ha":505,"x_min":0,"x_max":505,"o":"m 505 -387 l 0 -387 l 0 -261 l 8 -261 l 8 -379 l 126 -379 l 126 -261 l 135 -261 l 135 -379 l 253 -379 l 253 -261 l 261 -261 l 261 -379 l 379 -379 l 379 -261 l 0 -261 l 0 1010 l 505 1010 l 505 1002 l 387 1002 l 387 884 l 505 884 l 505 875 l 387 875 l 387 758 l 505 758 l 505 749 l 387 749 l 387 631 l 505 631 l 505 623 l 387 623 l 387 505 l 505 505 l 505 497 l 387 497 l 387 379 l 505 379 l 505 370 l 387 370 l 387 253 l 505 253 l 505 244 l 387 244 l 387 126 l 505 126 l 505 118 l 387 118 l 387 0 l 505 0 l 505 -8 l 387 -8 l 387 -126 l 505 -126 l 505 -135 l 387 -135 l 387 -253 l 505 -253 l 505 -261 l 387 -261 l 387 -379 l 505 -379 l 505 -387 m 135 884 l 253 884 l 253 1002 l 135 1002 l 135 884 m 261 884 l 379 884 l 379 1002 l 261 1002 l 261 884 m 8 884 l 126 884 l 126 1002 l 8 1002 l 8 884 m 261 758 l 379 758 l 379 875 l 261 875 l 261 758 m 135 758 l 253 758 l 253 875 l 135 875 l 135 758 m 8 758 l 126 758 l 126 875 l 8 875 l 8 758 m 261 631 l 379 631 l 379 749 l 261 749 l 261 631 m 135 631 l 253 631 l 253 749 l 135 749 l 135 631 m 8 631 l 126 631 l 126 749 l 8 749 l 8 631 m 261 379 l 379 379 l 379 497 l 261 497 l 261 379 m 8 379 l 126 379 l 126 497 l 8 497 l 8 379 m 8 253 l 126 253 l 126 370 l 8 370 l 8 253 m 261 253 l 379 253 l 379 370 l 261 370 l 261 253 m 8 126 l 126 126 l 126 244 l 8 244 l 8 126 m 261 126 l 379 126 l 379 244 l 261 244 l 261 126 m 261 0 l 379 0 l 379 118 l 261 118 l 261 0 m 8 0 l 126 0 l 126 118 l 8 118 l 8 0 m 261 -126 l 379 -126 l 379 -8 l 261 -8 l 261 -126 m 8 -126 l 126 -126 l 126 -8 l 8 -8 l 8 -126 m 135 -126 l 253 -126 l 253 -8 l 135 -8 l 135 -126 m 8 -253 l 126 -253 l 126 -135 l 8 -135 l 8 -253 m 135 -253 l 253 -253 l 253 -135 l 135 -135 l 135 -253 m 379 -135 l 261 -135 l 261 -253 l 379 -253 l 379 -135 z "},"Ť":{"ha":505,"x_min":0,"x_max":505,"o":"m 505 -387 l 0 -387 l 0 -261 l 8 -261 l 8 -379 l 126 -379 l 126 -261 l 135 -261 l 135 -379 l 253 -379 l 253 -261 l 261 -261 l 261 -379 l 379 -379 l 379 -261 l 0 -261 l 0 1010 l 505 1010 l 505 1002 l 387 1002 l 387 884 l 505 884 l 505 875 l 387 875 l 387 758 l 505 758 l 505 749 l 387 749 l 387 631 l 505 631 l 505 623 l 387 623 l 387 505 l 505 505 l 505 497 l 387 497 l 387 379 l 505 379 l 505 370 l 387 370 l 387 253 l 505 253 l 505 244 l 387 244 l 387 126 l 505 126 l 505 118 l 387 118 l 387 0 l 505 0 l 505 -8 l 387 -8 l 387 -126 l 505 -126 l 505 -135 l 387 -135 l 387 -253 l 505 -253 l 505 -261 l 387 -261 l 387 -379 l 505 -379 l 505 -387 m 135 884 l 253 884 l 253 1002 l 135 1002 l 135 884 m 261 884 l 379 884 l 379 1002 l 261 1002 l 261 884 m 8 884 l 126 884 l 126 1002 l 8 1002 l 8 884 m 261 758 l 379 758 l 379 875 l 261 875 l 261 758 m 135 758 l 253 758 l 253 875 l 135 875 l 135 758 m 8 758 l 126 758 l 126 875 l 8 875 l 8 758 m 261 631 l 379 631 l 379 749 l 261 749 l 261 631 m 135 631 l 253 631 l 253 749 l 135 749 l 135 631 m 8 631 l 126 631 l 126 749 l 8 749 l 8 631 m 261 379 l 379 379 l 379 497 l 261 497 l 261 379 m 8 379 l 126 379 l 126 497 l 8 497 l 8 379 m 8 253 l 126 253 l 126 370 l 8 370 l 8 253 m 261 253 l 379 253 l 379 370 l 261 370 l 261 253 m 8 126 l 126 126 l 126 244 l 8 244 l 8 126 m 261 126 l 379 126 l 379 244 l 261 244 l 261 126 m 261 0 l 379 0 l 379 118 l 261 118 l 261 0 m 8 0 l 126 0 l 126 118 l 8 118 l 8 0 m 261 -126 l 379 -126 l 379 -8 l 261 -8 l 261 -126 m 8 -126 l 126 -126 l 126 -8 l 8 -8 l 8 -126 m 135 -126 l 253 -126 l 253 -8 l 135 -8 l 135 -126 m 8 -253 l 126 -253 l 126 -135 l 8 -135 l 8 -253 m 135 -253 l 253 -253 l 253 -135 l 135 -135 l 135 -253 m 379 -135 l 261 -135 l 261 -253 l 379 -253 l 379 -135 m 0 1010 l 126 1010 l 126 884 l 0 884 l 0 1010 m 126 884 l 253 884 l 253 758 l 126 758 l 126 884 m 253 1010 l 379 1010 l 379 884 l 253 884 l 253 1010 z "},"Ț":{"ha":505,"x_min":0,"x_max":505,"o":"m 505 -387 l 0 -387 l 0 -261 l 8 -261 l 8 -379 l 126 -379 l 126 -261 l 135 -261 l 135 -379 l 253 -379 l 253 -261 l 261 -261 l 261 -379 l 379 -379 l 379 -261 l 0 -261 l 0 1010 l 505 1010 l 505 1002 l 387 1002 l 387 884 l 505 884 l 505 875 l 387 875 l 387 758 l 505 758 l 505 749 l 387 749 l 387 631 l 505 631 l 505 623 l 387 623 l 387 505 l 505 505 l 505 497 l 387 497 l 387 379 l 505 379 l 505 370 l 387 370 l 387 253 l 505 253 l 505 244 l 387 244 l 387 126 l 505 126 l 505 118 l 387 118 l 387 0 l 505 0 l 505 -8 l 387 -8 l 387 -126 l 505 -126 l 505 -135 l 387 -135 l 387 -253 l 505 -253 l 505 -261 l 387 -261 l 387 -379 l 505 -379 l 505 -387 m 135 884 l 253 884 l 253 1002 l 135 1002 l 135 884 m 261 884 l 379 884 l 379 1002 l 261 1002 l 261 884 m 8 884 l 126 884 l 126 1002 l 8 1002 l 8 884 m 261 758 l 379 758 l 379 875 l 261 875 l 261 758 m 135 758 l 253 758 l 253 875 l 135 875 l 135 758 m 8 758 l 126 758 l 126 875 l 8 875 l 8 758 m 261 631 l 379 631 l 379 749 l 261 749 l 261 631 m 135 631 l 253 631 l 253 749 l 135 749 l 135 631 m 8 631 l 126 631 l 126 749 l 8 749 l 8 631 m 261 379 l 379 379 l 379 497 l 261 497 l 261 379 m 8 379 l 126 379 l 126 497 l 8 497 l 8 379 m 8 253 l 126 253 l 126 370 l 8 370 l 8 253 m 261 253 l 379 253 l 379 370 l 261 370 l 261 253 m 8 126 l 126 126 l 126 244 l 8 244 l 8 126 m 261 126 l 379 126 l 379 244 l 261 244 l 261 126 m 261 0 l 379 0 l 379 118 l 261 118 l 261 0 m 8 0 l 126 0 l 126 118 l 8 118 l 8 0 m 261 -126 l 379 -126 l 379 -8 l 261 -8 l 261 -126 m 8 -126 l 126 -126 l 126 -8 l 8 -8 l 8 -126 m 135 -126 l 253 -126 l 253 -8 l 135 -8 l 135 -126 m 8 -253 l 126 -253 l 126 -135 l 8 -135 l 8 -253 m 135 -253 l 253 -253 l 253 -135 l 135 -135 l 135 -253 m 379 -135 l 261 -135 l 261 -253 l 379 -253 l 379 -135 m 126 -126 l 253 -126 l 253 -253 l 126 -253 l 126 -126 z "},"U":{"ha":505,"x_min":0,"x_max":505,"o":"m 505 -387 l 0 -387 l 0 1010 l 505 1010 l 505 1002 l 387 1002 l 387 884 l 505 884 l 505 875 l 387 875 l 387 758 l 505 758 l 505 749 l 387 749 l 387 631 l 505 631 l 505 623 l 387 623 l 387 505 l 505 505 l 505 497 l 387 497 l 387 379 l 505 379 l 505 370 l 387 370 l 387 253 l 505 253 l 505 244 l 387 244 l 387 126 l 505 126 l 505 118 l 387 118 l 387 0 l 505 0 l 505 -8 l 387 -8 l 387 -126 l 505 -126 l 505 -135 l 387 -135 l 387 -253 l 505 -253 l 505 -261 l 387 -261 l 387 -379 l 505 -379 l 505 -387 m 261 884 l 379 884 l 379 1002 l 261 1002 l 261 884 m 8 884 l 126 884 l 126 1002 l 8 1002 l 8 884 m 135 884 l 253 884 l 253 1002 l 135 1002 l 135 884 m 261 758 l 379 758 l 379 875 l 261 875 l 261 758 m 8 758 l 126 758 l 126 875 l 8 875 l 8 758 m 135 758 l 253 758 l 253 875 l 135 875 l 135 758 m 8 631 l 126 631 l 126 749 l 8 749 l 8 631 m 261 631 l 379 631 l 379 749 l 261 749 l 261 631 m 135 631 l 253 631 l 253 749 l 135 749 l 135 631 m 135 505 l 253 505 l 253 623 l 135 623 l 135 505 m 135 379 l 253 379 l 253 497 l 135 497 l 135 379 m 135 253 l 253 253 l 253 370 l 135 370 l 135 253 m 135 126 l 253 126 l 253 244 l 135 244 l 135 126 m 261 -126 l 379 -126 l 379 -8 l 261 -8 l 261 -126 m 135 -126 l 253 -126 l 253 -8 l 135 -8 l 135 -126 m 8 -126 l 126 -126 l 126 -8 l 8 -8 l 8 -126 m 135 -253 l 253 -253 l 253 -135 l 135 -135 l 135 -253 m 8 -253 l 126 -253 l 126 -135 l 8 -135 l 8 -253 m 379 -135 l 261 -135 l 261 -253 l 379 -253 l 379 -135 m 253 -379 l 253 -261 l 8 -261 l 8 -379 l 126 -379 l 126 -261 l 135 -261 l 135 -379 l 253 -379 m 379 -379 l 379 -261 l 261 -261 l 261 -379 l 379 -379 z "},"Ú":{"ha":505,"x_min":0,"x_max":505,"o":"m 505 -387 l 0 -387 l 0 1010 l 505 1010 l 505 1002 l 387 1002 l 387 884 l 505 884 l 505 875 l 387 875 l 387 758 l 505 758 l 505 749 l 387 749 l 387 631 l 505 631 l 505 623 l 387 623 l 387 505 l 505 505 l 505 497 l 387 497 l 387 379 l 505 379 l 505 370 l 387 370 l 387 253 l 505 253 l 505 244 l 387 244 l 387 126 l 505 126 l 505 118 l 387 118 l 387 0 l 505 0 l 505 -8 l 387 -8 l 387 -126 l 505 -126 l 505 -135 l 387 -135 l 387 -253 l 505 -253 l 505 -261 l 387 -261 l 387 -379 l 505 -379 l 505 -387 m 261 884 l 379 884 l 379 1002 l 261 1002 l 261 884 m 8 884 l 126 884 l 126 1002 l 8 1002 l 8 884 m 135 884 l 253 884 l 253 1002 l 135 1002 l 135 884 m 261 758 l 379 758 l 379 875 l 261 875 l 261 758 m 8 758 l 126 758 l 126 875 l 8 875 l 8 758 m 135 758 l 253 758 l 253 875 l 135 875 l 135 758 m 8 631 l 126 631 l 126 749 l 8 749 l 8 631 m 261 631 l 379 631 l 379 749 l 261 749 l 261 631 m 135 631 l 253 631 l 253 749 l 135 749 l 135 631 m 135 505 l 253 505 l 253 623 l 135 623 l 135 505 m 135 379 l 253 379 l 253 497 l 135 497 l 135 379 m 135 253 l 253 253 l 253 370 l 135 370 l 135 253 m 135 126 l 253 126 l 253 244 l 135 244 l 135 126 m 261 -126 l 379 -126 l 379 -8 l 261 -8 l 261 -126 m 135 -126 l 253 -126 l 253 -8 l 135 -8 l 135 -126 m 8 -126 l 126 -126 l 126 -8 l 8 -8 l 8 -126 m 135 -253 l 253 -253 l 253 -135 l 135 -135 l 135 -253 m 8 -253 l 126 -253 l 126 -135 l 8 -135 l 8 -253 m 379 -135 l 261 -135 l 261 -253 l 379 -253 l 379 -135 m 253 -379 l 253 -261 l 8 -261 l 8 -379 l 126 -379 l 126 -261 l 135 -261 l 135 -379 l 253 -379 m 379 -379 l 379 -261 l 261 -261 l 261 -379 l 379 -379 m 0 884 l 126 884 l 126 758 l 0 758 l 0 884 m 126 1010 l 253 1010 l 253 884 l 126 884 l 126 1010 z "},"Ŭ":{"ha":505,"x_min":0,"x_max":505,"o":"m 505 -387 l 0 -387 l 0 1010 l 505 1010 l 505 1002 l 387 1002 l 387 884 l 505 884 l 505 875 l 387 875 l 387 758 l 505 758 l 505 749 l 387 749 l 387 631 l 505 631 l 505 623 l 387 623 l 387 505 l 505 505 l 505 497 l 387 497 l 387 379 l 505 379 l 505 370 l 387 370 l 387 253 l 505 253 l 505 244 l 387 244 l 387 126 l 505 126 l 505 118 l 387 118 l 387 0 l 505 0 l 505 -8 l 387 -8 l 387 -126 l 505 -126 l 505 -135 l 387 -135 l 387 -253 l 505 -253 l 505 -261 l 387 -261 l 387 -379 l 505 -379 l 505 -387 m 261 884 l 379 884 l 379 1002 l 261 1002 l 261 884 m 8 884 l 126 884 l 126 1002 l 8 1002 l 8 884 m 135 884 l 253 884 l 253 1002 l 135 1002 l 135 884 m 261 758 l 379 758 l 379 875 l 261 875 l 261 758 m 8 758 l 126 758 l 126 875 l 8 875 l 8 758 m 135 758 l 253 758 l 253 875 l 135 875 l 135 758 m 8 631 l 126 631 l 126 749 l 8 749 l 8 631 m 261 631 l 379 631 l 379 749 l 261 749 l 261 631 m 135 631 l 253 631 l 253 749 l 135 749 l 135 631 m 135 505 l 253 505 l 253 623 l 135 623 l 135 505 m 135 379 l 253 379 l 253 497 l 135 497 l 135 379 m 135 253 l 253 253 l 253 370 l 135 370 l 135 253 m 135 126 l 253 126 l 253 244 l 135 244 l 135 126 m 261 -126 l 379 -126 l 379 -8 l 261 -8 l 261 -126 m 135 -126 l 253 -126 l 253 -8 l 135 -8 l 135 -126 m 8 -126 l 126 -126 l 126 -8 l 8 -8 l 8 -126 m 135 -253 l 253 -253 l 253 -135 l 135 -135 l 135 -253 m 8 -253 l 126 -253 l 126 -135 l 8 -135 l 8 -253 m 379 -135 l 261 -135 l 261 -253 l 379 -253 l 379 -135 m 253 -379 l 253 -261 l 8 -261 l 8 -379 l 126 -379 l 126 -261 l 135 -261 l 135 -379 l 253 -379 m 379 -379 l 379 -261 l 261 -261 l 261 -379 l 379 -379 m 0 1010 l 126 1010 l 126 884 l 0 884 l 0 1010 m 126 884 l 253 884 l 253 758 l 126 758 l 126 884 m 253 1010 l 379 1010 l 379 884 l 253 884 l 253 1010 m 253 884 l 379 884 l 379 758 l 253 758 l 253 884 m 0 884 l 126 884 l 126 758 l 0 758 l 0 884 z "},"Û":{"ha":505,"x_min":0,"x_max":505,"o":"m 505 -387 l 0 -387 l 0 1010 l 505 1010 l 505 1002 l 387 1002 l 387 884 l 505 884 l 505 875 l 387 875 l 387 758 l 505 758 l 505 749 l 387 749 l 387 631 l 505 631 l 505 623 l 387 623 l 387 505 l 505 505 l 505 497 l 387 497 l 387 379 l 505 379 l 505 370 l 387 370 l 387 253 l 505 253 l 505 244 l 387 244 l 387 126 l 505 126 l 505 118 l 387 118 l 387 0 l 505 0 l 505 -8 l 387 -8 l 387 -126 l 505 -126 l 505 -135 l 387 -135 l 387 -253 l 505 -253 l 505 -261 l 387 -261 l 387 -379 l 505 -379 l 505 -387 m 261 884 l 379 884 l 379 1002 l 261 1002 l 261 884 m 8 884 l 126 884 l 126 1002 l 8 1002 l 8 884 m 135 884 l 253 884 l 253 1002 l 135 1002 l 135 884 m 261 758 l 379 758 l 379 875 l 261 875 l 261 758 m 8 758 l 126 758 l 126 875 l 8 875 l 8 758 m 135 758 l 253 758 l 253 875 l 135 875 l 135 758 m 8 631 l 126 631 l 126 749 l 8 749 l 8 631 m 261 631 l 379 631 l 379 749 l 261 749 l 261 631 m 135 631 l 253 631 l 253 749 l 135 749 l 135 631 m 135 505 l 253 505 l 253 623 l 135 623 l 135 505 m 135 379 l 253 379 l 253 497 l 135 497 l 135 379 m 135 253 l 253 253 l 253 370 l 135 370 l 135 253 m 135 126 l 253 126 l 253 244 l 135 244 l 135 126 m 261 -126 l 379 -126 l 379 -8 l 261 -8 l 261 -126 m 135 -126 l 253 -126 l 253 -8 l 135 -8 l 135 -126 m 8 -126 l 126 -126 l 126 -8 l 8 -8 l 8 -126 m 135 -253 l 253 -253 l 253 -135 l 135 -135 l 135 -253 m 8 -253 l 126 -253 l 126 -135 l 8 -135 l 8 -253 m 379 -135 l 261 -135 l 261 -253 l 379 -253 l 379 -135 m 253 -379 l 253 -261 l 8 -261 l 8 -379 l 126 -379 l 126 -261 l 135 -261 l 135 -379 l 253 -379 m 379 -379 l 379 -261 l 261 -261 l 261 -379 l 379 -379 m 126 1010 l 253 1010 l 253 884 l 126 884 l 126 1010 m 0 884 l 126 884 l 126 758 l 0 758 l 0 884 m 253 884 l 379 884 l 379 758 l 253 758 l 253 884 z "},"Ü":{"ha":505,"x_min":0,"x_max":505,"o":"m 505 -387 l 0 -387 l 0 1010 l 505 1010 l 505 1002 l 387 1002 l 387 884 l 505 884 l 505 875 l 387 875 l 387 758 l 505 758 l 505 749 l 387 749 l 387 631 l 505 631 l 505 623 l 387 623 l 387 505 l 505 505 l 505 497 l 387 497 l 387 379 l 505 379 l 505 370 l 387 370 l 387 253 l 505 253 l 505 244 l 387 244 l 387 126 l 505 126 l 505 118 l 387 118 l 387 0 l 505 0 l 505 -8 l 387 -8 l 387 -126 l 505 -126 l 505 -135 l 387 -135 l 387 -253 l 505 -253 l 505 -261 l 387 -261 l 387 -379 l 505 -379 l 505 -387 m 261 884 l 379 884 l 379 1002 l 261 1002 l 261 884 m 8 884 l 126 884 l 126 1002 l 8 1002 l 8 884 m 135 884 l 253 884 l 253 1002 l 135 1002 l 135 884 m 261 758 l 379 758 l 379 875 l 261 875 l 261 758 m 8 758 l 126 758 l 126 875 l 8 875 l 8 758 m 135 758 l 253 758 l 253 875 l 135 875 l 135 758 m 8 631 l 126 631 l 126 749 l 8 749 l 8 631 m 261 631 l 379 631 l 379 749 l 261 749 l 261 631 m 135 631 l 253 631 l 253 749 l 135 749 l 135 631 m 135 505 l 253 505 l 253 623 l 135 623 l 135 505 m 135 379 l 253 379 l 253 497 l 135 497 l 135 379 m 135 253 l 253 253 l 253 370 l 135 370 l 135 253 m 135 126 l 253 126 l 253 244 l 135 244 l 135 126 m 261 -126 l 379 -126 l 379 -8 l 261 -8 l 261 -126 m 135 -126 l 253 -126 l 253 -8 l 135 -8 l 135 -126 m 8 -126 l 126 -126 l 126 -8 l 8 -8 l 8 -126 m 135 -253 l 253 -253 l 253 -135 l 135 -135 l 135 -253 m 8 -253 l 126 -253 l 126 -135 l 8 -135 l 8 -253 m 379 -135 l 261 -135 l 261 -253 l 379 -253 l 379 -135 m 253 -379 l 253 -261 l 8 -261 l 8 -379 l 126 -379 l 126 -261 l 135 -261 l 135 -379 l 253 -379 m 379 -379 l 379 -261 l 261 -261 l 261 -379 l 379 -379 m 0 884 l 126 884 l 126 758 l 0 758 l 0 884 m 253 884 l 379 884 l 379 758 l 253 758 l 253 884 z "},"Ù":{"ha":505,"x_min":0,"x_max":505,"o":"m 505 -387 l 0 -387 l 0 1010 l 505 1010 l 505 1002 l 387 1002 l 387 884 l 505 884 l 505 875 l 387 875 l 387 758 l 505 758 l 505 749 l 387 749 l 387 631 l 505 631 l 505 623 l 387 623 l 387 505 l 505 505 l 505 497 l 387 497 l 387 379 l 505 379 l 505 370 l 387 370 l 387 253 l 505 253 l 505 244 l 387 244 l 387 126 l 505 126 l 505 118 l 387 118 l 387 0 l 505 0 l 505 -8 l 387 -8 l 387 -126 l 505 -126 l 505 -135 l 387 -135 l 387 -253 l 505 -253 l 505 -261 l 387 -261 l 387 -379 l 505 -379 l 505 -387 m 261 884 l 379 884 l 379 1002 l 261 1002 l 261 884 m 8 884 l 126 884 l 126 1002 l 8 1002 l 8 884 m 135 884 l 253 884 l 253 1002 l 135 1002 l 135 884 m 261 758 l 379 758 l 379 875 l 261 875 l 261 758 m 8 758 l 126 758 l 126 875 l 8 875 l 8 758 m 135 758 l 253 758 l 253 875 l 135 875 l 135 758 m 8 631 l 126 631 l 126 749 l 8 749 l 8 631 m 261 631 l 379 631 l 379 749 l 261 749 l 261 631 m 135 631 l 253 631 l 253 749 l 135 749 l 135 631 m 135 505 l 253 505 l 253 623 l 135 623 l 135 505 m 135 379 l 253 379 l 253 497 l 135 497 l 135 379 m 135 253 l 253 253 l 253 370 l 135 370 l 135 253 m 135 126 l 253 126 l 253 244 l 135 244 l 135 126 m 261 -126 l 379 -126 l 379 -8 l 261 -8 l 261 -126 m 135 -126 l 253 -126 l 253 -8 l 135 -8 l 135 -126 m 8 -126 l 126 -126 l 126 -8 l 8 -8 l 8 -126 m 135 -253 l 253 -253 l 253 -135 l 135 -135 l 135 -253 m 8 -253 l 126 -253 l 126 -135 l 8 -135 l 8 -253 m 379 -135 l 261 -135 l 261 -253 l 379 -253 l 379 -135 m 253 -379 l 253 -261 l 8 -261 l 8 -379 l 126 -379 l 126 -261 l 135 -261 l 135 -379 l 253 -379 m 379 -379 l 379 -261 l 261 -261 l 261 -379 l 379 -379 m 126 884 l 253 884 l 253 758 l 126 758 l 126 884 m 0 1010 l 126 1010 l 126 884 l 0 884 l 0 1010 z "},"Ű":{"ha":505,"x_min":-126,"x_max":505,"o":"m 505 -387 l 0 -387 l 0 1010 l 505 1010 l 505 1002 l 387 1002 l 387 884 l 505 884 l 505 875 l 387 875 l 387 758 l 505 758 l 505 749 l 387 749 l 387 631 l 505 631 l 505 623 l 387 623 l 387 505 l 505 505 l 505 497 l 387 497 l 387 379 l 505 379 l 505 370 l 387 370 l 387 253 l 505 253 l 505 244 l 387 244 l 387 126 l 505 126 l 505 118 l 387 118 l 387 0 l 505 0 l 505 -8 l 387 -8 l 387 -126 l 505 -126 l 505 -135 l 387 -135 l 387 -253 l 505 -253 l 505 -261 l 387 -261 l 387 -379 l 505 -379 l 505 -387 m 261 884 l 379 884 l 379 1002 l 261 1002 l 261 884 m 8 884 l 126 884 l 126 1002 l 8 1002 l 8 884 m 135 884 l 253 884 l 253 1002 l 135 1002 l 135 884 m 261 758 l 379 758 l 379 875 l 261 875 l 261 758 m 8 758 l 126 758 l 126 875 l 8 875 l 8 758 m 135 758 l 253 758 l 253 875 l 135 875 l 135 758 m 8 631 l 126 631 l 126 749 l 8 749 l 8 631 m 261 631 l 379 631 l 379 749 l 261 749 l 261 631 m 135 631 l 253 631 l 253 749 l 135 749 l 135 631 m 135 505 l 253 505 l 253 623 l 135 623 l 135 505 m 135 379 l 253 379 l 253 497 l 135 497 l 135 379 m 135 253 l 253 253 l 253 370 l 135 370 l 135 253 m 135 126 l 253 126 l 253 244 l 135 244 l 135 126 m 261 -126 l 379 -126 l 379 -8 l 261 -8 l 261 -126 m 135 -126 l 253 -126 l 253 -8 l 135 -8 l 135 -126 m 8 -126 l 126 -126 l 126 -8 l 8 -8 l 8 -126 m 135 -253 l 253 -253 l 253 -135 l 135 -135 l 135 -253 m 8 -253 l 126 -253 l 126 -135 l 8 -135 l 8 -253 m 379 -135 l 261 -135 l 261 -253 l 379 -253 l 379 -135 m 253 -379 l 253 -261 l 8 -261 l 8 -379 l 126 -379 l 126 -261 l 135 -261 l 135 -379 l 253 -379 m 379 -379 l 379 -261 l 261 -261 l 261 -379 l 379 -379 m -126 884 l 0 884 l 0 758 l -126 758 l -126 884 m 0 1010 l 126 1010 l 126 884 l 0 884 l 0 1010 m 126 884 l 253 884 l 253 758 l 126 758 l 126 884 m 253 1010 l 379 1010 l 379 884 l 253 884 l 253 1010 z "},"Ū":{"ha":505,"x_min":0,"x_max":505,"o":"m 505 -387 l 0 -387 l 0 1010 l 505 1010 l 505 1002 l 387 1002 l 387 884 l 505 884 l 505 875 l 387 875 l 387 758 l 505 758 l 505 749 l 387 749 l 387 631 l 505 631 l 505 623 l 387 623 l 387 505 l 505 505 l 505 497 l 387 497 l 387 379 l 505 379 l 505 370 l 387 370 l 387 253 l 505 253 l 505 244 l 387 244 l 387 126 l 505 126 l 505 118 l 387 118 l 387 0 l 505 0 l 505 -8 l 387 -8 l 387 -126 l 505 -126 l 505 -135 l 387 -135 l 387 -253 l 505 -253 l 505 -261 l 387 -261 l 387 -379 l 505 -379 l 505 -387 m 261 884 l 379 884 l 379 1002 l 261 1002 l 261 884 m 8 884 l 126 884 l 126 1002 l 8 1002 l 8 884 m 135 884 l 253 884 l 253 1002 l 135 1002 l 135 884 m 261 758 l 379 758 l 379 875 l 261 875 l 261 758 m 8 758 l 126 758 l 126 875 l 8 875 l 8 758 m 135 758 l 253 758 l 253 875 l 135 875 l 135 758 m 8 631 l 126 631 l 126 749 l 8 749 l 8 631 m 261 631 l 379 631 l 379 749 l 261 749 l 261 631 m 135 631 l 253 631 l 253 749 l 135 749 l 135 631 m 135 505 l 253 505 l 253 623 l 135 623 l 135 505 m 135 379 l 253 379 l 253 497 l 135 497 l 135 379 m 135 253 l 253 253 l 253 370 l 135 370 l 135 253 m 135 126 l 253 126 l 253 244 l 135 244 l 135 126 m 261 -126 l 379 -126 l 379 -8 l 261 -8 l 261 -126 m 135 -126 l 253 -126 l 253 -8 l 135 -8 l 135 -126 m 8 -126 l 126 -126 l 126 -8 l 8 -8 l 8 -126 m 135 -253 l 253 -253 l 253 -135 l 135 -135 l 135 -253 m 8 -253 l 126 -253 l 126 -135 l 8 -135 l 8 -253 m 379 -135 l 261 -135 l 261 -253 l 379 -253 l 379 -135 m 253 -379 l 253 -261 l 8 -261 l 8 -379 l 126 -379 l 126 -261 l 135 -261 l 135 -379 l 253 -379 m 379 -379 l 379 -261 l 261 -261 l 261 -379 l 379 -379 m 0 884 l 126 884 l 126 758 l 0 758 l 0 884 m 126 884 l 253 884 l 253 758 l 126 758 l 126 884 m 253 884 l 379 884 l 379 758 l 253 758 l 253 884 z "},"Ų":{"ha":505,"x_min":0,"x_max":505,"o":"m 505 -387 l 0 -387 l 0 1010 l 505 1010 l 505 1002 l 387 1002 l 387 884 l 505 884 l 505 875 l 387 875 l 387 758 l 505 758 l 505 749 l 387 749 l 387 631 l 505 631 l 505 623 l 387 623 l 387 505 l 505 505 l 505 497 l 387 497 l 387 379 l 505 379 l 505 370 l 387 370 l 387 253 l 505 253 l 505 244 l 387 244 l 387 126 l 505 126 l 505 118 l 387 118 l 387 0 l 505 0 l 505 -8 l 387 -8 l 387 -126 l 505 -126 l 505 -135 l 387 -135 l 387 -253 l 505 -253 l 505 -261 l 387 -261 l 387 -379 l 505 -379 l 505 -387 m 261 884 l 379 884 l 379 1002 l 261 1002 l 261 884 m 8 884 l 126 884 l 126 1002 l 8 1002 l 8 884 m 135 884 l 253 884 l 253 1002 l 135 1002 l 135 884 m 261 758 l 379 758 l 379 875 l 261 875 l 261 758 m 8 758 l 126 758 l 126 875 l 8 875 l 8 758 m 135 758 l 253 758 l 253 875 l 135 875 l 135 758 m 8 631 l 126 631 l 126 749 l 8 749 l 8 631 m 261 631 l 379 631 l 379 749 l 261 749 l 261 631 m 135 631 l 253 631 l 253 749 l 135 749 l 135 631 m 135 505 l 253 505 l 253 623 l 135 623 l 135 505 m 135 379 l 253 379 l 253 497 l 135 497 l 135 379 m 135 253 l 253 253 l 253 370 l 135 370 l 135 253 m 135 126 l 253 126 l 253 244 l 135 244 l 135 126 m 261 -126 l 379 -126 l 379 -8 l 261 -8 l 261 -126 m 135 -126 l 253 -126 l 253 -8 l 135 -8 l 135 -126 m 8 -126 l 126 -126 l 126 -8 l 8 -8 l 8 -126 m 135 -253 l 253 -253 l 253 -135 l 135 -135 l 135 -253 m 8 -253 l 126 -253 l 126 -135 l 8 -135 l 8 -253 m 379 -135 l 261 -135 l 261 -253 l 379 -253 l 379 -135 m 253 -379 l 253 -261 l 8 -261 l 8 -379 l 126 -379 l 126 -261 l 135 -261 l 135 -379 l 253 -379 m 379 -379 l 379 -261 l 261 -261 l 261 -379 l 379 -379 m 253 0 l 253 -126 l 126 -126 l 126 0 l 253 0 m 379 -126 l 379 -253 l 253 -253 l 253 -126 l 379 -126 z "},"Ů":{"ha":505,"x_min":0,"x_max":505,"o":"m 505 -387 l 0 -387 l 0 -261 l 8 -261 l 8 -379 l 126 -379 l 126 -261 l 135 -261 l 135 -379 l 253 -379 l 253 -261 l 261 -261 l 261 -379 l 379 -379 l 379 -261 l 0 -261 l 0 1010 l 505 1010 l 505 1002 l 387 1002 l 387 884 l 505 884 l 505 875 l 387 875 l 387 758 l 505 758 l 505 749 l 387 749 l 387 631 l 505 631 l 505 623 l 387 623 l 387 505 l 505 505 l 505 497 l 387 497 l 387 379 l 505 379 l 505 370 l 387 370 l 387 253 l 505 253 l 505 244 l 387 244 l 387 126 l 505 126 l 505 118 l 387 118 l 387 0 l 505 0 l 505 -8 l 387 -8 l 387 -126 l 505 -126 l 505 -135 l 387 -135 l 387 -253 l 505 -253 l 505 -261 l 387 -261 l 387 -379 l 505 -379 l 505 -387 m 8 884 l 126 884 l 126 1002 l 8 1002 l 8 884 m 261 884 l 379 884 l 379 1002 l 261 1002 l 261 884 m 135 758 l 253 758 l 253 875 l 135 875 l 135 758 m 8 631 l 126 631 l 126 749 l 8 749 l 8 631 m 261 631 l 379 631 l 379 749 l 261 749 l 261 631 m 8 505 l 126 505 l 126 623 l 8 623 l 8 505 m 135 505 l 253 505 l 253 623 l 135 623 l 135 505 m 261 505 l 379 505 l 379 623 l 261 623 l 261 505 m 135 379 l 253 379 l 253 497 l 135 497 l 135 379 m 135 253 l 253 253 l 253 370 l 135 370 l 135 253 m 135 126 l 253 126 l 253 244 l 135 244 l 135 126 m 8 -126 l 126 -126 l 126 -8 l 8 -8 l 8 -126 m 135 -126 l 253 -126 l 253 -8 l 135 -8 l 135 -126 m 261 -126 l 379 -126 l 379 -8 l 261 -8 l 261 -126 m 8 -253 l 126 -253 l 126 -135 l 8 -135 l 8 -253 m 135 -253 l 253 -253 l 253 -135 l 135 -135 l 135 -253 m 261 -253 l 379 -253 l 379 -135 l 261 -135 l 261 -253 z "},"V":{"ha":505,"x_min":0,"x_max":505,"o":"m 505 -387 l 0 -387 l 0 -261 l 8 -261 l 8 -379 l 126 -379 l 126 -261 l 0 -261 l 0 1010 l 505 1010 l 505 1002 l 387 1002 l 387 884 l 505 884 l 505 875 l 387 875 l 387 758 l 505 758 l 505 749 l 387 749 l 387 631 l 505 631 l 505 623 l 387 623 l 387 505 l 505 505 l 505 497 l 387 497 l 387 379 l 505 379 l 505 370 l 387 370 l 387 253 l 505 253 l 505 244 l 387 244 l 387 126 l 505 126 l 505 118 l 387 118 l 387 0 l 505 0 l 505 -8 l 387 -8 l 387 -126 l 505 -126 l 505 -135 l 387 -135 l 387 -253 l 505 -253 l 505 -261 l 387 -261 l 387 -379 l 505 -379 l 505 -387 m 261 884 l 379 884 l 379 1002 l 261 1002 l 261 884 m 8 884 l 126 884 l 126 1002 l 8 1002 l 8 884 m 135 884 l 253 884 l 253 1002 l 135 1002 l 135 884 m 261 758 l 379 758 l 379 875 l 261 875 l 261 758 m 8 758 l 126 758 l 126 875 l 8 875 l 8 758 m 135 758 l 253 758 l 253 875 l 135 875 l 135 758 m 261 631 l 379 631 l 379 749 l 261 749 l 261 631 m 8 631 l 126 631 l 126 749 l 8 749 l 8 631 m 135 631 l 253 631 l 253 749 l 135 749 l 135 631 m 135 505 l 253 505 l 253 623 l 135 623 l 135 505 m 135 379 l 253 379 l 253 497 l 135 497 l 135 379 m 135 253 l 253 253 l 253 370 l 135 370 l 135 253 m 135 126 l 253 126 l 253 244 l 135 244 l 135 126 m 261 0 l 379 0 l 379 118 l 261 118 l 261 0 m 8 0 l 126 0 l 126 118 l 8 118 l 8 0 m 261 -126 l 379 -126 l 379 -8 l 261 -8 l 261 -126 m 135 -126 l 253 -126 l 253 -8 l 135 -8 l 135 -126 m 8 -126 l 126 -126 l 126 -8 l 8 -8 l 8 -126 m 135 -253 l 253 -253 l 253 -135 l 135 -135 l 135 -253 m 8 -253 l 126 -253 l 126 -135 l 8 -135 l 8 -253 m 379 -135 l 261 -135 l 261 -253 l 379 -253 l 379 -135 m 253 -379 l 253 -261 l 135 -261 l 135 -379 l 253 -379 m 379 -379 l 379 -261 l 261 -261 l 261 -379 l 379 -379 z "},"W":{"ha":758,"x_min":0,"x_max":758,"o":"m 758 -387 l 0 -387 l 0 -261 l 8 -261 l 8 -379 l 126 -379 l 126 -261 l 135 -261 l 135 -379 l 253 -379 l 253 -261 l 261 -261 l 261 -379 l 379 -379 l 379 -261 l 387 -261 l 387 -379 l 505 -379 l 505 -261 l 513 -261 l 513 -379 l 631 -379 l 631 -261 l 0 -261 l 0 1010 l 758 1010 l 758 1002 l 640 1002 l 640 884 l 758 884 l 758 875 l 640 875 l 640 758 l 758 758 l 758 749 l 640 749 l 640 631 l 758 631 l 758 623 l 640 623 l 640 505 l 758 505 l 758 497 l 640 497 l 640 379 l 758 379 l 758 370 l 640 370 l 640 253 l 758 253 l 758 244 l 640 244 l 640 126 l 758 126 l 758 118 l 640 118 l 640 0 l 758 0 l 758 -8 l 640 -8 l 640 -126 l 758 -126 l 758 -135 l 640 -135 l 640 -253 l 758 -253 l 758 -261 l 640 -261 l 640 -379 l 758 -379 l 758 -387 m 135 884 l 253 884 l 253 1002 l 135 1002 l 135 884 m 387 884 l 505 884 l 505 1002 l 387 1002 l 387 884 m 261 884 l 379 884 l 379 1002 l 261 1002 l 261 884 m 8 884 l 126 884 l 126 1002 l 8 1002 l 8 884 m 513 884 l 631 884 l 631 1002 l 513 1002 l 513 884 m 387 758 l 505 758 l 505 875 l 387 875 l 387 758 m 513 758 l 631 758 l 631 875 l 513 875 l 513 758 m 261 758 l 379 758 l 379 875 l 261 875 l 261 758 m 8 758 l 126 758 l 126 875 l 8 875 l 8 758 m 135 758 l 253 758 l 253 875 l 135 875 l 135 758 m 387 631 l 505 631 l 505 749 l 387 749 l 387 631 m 513 631 l 631 631 l 631 749 l 513 749 l 513 631 m 8 631 l 126 631 l 126 749 l 8 749 l 8 631 m 261 631 l 379 631 l 379 749 l 261 749 l 261 631 m 135 631 l 253 631 l 253 749 l 135 749 l 135 631 m 135 505 l 253 505 l 253 623 l 135 623 l 135 505 m 387 505 l 505 505 l 505 623 l 387 623 l 387 505 m 135 379 l 253 379 l 253 497 l 135 497 l 135 379 m 387 379 l 505 379 l 505 497 l 387 497 l 387 379 m 135 253 l 253 253 l 253 370 l 135 370 l 135 253 m 387 253 l 505 253 l 505 370 l 387 370 l 387 253 m 387 126 l 505 126 l 505 244 l 387 244 l 387 126 m 135 126 l 253 126 l 253 244 l 135 244 l 135 126 m 513 0 l 631 0 l 631 118 l 513 118 l 513 0 m 261 0 l 379 0 l 379 118 l 261 118 l 261 0 m 8 0 l 126 0 l 126 118 l 8 118 l 8 0 m 513 -126 l 631 -126 l 631 -8 l 513 -8 l 513 -126 m 387 -126 l 505 -126 l 505 -8 l 387 -8 l 387 -126 m 261 -126 l 379 -126 l 379 -8 l 261 -8 l 261 -126 m 135 -126 l 253 -126 l 253 -8 l 135 -8 l 135 -126 m 8 -126 l 126 -126 l 126 -8 l 8 -8 l 8 -126 m 387 -253 l 505 -253 l 505 -135 l 387 -135 l 387 -253 m 261 -253 l 379 -253 l 379 -135 l 261 -135 l 261 -253 m 135 -253 l 253 -253 l 253 -135 l 135 -135 l 135 -253 m 8 -253 l 126 -253 l 126 -135 l 8 -135 l 8 -253 m 631 -135 l 513 -135 l 513 -253 l 631 -253 l 631 -135 z "},"Ẃ":{"ha":758,"x_min":0,"x_max":758,"o":"m 758 -387 l 0 -387 l 0 -261 l 8 -261 l 8 -379 l 126 -379 l 126 -261 l 135 -261 l 135 -379 l 253 -379 l 253 -261 l 261 -261 l 261 -379 l 379 -379 l 379 -261 l 387 -261 l 387 -379 l 505 -379 l 505 -261 l 513 -261 l 513 -379 l 631 -379 l 631 -261 l 0 -261 l 0 1010 l 758 1010 l 758 1002 l 640 1002 l 640 884 l 758 884 l 758 875 l 640 875 l 640 758 l 758 758 l 758 749 l 640 749 l 640 631 l 758 631 l 758 623 l 640 623 l 640 505 l 758 505 l 758 497 l 640 497 l 640 379 l 758 379 l 758 370 l 640 370 l 640 253 l 758 253 l 758 244 l 640 244 l 640 126 l 758 126 l 758 118 l 640 118 l 640 0 l 758 0 l 758 -8 l 640 -8 l 640 -126 l 758 -126 l 758 -135 l 640 -135 l 640 -253 l 758 -253 l 758 -261 l 640 -261 l 640 -379 l 758 -379 l 758 -387 m 513 884 l 631 884 l 631 1002 l 513 1002 l 513 884 m 8 884 l 126 884 l 126 1002 l 8 1002 l 8 884 m 135 884 l 253 884 l 253 1002 l 135 1002 l 135 884 m 261 884 l 379 884 l 379 1002 l 261 1002 l 261 884 m 8 758 l 126 758 l 126 875 l 8 875 l 8 758 m 513 758 l 631 758 l 631 875 l 513 875 l 513 758 m 135 758 l 253 758 l 253 875 l 135 875 l 135 758 m 387 758 l 505 758 l 505 875 l 387 875 l 387 758 m 261 631 l 379 631 l 379 749 l 261 749 l 261 631 m 8 631 l 126 631 l 126 749 l 8 749 l 8 631 m 135 631 l 253 631 l 253 749 l 135 749 l 135 631 m 513 631 l 631 631 l 631 749 l 513 749 l 513 631 m 387 631 l 505 631 l 505 749 l 387 749 l 387 631 m 135 505 l 253 505 l 253 623 l 135 623 l 135 505 m 387 505 l 505 505 l 505 623 l 387 623 l 387 505 m 135 379 l 253 379 l 253 497 l 135 497 l 135 379 m 387 379 l 505 379 l 505 497 l 387 497 l 387 379 m 135 253 l 253 253 l 253 370 l 135 370 l 135 253 m 387 253 l 505 253 l 505 370 l 387 370 l 387 253 m 135 126 l 253 126 l 253 244 l 135 244 l 135 126 m 387 126 l 505 126 l 505 244 l 387 244 l 387 126 m 8 0 l 126 0 l 126 118 l 8 118 l 8 0 m 261 0 l 379 0 l 379 118 l 261 118 l 261 0 m 513 0 l 631 0 l 631 118 l 513 118 l 513 0 m 8 -126 l 126 -126 l 126 -8 l 8 -8 l 8 -126 m 135 -126 l 253 -126 l 253 -8 l 135 -8 l 135 -126 m 261 -126 l 379 -126 l 379 -8 l 261 -8 l 261 -126 m 513 -126 l 631 -126 l 631 -8 l 513 -8 l 513 -126 m 387 -126 l 505 -126 l 505 -8 l 387 -8 l 387 -126 m 387 -253 l 505 -253 l 505 -135 l 387 -135 l 387 -253 m 631 -135 l 513 -135 l 513 -253 l 631 -253 l 631 -135 m 261 -253 l 379 -253 l 379 -135 l 261 -135 l 261 -253 m 135 -253 l 253 -253 l 253 -135 l 135 -135 l 135 -253 m 8 -253 l 126 -253 l 126 -135 l 8 -135 l 8 -253 z "},"Ŵ":{"ha":758,"x_min":0,"x_max":758,"o":"m 253 884 l 253 1002 l 135 1002 l 135 884 l 253 884 m 631 758 l 631 875 l 513 875 l 513 758 l 631 758 m 379 758 l 379 875 l 261 875 l 261 758 l 379 758 m 126 758 l 126 875 l 8 875 l 8 758 l 126 758 m 631 631 l 631 749 l 513 749 l 513 631 l 631 631 m 505 631 l 505 749 l 387 749 l 387 631 l 505 631 m 379 631 l 379 749 l 261 749 l 261 631 l 379 631 m 253 631 l 253 749 l 135 749 l 135 631 l 253 631 m 126 631 l 126 749 l 8 749 l 8 631 l 126 631 m 505 505 l 505 623 l 387 623 l 387 505 l 505 505 m 253 505 l 253 623 l 135 623 l 135 505 l 253 505 m 505 379 l 505 497 l 387 497 l 387 379 l 505 379 m 253 379 l 253 497 l 135 497 l 135 379 l 253 379 m 505 253 l 505 370 l 387 370 l 387 253 l 505 253 m 253 253 l 253 370 l 135 370 l 135 253 l 253 253 m 505 126 l 505 244 l 387 244 l 387 126 l 505 126 m 253 126 l 253 244 l 135 244 l 135 126 l 253 126 m 631 0 l 631 118 l 513 118 l 513 0 l 631 0 m 379 0 l 379 118 l 261 118 l 261 0 l 379 0 m 126 0 l 126 118 l 8 118 l 8 0 l 126 0 m 631 -126 l 631 -8 l 513 -8 l 513 -126 l 631 -126 m 505 -126 l 505 -8 l 387 -8 l 387 -126 l 505 -126 m 379 -126 l 379 -8 l 261 -8 l 261 -126 l 379 -126 m 253 -126 l 253 -8 l 135 -8 l 135 -126 l 253 -126 m 126 -126 l 126 -8 l 8 -8 l 8 -126 l 126 -126 m 631 884 l 631 1002 l 513 1002 l 513 884 l 631 884 m 505 884 l 505 1002 l 387 1002 l 387 884 l 505 884 m 126 884 l 126 1002 l 8 1002 l 8 884 l 126 884 m 631 -379 l 631 -261 l 513 -261 l 513 -379 l 631 -379 m 126 -253 l 126 -135 l 8 -135 l 8 -253 l 126 -253 m 253 -253 l 253 -135 l 135 -135 l 135 -253 l 253 -253 m 379 -253 l 379 -135 l 261 -135 l 261 -253 l 379 -253 m 505 -253 l 505 -135 l 387 -135 l 387 -253 l 505 -253 m 631 -253 l 631 -135 l 513 -135 l 513 -253 l 631 -253 m 505 -379 l 505 -261 l 387 -261 l 387 -379 l 505 -379 m 379 -379 l 379 -261 l 261 -261 l 261 -379 l 379 -379 m 253 -379 l 253 -261 l 135 -261 l 135 -379 l 253 -379 m 126 -379 l 126 -261 l 8 -261 l 8 -379 l 126 -379 m 758 -387 l 0 -387 l 0 1010 l 758 1010 l 758 1002 l 640 1002 l 640 884 l 758 884 l 758 875 l 640 875 l 640 758 l 758 758 l 758 749 l 640 749 l 640 631 l 758 631 l 758 623 l 640 623 l 640 505 l 758 505 l 758 497 l 640 497 l 640 379 l 758 379 l 758 370 l 640 370 l 640 253 l 758 253 l 758 244 l 640 244 l 640 126 l 758 126 l 758 118 l 640 118 l 640 0 l 758 0 l 758 -8 l 640 -8 l 640 -126 l 758 -126 l 758 -135 l 640 -135 l 640 -253 l 758 -253 l 758 -261 l 640 -261 l 640 -379 l 758 -379 l 758 -387 z "},"Ẅ":{"ha":758,"x_min":0,"x_max":758,"o":"m 505 884 l 505 1002 l 387 1002 l 387 884 l 505 884 m 631 758 l 631 875 l 513 875 l 513 758 l 631 758 m 379 758 l 379 875 l 261 875 l 261 758 l 379 758 m 126 758 l 126 875 l 8 875 l 8 758 l 126 758 m 631 631 l 631 749 l 513 749 l 513 631 l 631 631 m 505 631 l 505 749 l 387 749 l 387 631 l 505 631 m 379 631 l 379 749 l 261 749 l 261 631 l 379 631 m 253 631 l 253 749 l 135 749 l 135 631 l 253 631 m 126 631 l 126 749 l 8 749 l 8 631 l 126 631 m 505 505 l 505 623 l 387 623 l 387 505 l 505 505 m 253 505 l 253 623 l 135 623 l 135 505 l 253 505 m 505 379 l 505 497 l 387 497 l 387 379 l 505 379 m 253 379 l 253 497 l 135 497 l 135 379 l 253 379 m 505 253 l 505 370 l 387 370 l 387 253 l 505 253 m 253 253 l 253 370 l 135 370 l 135 253 l 253 253 m 505 126 l 505 244 l 387 244 l 387 126 l 505 126 m 253 126 l 253 244 l 135 244 l 135 126 l 253 126 m 631 0 l 631 118 l 513 118 l 513 0 l 631 0 m 379 0 l 379 118 l 261 118 l 261 0 l 379 0 m 126 0 l 126 118 l 8 118 l 8 0 l 126 0 m 631 -126 l 631 -8 l 513 -8 l 513 -126 l 631 -126 m 505 -126 l 505 -8 l 387 -8 l 387 -126 l 505 -126 m 379 -126 l 379 -8 l 261 -8 l 261 -126 l 379 -126 m 253 -126 l 253 -8 l 135 -8 l 135 -126 l 253 -126 m 126 -126 l 126 -8 l 8 -8 l 8 -126 l 126 -126 m 631 884 l 631 1002 l 513 1002 l 513 884 l 631 884 m 379 884 l 379 1002 l 261 1002 l 261 884 l 379 884 m 253 884 l 253 1002 l 135 1002 l 135 884 l 253 884 m 126 884 l 126 1002 l 8 1002 l 8 884 l 126 884 m 631 -379 l 631 -261 l 513 -261 l 513 -379 l 631 -379 m 126 -253 l 126 -135 l 8 -135 l 8 -253 l 126 -253 m 253 -253 l 253 -135 l 135 -135 l 135 -253 l 253 -253 m 379 -253 l 379 -135 l 261 -135 l 261 -253 l 379 -253 m 505 -253 l 505 -135 l 387 -135 l 387 -253 l 505 -253 m 631 -253 l 631 -135 l 513 -135 l 513 -253 l 631 -253 m 505 -379 l 505 -261 l 387 -261 l 387 -379 l 505 -379 m 379 -379 l 379 -261 l 261 -261 l 261 -379 l 379 -379 m 253 -379 l 253 -261 l 135 -261 l 135 -379 l 253 -379 m 126 -379 l 126 -261 l 8 -261 l 8 -379 l 126 -379 m 758 -387 l 0 -387 l 0 1010 l 758 1010 l 758 1002 l 640 1002 l 640 884 l 758 884 l 758 875 l 640 875 l 640 758 l 758 758 l 758 749 l 640 749 l 640 631 l 758 631 l 758 623 l 640 623 l 640 505 l 758 505 l 758 497 l 640 497 l 640 379 l 758 379 l 758 370 l 640 370 l 640 253 l 758 253 l 758 244 l 640 244 l 640 126 l 758 126 l 758 118 l 640 118 l 640 0 l 758 0 l 758 -8 l 640 -8 l 640 -126 l 758 -126 l 758 -135 l 640 -135 l 640 -253 l 758 -253 l 758 -261 l 640 -261 l 640 -379 l 758 -379 l 758 -387 z "},"Ẁ":{"ha":758,"x_min":0,"x_max":758,"o":"m 758 -387 l 0 -387 l 0 -261 l 8 -261 l 8 -379 l 126 -379 l 126 -261 l 135 -261 l 135 -379 l 253 -379 l 253 -261 l 261 -261 l 261 -379 l 379 -379 l 379 -261 l 387 -261 l 387 -379 l 505 -379 l 505 -261 l 513 -261 l 513 -379 l 631 -379 l 631 -261 l 0 -261 l 0 1010 l 758 1010 l 758 1002 l 640 1002 l 640 884 l 758 884 l 758 875 l 640 875 l 640 758 l 758 758 l 758 749 l 640 749 l 640 631 l 758 631 l 758 623 l 640 623 l 640 505 l 758 505 l 758 497 l 640 497 l 640 379 l 758 379 l 758 370 l 640 370 l 640 253 l 758 253 l 758 244 l 640 244 l 640 126 l 758 126 l 758 118 l 640 118 l 640 0 l 758 0 l 758 -8 l 640 -8 l 640 -126 l 758 -126 l 758 -135 l 640 -135 l 640 -253 l 758 -253 l 758 -261 l 640 -261 l 640 -379 l 758 -379 l 758 -387 m 261 884 l 379 884 l 379 1002 l 261 1002 l 261 884 m 513 884 l 631 884 l 631 1002 l 513 1002 l 513 884 m 8 884 l 126 884 l 126 1002 l 8 1002 l 8 884 m 387 884 l 505 884 l 505 1002 l 387 1002 l 387 884 m 8 758 l 126 758 l 126 875 l 8 875 l 8 758 m 513 758 l 631 758 l 631 875 l 513 875 l 513 758 m 135 758 l 253 758 l 253 875 l 135 875 l 135 758 m 387 758 l 505 758 l 505 875 l 387 875 l 387 758 m 8 631 l 126 631 l 126 749 l 8 749 l 8 631 m 135 631 l 253 631 l 253 749 l 135 749 l 135 631 m 513 631 l 631 631 l 631 749 l 513 749 l 513 631 m 261 631 l 379 631 l 379 749 l 261 749 l 261 631 m 387 631 l 505 631 l 505 749 l 387 749 l 387 631 m 135 505 l 253 505 l 253 623 l 135 623 l 135 505 m 387 505 l 505 505 l 505 623 l 387 623 l 387 505 m 135 379 l 253 379 l 253 497 l 135 497 l 135 379 m 387 379 l 505 379 l 505 497 l 387 497 l 387 379 m 135 253 l 253 253 l 253 370 l 135 370 l 135 253 m 387 253 l 505 253 l 505 370 l 387 370 l 387 253 m 135 126 l 253 126 l 253 244 l 135 244 l 135 126 m 387 126 l 505 126 l 505 244 l 387 244 l 387 126 m 8 0 l 126 0 l 126 118 l 8 118 l 8 0 m 261 0 l 379 0 l 379 118 l 261 118 l 261 0 m 513 0 l 631 0 l 631 118 l 513 118 l 513 0 m 8 -126 l 126 -126 l 126 -8 l 8 -8 l 8 -126 m 135 -126 l 253 -126 l 253 -8 l 135 -8 l 135 -126 m 261 -126 l 379 -126 l 379 -8 l 261 -8 l 261 -126 m 513 -126 l 631 -126 l 631 -8 l 513 -8 l 513 -126 m 387 -126 l 505 -126 l 505 -8 l 387 -8 l 387 -126 m 387 -253 l 505 -253 l 505 -135 l 387 -135 l 387 -253 m 631 -135 l 513 -135 l 513 -253 l 631 -253 l 631 -135 m 261 -253 l 379 -253 l 379 -135 l 261 -135 l 261 -253 m 135 -253 l 253 -253 l 253 -135 l 135 -135 l 135 -253 m 8 -253 l 126 -253 l 126 -135 l 8 -135 l 8 -253 z "},"X":{"ha":505,"x_min":0,"x_max":505,"o":"m 505 -387 l 0 -387 l 0 -261 l 8 -261 l 8 -379 l 126 -379 l 126 -261 l 0 -261 l 0 1010 l 505 1010 l 505 1002 l 387 1002 l 387 884 l 505 884 l 505 875 l 387 875 l 387 758 l 505 758 l 505 749 l 387 749 l 387 631 l 505 631 l 505 623 l 387 623 l 387 505 l 505 505 l 505 497 l 387 497 l 387 379 l 505 379 l 505 370 l 387 370 l 387 253 l 505 253 l 505 244 l 387 244 l 387 126 l 505 126 l 505 118 l 387 118 l 387 0 l 505 0 l 505 -8 l 387 -8 l 387 -126 l 505 -126 l 505 -135 l 387 -135 l 387 -253 l 505 -253 l 505 -261 l 387 -261 l 387 -379 l 505 -379 l 505 -387 m 261 884 l 379 884 l 379 1002 l 261 1002 l 261 884 m 8 884 l 126 884 l 126 1002 l 8 1002 l 8 884 m 135 884 l 253 884 l 253 1002 l 135 1002 l 135 884 m 261 758 l 379 758 l 379 875 l 261 875 l 261 758 m 8 758 l 126 758 l 126 875 l 8 875 l 8 758 m 135 758 l 253 758 l 253 875 l 135 875 l 135 758 m 261 631 l 379 631 l 379 749 l 261 749 l 261 631 m 8 631 l 126 631 l 126 749 l 8 749 l 8 631 m 135 631 l 253 631 l 253 749 l 135 749 l 135 631 m 135 505 l 253 505 l 253 623 l 135 623 l 135 505 m 135 379 l 253 379 l 253 497 l 135 497 l 135 379 m 261 253 l 379 253 l 379 370 l 261 370 l 261 253 m 8 253 l 126 253 l 126 370 l 8 370 l 8 253 m 135 126 l 253 126 l 253 244 l 135 244 l 135 126 m 135 0 l 253 0 l 253 118 l 135 118 l 135 0 m 261 -126 l 379 -126 l 379 -8 l 261 -8 l 261 -126 m 135 -126 l 253 -126 l 253 -8 l 135 -8 l 135 -126 m 8 -126 l 126 -126 l 126 -8 l 8 -8 l 8 -126 m 135 -253 l 253 -253 l 253 -135 l 135 -135 l 135 -253 m 8 -253 l 126 -253 l 126 -135 l 8 -135 l 8 -253 m 379 -135 l 261 -135 l 261 -253 l 379 -253 l 379 -135 m 253 -379 l 253 -261 l 135 -261 l 135 -379 l 253 -379 m 379 -379 l 379 -261 l 261 -261 l 261 -379 l 379 -379 z "},"Y":{"ha":505,"x_min":0,"x_max":505,"o":"m 505 -387 l 0 -387 l 0 -261 l 8 -261 l 8 -379 l 126 -379 l 126 -261 l 135 -261 l 135 -379 l 253 -379 l 253 -261 l 261 -261 l 261 -379 l 379 -379 l 379 -261 l 0 -261 l 0 1010 l 505 1010 l 505 1002 l 387 1002 l 387 884 l 505 884 l 505 875 l 387 875 l 387 758 l 505 758 l 505 749 l 387 749 l 387 631 l 505 631 l 505 623 l 387 623 l 387 505 l 505 505 l 505 497 l 387 497 l 387 379 l 505 379 l 505 370 l 387 370 l 387 253 l 505 253 l 505 244 l 387 244 l 387 126 l 505 126 l 505 118 l 387 118 l 387 0 l 505 0 l 505 -8 l 387 -8 l 387 -126 l 505 -126 l 505 -135 l 387 -135 l 387 -253 l 505 -253 l 505 -261 l 387 -261 l 387 -379 l 505 -379 l 505 -387 m 135 884 l 253 884 l 253 1002 l 135 1002 l 135 884 m 261 884 l 379 884 l 379 1002 l 261 1002 l 261 884 m 8 884 l 126 884 l 126 1002 l 8 1002 l 8 884 m 261 758 l 379 758 l 379 875 l 261 875 l 261 758 m 135 758 l 253 758 l 253 875 l 135 875 l 135 758 m 8 758 l 126 758 l 126 875 l 8 875 l 8 758 m 261 631 l 379 631 l 379 749 l 261 749 l 261 631 m 135 631 l 253 631 l 253 749 l 135 749 l 135 631 m 8 631 l 126 631 l 126 749 l 8 749 l 8 631 m 135 505 l 253 505 l 253 623 l 135 623 l 135 505 m 135 379 l 253 379 l 253 497 l 135 497 l 135 379 m 135 253 l 253 253 l 253 370 l 135 370 l 135 253 m 8 126 l 126 126 l 126 244 l 8 244 l 8 126 m 261 126 l 379 126 l 379 244 l 261 244 l 261 126 m 261 0 l 379 0 l 379 118 l 261 118 l 261 0 m 8 0 l 126 0 l 126 118 l 8 118 l 8 0 m 261 -126 l 379 -126 l 379 -8 l 261 -8 l 261 -126 m 8 -126 l 126 -126 l 126 -8 l 8 -8 l 8 -126 m 135 -126 l 253 -126 l 253 -8 l 135 -8 l 135 -126 m 8 -253 l 126 -253 l 126 -135 l 8 -135 l 8 -253 m 135 -253 l 253 -253 l 253 -135 l 135 -135 l 135 -253 m 379 -135 l 261 -135 l 261 -253 l 379 -253 l 379 -135 z "}}}
